<?xml version="1.0" encoding="UTF-8" standalone="no"?><!DOCTYPE svg PUBLIC "-//W3C//DTD SVG 1.1//EN" "http://www.w3.org/Graphics/SVG/1.1/DTD/svg11.dtd"><svg width="100%" height="100%" viewBox="0 0 1592 554" version="1.1" xmlns="http://www.w3.org/2000/svg" xmlns:xlink="http://www.w3.org/1999/xlink" xml:space="preserve" xmlns:serif="http://www.serif.com/" style="fill-rule:evenodd;clip-rule:evenodd;stroke-linecap:round;stroke-linejoin:round;stroke-miterlimit:10;"><g opacity="0.15"><path d="M25.326,478.007l58.519,-29.259l58.518,29.259l-58.518,29.261l-58.519,-29.261Z" style="fill:#fff;fill-rule:nonzero;"/><path d="M26.451,478.007l57.394,28.696l57.393,-28.696l-57.393,-28.696l-57.394,28.696Zm57.394,29.763c-0.078,0 -0.155,-0.018 -0.226,-0.053l-58.518,-29.26c-0.17,-0.086 -0.278,-0.259 -0.278,-0.45c0,-0.19 0.108,-0.364 0.278,-0.45l58.518,-29.258c0.142,-0.071 0.309,-0.071 0.45,0l58.518,29.258c0.171,0.086 0.279,0.26 0.279,0.45c0,0.191 -0.108,0.364 -0.279,0.45l-58.518,29.26c-0.07,0.035 -0.148,0.053 -0.224,0.053" style="fill-rule:nonzero;"/><path d="M37.03,454.599l0,23.408l11.703,5.852l0,-23.408l-11.703,-5.852Z" style="fill:#fff;fill-rule:nonzero;"/><path d="M37.533,477.696l10.697,5.348l0,-22.283l-10.697,-5.348l0,22.283Zm11.2,6.665c-0.076,0 -0.154,-0.018 -0.224,-0.052l-11.705,-5.852c-0.169,-0.086 -0.277,-0.26 -0.277,-0.45l0,-23.408c0,-0.174 0.091,-0.336 0.238,-0.428c0.148,-0.091 0.334,-0.1 0.489,-0.022l11.704,5.852c0.171,0.086 0.278,0.259 0.278,0.45l0,23.408c0,0.173 -0.09,0.335 -0.239,0.426c-0.08,0.051 -0.172,0.076 -0.264,0.076" style="fill-rule:nonzero;"/><path d="M48.733,483.859l11.704,-5.852l0,-23.408l-11.704,5.852l0,23.408Z" style="fill-rule:nonzero;"/><path d="M49.236,460.762l0,22.282l10.698,-5.347l0,-22.283l-10.698,5.348Zm-0.503,23.599c-0.091,0 -0.184,-0.025 -0.265,-0.075c-0.148,-0.091 -0.238,-0.253 -0.238,-0.427l0,-23.408c0,-0.19 0.107,-0.364 0.278,-0.45l11.704,-5.852c0.156,-0.077 0.341,-0.068 0.489,0.023c0.149,0.092 0.239,0.253 0.239,0.427l0,23.408c0,0.191 -0.107,0.364 -0.278,0.45l-11.704,5.852c-0.071,0.035 -0.149,0.052 -0.225,0.052" style="fill-rule:nonzero;"/><path d="M107.251,454.599l0,23.408l11.704,5.852l0,-23.408l-11.704,-5.852Z" style="fill:#fff;fill-rule:nonzero;"/><path d="M107.754,477.696l10.698,5.348l0,-22.283l-10.698,-5.348l0,22.283Zm11.201,6.665c-0.076,0 -0.154,-0.018 -0.225,-0.052l-11.704,-5.852c-0.17,-0.086 -0.278,-0.26 -0.278,-0.45l0,-23.408c0,-0.174 0.09,-0.336 0.239,-0.428c0.147,-0.091 0.334,-0.1 0.489,-0.022l11.704,5.852c0.171,0.086 0.278,0.259 0.278,0.45l0,23.408c0,0.173 -0.09,0.335 -0.239,0.426c-0.08,0.051 -0.173,0.076 -0.264,0.076" style="fill-rule:nonzero;"/><path d="M118.955,483.859l11.703,-5.852l0,-23.408l-11.703,5.852l0,23.408Z" style="fill-rule:nonzero;"/><path d="M119.458,460.762l0,22.282l10.697,-5.347l0,-22.283l-10.697,5.348Zm-0.503,23.599c-0.091,0 -0.184,-0.025 -0.265,-0.075c-0.148,-0.091 -0.238,-0.253 -0.238,-0.427l0,-23.408c0,-0.19 0.108,-0.364 0.278,-0.45l11.704,-5.852c0.156,-0.077 0.341,-0.068 0.489,0.023c0.148,0.092 0.238,0.253 0.238,0.427l0,23.408c0,0.191 -0.107,0.364 -0.278,0.45l-11.703,5.852c-0.071,0.035 -0.148,0.052 -0.225,0.052" style="fill-rule:nonzero;"/><path d="M89.696,463.378l0,23.407l11.704,5.852l0,-23.407l-11.704,-5.852Z" style="fill:#fff;fill-rule:nonzero;"/><path d="M90.199,486.474l10.698,5.349l0,-22.283l-10.698,-5.349l0,22.283Zm11.201,6.665c-0.078,0 -0.154,-0.018 -0.226,-0.053l-11.704,-5.852c-0.169,-0.085 -0.277,-0.259 -0.277,-0.45l0,-23.407c0,-0.174 0.09,-0.336 0.239,-0.427c0.148,-0.092 0.332,-0.1 0.489,-0.022l11.702,5.852c0.172,0.085 0.28,0.258 0.28,0.449l0,23.407c0,0.175 -0.091,0.336 -0.239,0.429c-0.081,0.049 -0.173,0.074 -0.264,0.074" style="fill-rule:nonzero;"/><path d="M101.401,492.636l11.703,-5.852l0,-23.407l-11.703,5.852l0,23.407Z" style="fill-rule:nonzero;"/><path d="M101.903,469.541l0,22.283l10.697,-5.349l0,-22.284l-10.697,5.35Zm-0.503,23.599c-0.092,0 -0.185,-0.026 -0.266,-0.075c-0.147,-0.092 -0.237,-0.253 -0.237,-0.428l0,-23.407c0,-0.191 0.107,-0.365 0.277,-0.45l11.704,-5.852c0.155,-0.077 0.34,-0.07 0.489,0.022c0.148,0.091 0.239,0.254 0.239,0.428l0,23.407c0,0.191 -0.107,0.365 -0.279,0.45l-11.704,5.852c-0.07,0.035 -0.147,0.053 -0.223,0.053" style="fill-rule:nonzero;"/><path d="M54.585,463.378l0,23.407l11.703,5.852l0,-23.407l-11.703,-5.852Z" style="fill:#fff;fill-rule:nonzero;"/><path d="M55.088,486.474l10.697,5.349l0,-22.283l-10.697,-5.349l0,22.283Zm11.2,6.665c-0.076,0 -0.153,-0.018 -0.224,-0.053l-11.704,-5.852c-0.171,-0.085 -0.278,-0.259 -0.278,-0.45l0,-23.407c0,-0.174 0.09,-0.336 0.239,-0.427c0.148,-0.092 0.334,-0.1 0.489,-0.022l11.704,5.852c0.17,0.085 0.277,0.258 0.277,0.449l0,23.407c0,0.175 -0.09,0.336 -0.238,0.429c-0.08,0.049 -0.173,0.074 -0.265,0.074" style="fill-rule:nonzero;"/><path d="M66.288,492.636l11.704,-5.852l0,-23.407l-11.704,5.852l0,23.407Z" style="fill-rule:nonzero;"/><path d="M66.791,469.541l0,22.283l10.698,-5.349l0,-22.284l-10.698,5.35Zm-0.503,23.599c-0.091,0 -0.183,-0.026 -0.264,-0.075c-0.149,-0.092 -0.239,-0.253 -0.239,-0.428l0,-23.407c0,-0.191 0.108,-0.365 0.279,-0.45l11.703,-5.852c0.156,-0.077 0.34,-0.07 0.489,0.022c0.148,0.091 0.239,0.254 0.239,0.428l0,23.407c0,0.191 -0.108,0.365 -0.278,0.45l-11.703,5.852c-0.072,0.035 -0.148,0.053 -0.226,0.053" style="fill-rule:nonzero;"/><path d="M72.14,472.155l0,23.408l11.704,5.851l0,-23.407l-11.704,-5.852Z" style="fill:#fff;fill-rule:nonzero;"/><path d="M72.643,495.252l10.698,5.35l0,-22.284l-10.698,-5.348l0,22.282Zm11.201,6.665c-0.077,0 -0.154,-0.016 -0.225,-0.053l-11.703,-5.851c-0.171,-0.086 -0.279,-0.259 -0.279,-0.449l0,-23.408c0,-0.175 0.09,-0.336 0.239,-0.427c0.148,-0.093 0.334,-0.101 0.49,-0.023l11.703,5.852c0.17,0.086 0.278,0.259 0.278,0.449l0,23.408c0,0.173 -0.091,0.336 -0.239,0.427c-0.081,0.051 -0.172,0.075 -0.264,0.075" style="fill-rule:nonzero;"/><path d="M83.844,501.414l11.704,-5.851l0,-23.408l-11.704,5.852l0,23.407Z" style="fill-rule:nonzero;"/><path d="M84.347,478.318l0,22.283l10.698,-5.349l0,-22.283l-10.698,5.349Zm-0.503,23.598c-0.092,0 -0.184,-0.023 -0.264,-0.074c-0.149,-0.092 -0.239,-0.254 -0.239,-0.428l0,-23.407c0,-0.19 0.108,-0.364 0.277,-0.45l11.704,-5.852c0.156,-0.077 0.341,-0.069 0.49,0.023c0.148,0.092 0.239,0.253 0.239,0.427l0,23.408c0,0.191 -0.108,0.363 -0.28,0.449l-11.702,5.851c-0.071,0.038 -0.148,0.053 -0.225,0.053" style="fill-rule:nonzero;"/><path d="M25.326,478.007l0,23.407l58.519,29.26l0,-23.406l-58.519,-29.261Z" style="fill:#fff;fill-rule:nonzero;"/><path d="M25.829,501.104l57.513,28.756l0,-22.281l-57.513,-28.758l0,22.283Zm58.016,30.072c-0.078,0 -0.155,-0.017 -0.226,-0.052l-58.518,-29.26c-0.169,-0.084 -0.278,-0.258 -0.278,-0.449l0,-23.408c0,-0.174 0.091,-0.336 0.239,-0.427c0.148,-0.092 0.333,-0.1 0.489,-0.022l58.518,29.259c0.171,0.086 0.279,0.26 0.279,0.451l0,23.406c0,0.174 -0.091,0.336 -0.239,0.428c-0.081,0.049 -0.172,0.074 -0.264,0.074" style="fill-rule:nonzero;"/><path d="M83.844,507.268l58.518,-29.261l0,23.407l-58.518,29.26l0,-23.406Z" style="fill-rule:nonzero;"/><path d="M84.347,507.578l0,22.281l57.512,-28.756l0,-22.282l-57.512,28.757Zm-0.503,23.598c-0.092,0 -0.184,-0.026 -0.264,-0.075c-0.149,-0.091 -0.239,-0.253 -0.239,-0.427l0,-23.407c0,-0.191 0.108,-0.365 0.277,-0.451l58.519,-29.259c0.157,-0.077 0.341,-0.069 0.489,0.022c0.149,0.091 0.239,0.253 0.239,0.428l0,23.407c0,0.191 -0.108,0.365 -0.278,0.449l-58.518,29.26c-0.071,0.035 -0.148,0.053 -0.225,0.053" style="fill-rule:nonzero;"/><path d="M25.326,431.192l58.519,-29.259l58.518,29.259l-58.518,29.259l-58.519,-29.259Z" style="fill:#fff;fill-rule:nonzero;"/><path d="M26.451,431.192l57.394,28.697l57.393,-28.697l-57.393,-28.696l-57.394,28.696Zm57.394,29.762c-0.078,0 -0.155,-0.017 -0.226,-0.053l-58.518,-29.259c-0.17,-0.085 -0.278,-0.259 -0.278,-0.45c0,-0.19 0.108,-0.364 0.278,-0.449l58.518,-29.259c0.142,-0.071 0.309,-0.071 0.45,0l58.518,29.259c0.171,0.085 0.279,0.259 0.279,0.449c0,0.191 -0.108,0.365 -0.279,0.45l-58.518,29.259c-0.07,0.036 -0.148,0.053 -0.224,0.053" style="fill-rule:nonzero;"/><path d="M25.326,431.192l0,23.407l58.519,29.26l0,-23.408l-58.519,-29.259Z" style="fill:#fff;fill-rule:nonzero;"/><path d="M25.829,454.289l57.513,28.755l0,-22.282l-57.513,-28.756l0,22.283Zm58.016,30.072c-0.078,0 -0.155,-0.017 -0.226,-0.052l-58.518,-29.26c-0.169,-0.085 -0.278,-0.26 -0.278,-0.45l0,-23.407c0,-0.174 0.091,-0.336 0.239,-0.427c0.148,-0.092 0.333,-0.101 0.489,-0.022l58.518,29.258c0.171,0.086 0.279,0.26 0.279,0.45l0,23.408c0,0.174 -0.091,0.335 -0.239,0.427c-0.081,0.05 -0.172,0.075 -0.264,0.075" style="fill-rule:nonzero;"/><path d="M83.844,460.451l58.518,-29.259l0,23.407l-58.518,29.26l0,-23.408Z" style="fill-rule:nonzero;"/><path d="M84.347,460.762l0,22.282l57.512,-28.755l0,-22.283l-57.512,28.756Zm-0.503,23.599c-0.092,0 -0.184,-0.025 -0.264,-0.075c-0.149,-0.091 -0.239,-0.253 -0.239,-0.427l0,-23.408c0,-0.19 0.108,-0.364 0.277,-0.45l58.519,-29.258c0.157,-0.078 0.341,-0.069 0.489,0.022c0.149,0.092 0.239,0.254 0.239,0.427l0,23.407c0,0.191 -0.108,0.365 -0.278,0.451l-58.518,29.259c-0.071,0.035 -0.148,0.052 -0.225,0.052" style="fill-rule:nonzero;"/><path d="M37.03,431.192l46.814,-23.407l46.814,23.407l-46.814,23.407l-46.814,-23.407Z" style="fill:#fff;fill-rule:nonzero;"/><path d="M38.153,431.192l45.691,22.845l45.69,-22.845l-45.69,-22.844l-45.691,22.844Zm45.691,23.91c-0.077,0 -0.154,-0.017 -0.226,-0.053l-46.814,-23.407c-0.17,-0.085 -0.277,-0.259 -0.277,-0.45c0,-0.19 0.107,-0.364 0.277,-0.449l46.814,-23.407c0.142,-0.071 0.309,-0.071 0.451,0l46.814,23.407c0.17,0.085 0.278,0.259 0.278,0.449c0,0.191 -0.108,0.365 -0.278,0.45l-46.814,23.407c-0.071,0.036 -0.148,0.053 -0.225,0.053" style="fill-rule:nonzero;"/><path d="M83.844,407.785l0,11.703l-35.111,17.556l-11.703,-5.852l46.814,-23.407Z" style="fill-rule:nonzero;"/><path d="M38.153,431.192l10.58,5.291l34.608,-17.306l0,-10.578l-45.188,22.593Zm10.58,6.355c-0.078,0 -0.155,-0.018 -0.225,-0.053l-11.704,-5.852c-0.17,-0.085 -0.277,-0.259 -0.277,-0.45c0,-0.19 0.107,-0.364 0.277,-0.449l46.814,-23.407c0.157,-0.078 0.341,-0.07 0.49,0.022c0.148,0.091 0.239,0.253 0.239,0.427l0,11.703c0,0.191 -0.108,0.365 -0.278,0.451l-35.111,17.555c-0.071,0.035 -0.148,0.053 -0.225,0.053" style="fill-rule:nonzero;"/><path d="M83.844,419.488l35.111,17.556l11.703,-5.852l-46.814,-23.407l0,11.703Z" style="fill:#fff;fill-rule:nonzero;"/><path d="M84.347,419.177l34.608,17.306l10.58,-5.291l-45.188,-22.593l0,10.578Zm34.608,18.371c-0.077,0 -0.154,-0.018 -0.225,-0.054l-35.112,-17.555c-0.169,-0.086 -0.277,-0.26 -0.277,-0.451l0,-11.703c0,-0.174 0.09,-0.336 0.239,-0.427c0.148,-0.092 0.332,-0.1 0.489,-0.022l46.814,23.407c0.171,0.085 0.278,0.259 0.278,0.449c0,0.192 -0.107,0.365 -0.278,0.45l-11.703,5.852c-0.071,0.036 -0.147,0.054 -0.225,0.054" style="fill-rule:nonzero;"/><path d="M60.437,431.192l23.407,-11.704l23.407,11.704l-23.407,11.704l-23.407,-11.704Z" style="fill:#fff;fill-rule:nonzero;"/><path d="M61.562,431.192l22.283,11.143l22.282,-11.143l-22.282,-11.141l-22.283,11.141Zm22.283,12.208c-0.077,0 -0.155,-0.019 -0.226,-0.054l-23.407,-11.704c-0.171,-0.085 -0.277,-0.259 -0.277,-0.45c0,-0.19 0.106,-0.364 0.277,-0.449l23.407,-11.704c0.142,-0.071 0.309,-0.071 0.45,0l23.407,11.704c0.171,0.085 0.278,0.259 0.278,0.449c0,0.191 -0.107,0.365 -0.278,0.45l-23.407,11.704c-0.07,0.035 -0.148,0.054 -0.224,0.054" style="fill-rule:nonzero;"/><path d="M60.437,431.192l0,11.704l23.407,11.703l0,-11.703l-23.407,-11.704Z" style="fill:#fff;fill-rule:nonzero;"/><path d="M60.94,442.586l22.401,11.201l0,-10.579l-22.401,-11.202l0,10.58Zm22.904,12.517c-0.077,0 -0.154,-0.018 -0.225,-0.053l-23.407,-11.703c-0.171,-0.085 -0.278,-0.259 -0.278,-0.45l0,-11.705c0,-0.173 0.09,-0.335 0.238,-0.427c0.149,-0.091 0.335,-0.1 0.49,-0.022l23.407,11.705c0.17,0.085 0.278,0.259 0.278,0.449l0,11.703c0,0.174 -0.091,0.336 -0.239,0.428c-0.081,0.049 -0.171,0.075 -0.264,0.075" style="fill-rule:nonzero;"/><path d="M107.251,431.192l0,11.704l-23.407,11.703l0,-11.703l23.407,-11.704Z" style="fill-rule:nonzero;"/><path d="M84.347,443.208l0,10.579l22.401,-11.201l0,-10.58l-22.401,11.202Zm-0.503,11.895c-0.092,0 -0.184,-0.026 -0.264,-0.075c-0.149,-0.092 -0.239,-0.254 -0.239,-0.428l0,-11.704c0,-0.189 0.108,-0.363 0.277,-0.448l23.408,-11.705c0.156,-0.078 0.341,-0.069 0.489,0.022c0.148,0.092 0.239,0.254 0.239,0.427l0,11.704c0,0.192 -0.107,0.366 -0.279,0.451l-23.406,11.703c-0.071,0.035 -0.148,0.053 -0.225,0.053" style="fill-rule:nonzero;"/><g opacity="0.5"><path d="M21.485,413.637l-4.023,0l0,-13.715l13.715,0l0,4.023l-9.692,0l0,9.692Z" style="fill:#fff;fill-rule:nonzero;"/><path d="M150.226,413.637l-4.023,0l0,-9.692l-9.693,0l0,-4.023l13.716,0l0,13.715Z" style="fill:#fff;fill-rule:nonzero;"/><path d="M31.178,532.686l-13.715,0l0,-13.717l4.023,0l0,9.694l9.692,0l0,4.023Z" style="fill:#fff;fill-rule:nonzero;"/><path d="M150.226,532.686l-13.716,0l0,-4.023l9.693,0l0,-9.694l4.023,0l0,13.717Z" style="fill:#fff;fill-rule:nonzero;"/></g></g><g opacity="0.15"><path d="M38.036,265.084l0,23.406l46.814,-23.406l0,-23.408l-46.814,23.408Z" style="fill-rule:nonzero;"/><path d="M38.539,265.396l0,22.281l45.809,-22.903l0,-22.284l-45.809,22.906Zm-0.503,23.598c-0.092,0 -0.184,-0.026 -0.265,-0.076c-0.148,-0.09 -0.238,-0.252 -0.238,-0.427l0,-23.407c0,-0.19 0.108,-0.364 0.278,-0.449l46.815,-23.409c0.155,-0.077 0.341,-0.069 0.489,0.023c0.148,0.091 0.238,0.253 0.238,0.427l0,23.408c0,0.192 -0.107,0.366 -0.277,0.45l-46.815,23.407c-0.071,0.035 -0.148,0.053 -0.225,0.053" style="fill-rule:nonzero;"/><path d="M131.665,265.084l0,23.406l-46.814,-23.406l0,-23.408l46.814,23.408Z" style="fill:#fff;fill-rule:nonzero;"/><path d="M85.353,264.774l45.809,22.903l0,-22.281l-45.809,-22.906l0,22.284Zm46.312,24.22c-0.077,0 -0.154,-0.018 -0.225,-0.053l-46.815,-23.407c-0.17,-0.084 -0.278,-0.258 -0.278,-0.449l0,-23.409c0,-0.173 0.091,-0.336 0.239,-0.427c0.148,-0.092 0.333,-0.1 0.489,-0.023l46.815,23.409c0.17,0.085 0.277,0.259 0.277,0.45l0,23.406c0,0.175 -0.09,0.337 -0.237,0.428c-0.081,0.049 -0.173,0.075 -0.265,0.075" style="fill-rule:nonzero;"/><path d="M61.443,306.046l0,23.408l23.407,11.703l0,-23.407l-23.407,-11.704Z" style="fill:#fff;fill-rule:nonzero;"/><path d="M61.946,329.144l22.401,11.199l0,-22.281l-22.401,-11.202l0,22.284Zm22.904,12.517c-0.076,0 -0.154,-0.018 -0.224,-0.053l-23.408,-11.704c-0.17,-0.084 -0.278,-0.258 -0.278,-0.449l0,-23.409c0,-0.173 0.09,-0.336 0.239,-0.427c0.148,-0.092 0.333,-0.1 0.489,-0.023l23.407,11.705c0.171,0.085 0.278,0.259 0.278,0.449l0,23.408c0,0.174 -0.09,0.336 -0.239,0.427c-0.08,0.05 -0.172,0.076 -0.264,0.076" style="fill-rule:nonzero;"/><path d="M108.257,306.046l0,23.408l-23.407,11.703l0,-23.407l23.407,-11.704Z" style="fill-rule:nonzero;"/><path d="M85.353,318.062l0,22.281l22.401,-11.199l0,-22.284l-22.401,11.202Zm-0.503,23.599c-0.092,0 -0.184,-0.026 -0.264,-0.076c-0.148,-0.091 -0.239,-0.253 -0.239,-0.427l0,-23.408c0,-0.19 0.108,-0.364 0.278,-0.449l23.407,-11.705c0.155,-0.077 0.341,-0.069 0.489,0.023c0.149,0.091 0.239,0.254 0.239,0.427l0,23.409c0,0.191 -0.107,0.365 -0.278,0.449l-23.407,11.704c-0.071,0.035 -0.148,0.053 -0.225,0.053" style="fill-rule:nonzero;"/><path d="M43.887,303.12l40.963,-20.481l40.963,20.481l-40.963,20.481l-40.963,-20.481Zm40.963,-32.186l-58.518,29.259l58.518,29.261l58.518,-29.261l-58.518,-29.259Z" style="fill:#fff;fill-rule:nonzero;"/><path d="M45.012,303.12l39.838,19.919l39.839,-19.919l-39.839,-19.919l-39.838,19.919Zm39.838,20.984c-0.077,0 -0.154,-0.017 -0.224,-0.052l-40.964,-20.483c-0.17,-0.085 -0.277,-0.259 -0.277,-0.449c0,-0.19 0.107,-0.364 0.277,-0.45l40.964,-20.482c0.141,-0.07 0.308,-0.07 0.449,0l40.963,20.482c0.172,0.086 0.278,0.26 0.278,0.45c0,0.19 -0.106,0.364 -0.278,0.449l-40.963,20.483c-0.07,0.035 -0.147,0.052 -0.225,0.052m-57.393,-23.911l57.393,28.699l57.394,-28.699l-57.394,-28.696l-57.393,28.696Zm57.393,29.764c-0.077,0 -0.154,-0.018 -0.224,-0.054l-58.519,-29.26c-0.17,-0.085 -0.278,-0.259 -0.278,-0.45c0,-0.19 0.108,-0.363 0.278,-0.449l58.519,-29.26c0.141,-0.07 0.308,-0.07 0.449,0l58.519,29.26c0.169,0.086 0.277,0.259 0.277,0.449c0,0.191 -0.108,0.365 -0.277,0.45l-58.519,29.26c-0.07,0.036 -0.147,0.054 -0.225,0.054" style="fill-rule:nonzero;"/><path d="M26.332,300.193l0,5.853l58.518,29.258l0,-5.85l-58.518,-29.261Z" style="fill:#fff;fill-rule:nonzero;"/><path d="M26.835,305.735l57.512,28.756l0,-4.726l-57.512,-28.758l0,4.728Zm58.015,30.072c-0.077,0 -0.154,-0.017 -0.224,-0.052l-58.519,-29.26c-0.17,-0.085 -0.278,-0.258 -0.278,-0.449l0,-5.853c0,-0.174 0.09,-0.336 0.239,-0.428c0.148,-0.091 0.333,-0.099 0.489,-0.021l58.518,29.261c0.171,0.084 0.278,0.258 0.278,0.449l0,5.85c0,0.175 -0.09,0.336 -0.239,0.428c-0.08,0.05 -0.172,0.075 -0.264,0.075" style="fill-rule:nonzero;"/><path d="M143.369,300.193l0,5.853l-58.519,29.258l0,-5.85l58.519,-29.261Z" style="fill-rule:nonzero;"/><path d="M85.353,329.766l0,4.726l57.513,-28.756l0,-4.728l-57.513,28.758Zm-0.503,6.042c-0.092,0 -0.184,-0.025 -0.264,-0.075c-0.148,-0.092 -0.239,-0.253 -0.239,-0.428l0,-5.851c0,-0.19 0.108,-0.364 0.278,-0.449l58.519,-29.26c0.156,-0.079 0.34,-0.07 0.488,0.021c0.149,0.092 0.239,0.254 0.239,0.428l0,5.852c0,0.192 -0.108,0.365 -0.278,0.449l-58.518,29.26c-0.071,0.035 -0.148,0.053 -0.225,0.053" style="fill-rule:nonzero;"/><path d="M84.85,282.639l0,-5.852l-46.814,23.407l5.851,2.926l40.963,-20.481Z" style="fill-rule:nonzero;"/><path d="M39.16,300.193l4.728,2.364l40.46,-20.229l0,-4.727l-45.188,22.592Zm4.728,3.43c-0.078,0 -0.155,-0.018 -0.226,-0.054l-5.851,-2.926c-0.171,-0.085 -0.278,-0.26 -0.278,-0.45c0,-0.19 0.107,-0.363 0.278,-0.449l46.815,-23.407c0.155,-0.078 0.341,-0.07 0.489,0.022c0.148,0.091 0.238,0.254 0.238,0.428l0,5.851c0,0.192 -0.107,0.366 -0.277,0.451l-40.964,20.48c-0.07,0.036 -0.147,0.054 -0.224,0.054" style="fill-rule:nonzero;"/><path d="M125.813,303.12l5.852,-2.927l-46.815,-23.406l0,5.852l40.963,20.481Z" style="fill:#fff;fill-rule:nonzero;"/><path d="M85.353,282.328l40.46,20.229l4.728,-2.364l-45.188,-22.592l0,4.727Zm40.46,21.295c-0.077,0 -0.154,-0.018 -0.225,-0.054l-40.963,-20.48c-0.17,-0.085 -0.278,-0.259 -0.278,-0.45l0,-5.852c0,-0.174 0.091,-0.337 0.239,-0.428c0.148,-0.092 0.333,-0.099 0.489,-0.022l46.815,23.407c0.17,0.086 0.277,0.259 0.277,0.449c0,0.191 -0.107,0.365 -0.277,0.45l-5.852,2.926c-0.071,0.036 -0.147,0.054 -0.225,0.054" style="fill-rule:nonzero;"/><path d="M38.036,265.084l46.814,-23.408l46.815,23.408l-46.815,23.406l-46.814,-23.406Zm46.814,-29.261l-58.518,29.261l58.518,29.259l58.519,-29.259l-58.519,-29.261Z" style="fill:#fff;fill-rule:nonzero;"/><path d="M39.16,265.084l45.69,22.845l45.691,-22.845l-45.691,-22.846l-45.69,22.846Zm45.69,23.909c-0.077,0 -0.154,-0.017 -0.224,-0.053l-46.815,-23.407c-0.171,-0.084 -0.278,-0.258 -0.278,-0.449c0,-0.19 0.107,-0.364 0.278,-0.449l46.815,-23.409c0.141,-0.071 0.308,-0.071 0.45,0l46.814,23.409c0.17,0.085 0.277,0.259 0.277,0.449c0,0.191 -0.107,0.365 -0.277,0.449l-46.814,23.407c-0.071,0.036 -0.148,0.053 -0.226,0.053m-57.393,-23.909l57.393,28.696l57.394,-28.696l-57.394,-28.698l-57.393,28.698Zm57.393,29.762c-0.077,0 -0.154,-0.019 -0.224,-0.053l-58.519,-29.26c-0.17,-0.084 -0.278,-0.258 -0.278,-0.449c0,-0.19 0.108,-0.364 0.278,-0.449l58.519,-29.261c0.141,-0.07 0.308,-0.07 0.45,0l58.518,29.261c0.17,0.085 0.277,0.259 0.277,0.449c0,0.191 -0.107,0.365 -0.277,0.449l-58.518,29.26c-0.071,0.034 -0.148,0.053 -0.226,0.053" style="fill-rule:nonzero;"/><path d="M43.887,250.454l40.963,-20.482l40.963,20.482l-40.963,20.48l-40.963,-20.48Zm40.963,-32.186l-58.518,29.259l58.518,29.26l58.518,-29.26l-58.518,-29.259Z" style="fill:#fff;fill-rule:nonzero;"/><path d="M45.012,250.454l39.838,19.918l39.839,-19.918l-39.839,-19.92l-39.838,19.92Zm39.838,20.983c-0.077,0 -0.154,-0.017 -0.224,-0.052l-40.964,-20.482c-0.17,-0.085 -0.277,-0.259 -0.277,-0.449c0,-0.191 0.107,-0.365 0.277,-0.45l40.964,-20.482c0.141,-0.071 0.308,-0.071 0.449,0l40.963,20.482c0.172,0.085 0.278,0.259 0.278,0.45c0,0.19 -0.106,0.364 -0.278,0.449l-40.963,20.482c-0.07,0.035 -0.147,0.052 -0.225,0.052m-57.393,-23.91l57.393,28.698l57.394,-28.698l-57.394,-28.696l-57.393,28.696Zm57.393,29.763c-0.077,0 -0.154,-0.019 -0.224,-0.054l-58.519,-29.259c-0.17,-0.085 -0.278,-0.259 -0.278,-0.45c0,-0.19 0.108,-0.364 0.278,-0.449l58.519,-29.26c0.141,-0.07 0.308,-0.07 0.449,0l58.519,29.26c0.169,0.085 0.277,0.259 0.277,0.449c0,0.191 -0.108,0.365 -0.277,0.45l-58.519,29.259c-0.07,0.035 -0.147,0.054 -0.225,0.054" style="fill-rule:nonzero;"/><path d="M26.332,247.527l0,5.853l58.518,29.258l0,-5.851l-58.518,-29.26Z" style="fill:#fff;fill-rule:nonzero;"/><path d="M26.835,253.069l57.512,28.756l0,-4.728l-57.512,-28.756l0,4.728Zm58.015,30.072c-0.077,0 -0.154,-0.017 -0.224,-0.052l-58.519,-29.26c-0.17,-0.085 -0.278,-0.259 -0.278,-0.449l0,-5.853c0,-0.174 0.09,-0.336 0.239,-0.427c0.148,-0.092 0.333,-0.1 0.489,-0.022l58.518,29.259c0.171,0.085 0.278,0.259 0.278,0.45l0,5.851c0,0.175 -0.09,0.336 -0.239,0.428c-0.08,0.05 -0.172,0.075 -0.264,0.075" style="fill-rule:nonzero;"/><path d="M143.369,247.527l0,5.853l-58.519,29.258l0,-5.851l58.519,-29.26Z" style="fill-rule:nonzero;"/><path d="M85.353,277.098l0,4.728l57.513,-28.756l0,-4.728l-57.513,28.756Zm-0.503,6.044c-0.092,0 -0.184,-0.025 -0.264,-0.075c-0.148,-0.092 -0.239,-0.253 -0.239,-0.428l0,-5.852c0,-0.19 0.108,-0.365 0.278,-0.45l58.519,-29.259c0.156,-0.078 0.34,-0.069 0.488,0.023c0.149,0.091 0.239,0.253 0.239,0.427l0,5.852c0,0.191 -0.108,0.364 -0.278,0.449l-58.518,29.26c-0.071,0.035 -0.148,0.053 -0.225,0.053" style="fill-rule:nonzero;"/><path d="M84.85,229.972l0,-5.851l-46.814,23.407l5.851,2.926l40.963,-20.482Z" style="fill-rule:nonzero;"/><path d="M39.16,247.527l4.728,2.364l40.46,-20.23l0,-4.727l-45.188,22.593Zm4.728,3.43c-0.078,0 -0.155,-0.019 -0.226,-0.054l-5.851,-2.926c-0.171,-0.085 -0.278,-0.26 -0.278,-0.45c0,-0.19 0.107,-0.364 0.278,-0.449l46.815,-23.407c0.155,-0.078 0.341,-0.07 0.489,0.021c0.148,0.093 0.238,0.254 0.238,0.429l0,5.85c0,0.191 -0.107,0.367 -0.277,0.452l-40.964,20.48c-0.07,0.035 -0.147,0.054 -0.224,0.054" style="fill-rule:nonzero;"/><path d="M125.813,250.454l5.852,-2.927l-46.815,-23.406l0,5.851l40.963,20.482Z" style="fill:#fff;fill-rule:nonzero;"/><path d="M85.353,229.661l40.46,20.23l4.728,-2.364l-45.188,-22.593l0,4.727Zm40.46,21.296c-0.077,0 -0.154,-0.019 -0.225,-0.054l-40.963,-20.48c-0.17,-0.085 -0.278,-0.261 -0.278,-0.451l0,-5.851c0,-0.175 0.091,-0.336 0.239,-0.429c0.148,-0.091 0.333,-0.098 0.489,-0.021l46.815,23.407c0.17,0.085 0.277,0.259 0.277,0.449c0,0.191 -0.107,0.365 -0.277,0.45l-5.852,2.926c-0.071,0.035 -0.147,0.054 -0.225,0.054" style="fill-rule:nonzero;"/><path d="M61.443,224.121l23.407,-11.704l23.407,11.704l-23.407,11.702l-23.407,-11.702Z" style="fill:#fff;fill-rule:nonzero;"/><path d="M62.568,224.121l22.283,11.141l22.282,-11.141l-22.282,-11.142l-22.283,11.142Zm22.283,12.205c-0.077,0 -0.155,-0.017 -0.225,-0.053l-23.407,-11.703c-0.171,-0.086 -0.278,-0.259 -0.278,-0.449c0,-0.191 0.107,-0.365 0.278,-0.45l23.407,-11.704c0.141,-0.072 0.308,-0.072 0.45,0l23.407,11.704c0.17,0.085 0.278,0.259 0.278,0.45c0,0.19 -0.108,0.363 -0.278,0.449l-23.407,11.703c-0.071,0.036 -0.148,0.053 -0.225,0.053" style="fill-rule:nonzero;"/><path d="M61.443,224.121l0,35.11l23.407,11.703l0,-35.111l-23.407,-11.702Z" style="fill:#fff;fill-rule:nonzero;"/><path d="M61.946,258.921l22.401,11.2l0,-33.986l-22.401,-11.2l0,33.986Zm22.904,12.517c-0.076,0 -0.154,-0.018 -0.224,-0.053l-23.408,-11.703c-0.17,-0.086 -0.278,-0.26 -0.278,-0.45l0,-35.111c0,-0.175 0.09,-0.336 0.239,-0.429c0.148,-0.09 0.333,-0.098 0.489,-0.021l23.407,11.703c0.171,0.086 0.278,0.259 0.278,0.449l0,35.112c0,0.174 -0.09,0.336 -0.239,0.427c-0.08,0.05 -0.172,0.076 -0.264,0.076" style="fill-rule:nonzero;"/><path d="M108.257,224.121l0,35.11l-23.407,11.703l0,-35.111l23.407,-11.702Z" style="fill-rule:nonzero;"/><path d="M85.353,236.135l0,33.986l22.401,-11.2l0,-33.986l-22.401,11.2Zm-0.503,35.303c-0.092,0 -0.184,-0.026 -0.264,-0.075c-0.148,-0.092 -0.239,-0.253 -0.239,-0.428l0,-35.112c0,-0.19 0.108,-0.363 0.278,-0.449l23.407,-11.703c0.155,-0.077 0.341,-0.069 0.489,0.022c0.149,0.092 0.239,0.254 0.239,0.428l0,35.111c0,0.19 -0.107,0.364 -0.278,0.45l-23.407,11.703c-0.071,0.035 -0.148,0.053 -0.225,0.053" style="fill-rule:nonzero;"/><path d="M84.85,282.639l0,5.852l23.407,-11.704l0,-5.852l-23.407,11.704Z" style="fill-rule:nonzero;"/><path d="M85.353,282.949l0,4.728l22.401,-11.202l0,-4.727l-22.401,11.201Zm-0.503,6.044c-0.092,0 -0.184,-0.025 -0.264,-0.075c-0.148,-0.091 -0.239,-0.253 -0.239,-0.428l0,-5.852c0,-0.19 0.108,-0.364 0.278,-0.45l23.407,-11.704c0.155,-0.077 0.341,-0.069 0.489,0.023c0.149,0.091 0.239,0.254 0.239,0.427l0,5.853c0,0.19 -0.107,0.364 -0.278,0.449l-23.407,11.704c-0.071,0.035 -0.148,0.053 -0.225,0.053" style="fill-rule:nonzero;"/><path d="M61.443,270.935l0,5.853l23.407,11.703l0,-5.852l-23.407,-11.704Z" style="fill:#fff;fill-rule:nonzero;"/><path d="M61.946,276.476l22.401,11.201l0,-4.727l-22.401,-11.202l0,4.728Zm22.904,12.518c-0.076,0 -0.154,-0.018 -0.224,-0.053l-23.408,-11.704c-0.17,-0.085 -0.278,-0.259 -0.278,-0.449l0,-5.853c0,-0.174 0.09,-0.336 0.239,-0.428c0.148,-0.092 0.333,-0.099 0.489,-0.022l23.407,11.704c0.171,0.086 0.278,0.26 0.278,0.45l0,5.852c0,0.174 -0.09,0.337 -0.239,0.427c-0.08,0.05 -0.172,0.076 -0.264,0.076" style="fill-rule:nonzero;"/><path d="M61.443,288.49l0,5.853l23.407,11.703l0,-5.853l-23.407,-11.703Z" style="fill:#fff;fill-rule:nonzero;"/><path d="M61.946,294.031l22.401,11.201l0,-4.727l-22.401,-11.201l0,4.727Zm22.904,12.518c-0.076,0 -0.154,-0.018 -0.224,-0.054l-23.408,-11.702c-0.17,-0.085 -0.278,-0.261 -0.278,-0.45l0,-5.853c0,-0.174 0.09,-0.335 0.239,-0.428c0.148,-0.091 0.333,-0.099 0.489,-0.021l23.407,11.703c0.171,0.086 0.278,0.259 0.278,0.449l0,5.853c0,0.173 -0.09,0.336 -0.239,0.427c-0.08,0.05 -0.172,0.076 -0.264,0.076" style="fill-rule:nonzero;"/><path d="M143.369,265.084l0,23.406l-58.519,29.26l0,-23.407l58.519,-29.259Z" style="fill-rule:nonzero;"/><path d="M85.353,294.653l0,22.282l57.513,-28.756l0,-22.281l-57.513,28.755Zm-0.503,23.6c-0.092,0 -0.184,-0.026 -0.264,-0.076c-0.148,-0.091 -0.239,-0.253 -0.239,-0.427l0,-23.408c0,-0.19 0.108,-0.365 0.278,-0.45l58.519,-29.258c0.156,-0.078 0.34,-0.069 0.488,0.023c0.149,0.091 0.239,0.253 0.239,0.427l0,23.406c0,0.191 -0.108,0.364 -0.278,0.45l-58.518,29.259c-0.071,0.036 -0.148,0.054 -0.225,0.054" style="fill-rule:nonzero;"/><path d="M26.332,265.084l0,23.406l58.518,29.26l0,-23.407l-58.518,-29.259Z" style="fill:#fff;fill-rule:nonzero;"/><path d="M26.835,288.18l57.512,28.756l0,-22.282l-57.512,-28.755l0,22.281Zm58.015,30.073c-0.077,0 -0.154,-0.017 -0.224,-0.053l-58.519,-29.259c-0.17,-0.086 -0.278,-0.259 -0.278,-0.45l0,-23.407c0,-0.174 0.09,-0.336 0.239,-0.426c0.148,-0.092 0.333,-0.101 0.489,-0.023l58.518,29.258c0.171,0.085 0.278,0.26 0.278,0.45l0,23.407c0,0.174 -0.09,0.336 -0.239,0.428c-0.08,0.05 -0.172,0.075 -0.264,0.075" style="fill-rule:nonzero;"/><g opacity="0.5"><path d="M22.492,224.121l-4.023,0l0,-13.716l13.715,0l0,4.023l-9.692,0l0,9.693Z" style="fill:#fff;fill-rule:nonzero;"/><path d="M151.232,224.121l-4.023,0l0,-9.693l-9.692,0l0,-4.023l13.715,0l0,13.716Z" style="fill:#fff;fill-rule:nonzero;"/><path d="M32.184,343.169l-13.715,0l0,-13.715l4.023,0l0,9.692l9.692,0l0,4.023Z" style="fill:#fff;fill-rule:nonzero;"/><path d="M151.232,343.169l-13.715,0l0,-4.023l9.692,0l0,-9.692l4.023,0l0,13.715Z" style="fill:#fff;fill-rule:nonzero;"/></g></g><g opacity="0.15"><path d="M97.217,67.602l35.593,-17.796l11.864,5.933l-35.592,17.797l-11.865,-5.934Z" style="fill:#fff;fill-rule:nonzero;stroke:#000;stroke-width:2px;"/><path d="M109.082,85.399l35.592,-17.797l0,-11.864l-35.592,17.797l0,11.864Z" style="fill-rule:nonzero;stroke:#000;stroke-width:2px;"/><path d="M26.032,55.738l11.865,-5.933l23.728,11.865l-11.864,5.931l-23.729,-11.863Z" style="fill:#fff;fill-rule:nonzero;stroke:#000;stroke-width:2px;"/><path d="M85.353,126.923l-23.728,-11.864l23.728,-11.864l23.729,11.864l-23.729,11.864Z" style="fill:#fff;fill-rule:nonzero;stroke:#000;stroke-width:2px;"/><path d="M61.625,115.059l0,23.729l23.728,11.864l0,-23.729l-23.728,-11.864Z" style="fill:#fff;fill-rule:nonzero;stroke:#000;stroke-width:2px;"/><path d="M85.353,126.923l23.729,-11.864l0,23.729l-23.729,11.864l0,-23.729Z" style="fill-rule:nonzero;stroke:#000;stroke-width:2px;"/><path d="M49.76,91.331l11.865,-5.932l59.321,29.661l-11.865,5.932l-59.321,-29.661Z" style="fill:#fff;fill-rule:nonzero;stroke:#000;stroke-width:2px;"/><path d="M49.76,43.875l11.865,-5.933l59.321,29.66l-11.865,5.934l-59.321,-29.661Z" style="fill:#fff;fill-rule:nonzero;stroke:#000;stroke-width:2px;"/><path d="M61.625,97.262l11.865,-5.932l0,-23.729l-11.865,-5.931l0,35.592Z" style="fill-rule:nonzero;stroke:#000;stroke-width:2px;"/><path d="M109.082,73.535l11.865,-5.934l0,59.322l-11.865,5.932l0,-59.32Z" style="fill-rule:nonzero;stroke:#000;stroke-width:2px;"/><path d="M97.217,115.059l-35.592,-17.797l0,-35.592l35.592,17.797l0,35.592Zm11.865,-17.797l0,-11.863l0,-11.864l-59.322,-29.661l0,23.727l-23.728,-11.863l0,11.863l23.728,11.866l0,23.728l59.322,29.66l0,-11.863l0,-11.865l23.728,11.865l0,-11.865l-23.728,-11.865Z" style="fill:#fff;fill-rule:nonzero;stroke:#000;stroke-width:2px;"/><path d="M109.082,97.262l11.865,-5.932l23.727,11.865l-11.863,5.932l-23.729,-11.865Z" style="fill:#fff;fill-rule:nonzero;stroke:#000;stroke-width:2px;"/><path d="M132.81,120.992l11.864,-5.933l0,-11.863l-11.864,5.931l0,11.865Z" style="fill-rule:nonzero;stroke:#000;stroke-width:2px;"/><path d="M85.353,43.875l-23.728,-11.865l23.728,-11.864l23.729,11.864l-23.729,11.865Z" style="fill:#fff;fill-rule:nonzero;stroke:#000;stroke-width:2px;"/><path d="M61.625,32.01l0,23.729l23.728,11.863l0,-23.727l-23.728,-11.865Z" style="fill:#fff;fill-rule:nonzero;stroke:#000;stroke-width:2px;"/><path d="M85.353,43.875l23.729,-11.865l0,23.729l-23.729,11.863l0,-23.727Z" style="fill-rule:nonzero;stroke:#000;stroke-width:2px;"/><path d="M26.032,103.195l11.865,5.932l0,11.864l-11.865,-5.932l0,-11.864Z" style="fill:#fff;fill-rule:nonzero;stroke:#000;stroke-width:2px;"/><path d="M26.032,103.195l59.321,-29.66l11.864,5.931l-59.32,29.661l-11.865,-5.932Z" style="fill:#fff;fill-rule:nonzero;stroke:#000;stroke-width:2px;"/><path d="M37.897,120.992l59.32,-29.661l0,-11.864l-59.32,29.66l0,11.865Z" style="fill-rule:nonzero;stroke:#000;stroke-width:2px;"/><g opacity="0.5"><path d="M20.1,32.01l0,-11.865l11.865,0" style="fill:none;fill-rule:nonzero;stroke:#fff;stroke-width:4px;stroke-linecap:butt;stroke-linejoin:miter;"/><path d="M150.607,32.01l0,-11.865l-11.865,0" style="fill:none;fill-rule:nonzero;stroke:#fff;stroke-width:4px;stroke-linecap:butt;stroke-linejoin:miter;"/><path d="M20.1,138.788l0,11.865l11.865,0" style="fill:none;fill-rule:nonzero;stroke:#fff;stroke-width:4px;stroke-linecap:butt;stroke-linejoin:miter;"/><path d="M150.607,138.788l0,11.865l-11.865,0" style="fill:none;fill-rule:nonzero;stroke:#fff;stroke-width:4px;stroke-linecap:butt;stroke-linejoin:miter;"/></g></g><g opacity="0.15"><path d="M1447.84,300.228l58.518,-29.259l58.518,29.259l-58.518,29.261l-58.518,-29.261Z" style="fill:#fff;fill-rule:nonzero;"/><path d="M1448.96,300.228l57.394,28.698l57.393,-28.698l-57.393,-28.697l-57.394,28.697Zm57.394,29.764c-0.078,0 -0.155,-0.018 -0.225,-0.054l-58.519,-29.26c-0.171,-0.086 -0.278,-0.26 -0.278,-0.45c0,-0.191 0.107,-0.364 0.278,-0.45l58.519,-29.259c0.141,-0.071 0.309,-0.071 0.449,0l58.519,29.259c0.171,0.086 0.278,0.259 0.278,0.45c0,0.19 -0.107,0.364 -0.278,0.45l-58.519,29.26c-0.07,0.036 -0.147,0.054 -0.224,0.054" style="fill-rule:nonzero;"/><path d="M1482.94,230.005l23.407,-11.703l23.407,11.703l-23.407,11.704l-23.407,-11.704Z" style="fill:#fff;fill-rule:nonzero;"/><path d="M1484.07,230.005l22.283,11.142l22.283,-11.142l-22.283,-11.14l-22.283,11.14Zm22.283,12.207c-0.077,0 -0.154,-0.018 -0.224,-0.053l-23.408,-11.703c-0.171,-0.085 -0.278,-0.261 -0.278,-0.451c0,-0.19 0.107,-0.364 0.278,-0.449l23.408,-11.704c0.14,-0.071 0.308,-0.071 0.449,0l23.408,11.704c0.17,0.085 0.277,0.259 0.277,0.449c0,0.19 -0.107,0.366 -0.277,0.451l-23.408,11.703c-0.071,0.035 -0.148,0.053 -0.225,0.053" style="fill-rule:nonzero;"/><path d="M1494.65,218.302l11.703,5.852l11.703,-5.852l-11.703,-5.852l-11.703,5.852Z" style="fill:#fff;fill-rule:nonzero;"/><path d="M1495.77,218.302l10.579,5.29l10.58,-5.29l-10.58,-5.289l-10.579,5.289Zm10.579,6.355c-0.077,0 -0.154,-0.018 -0.225,-0.053l-11.704,-5.852c-0.17,-0.085 -0.277,-0.259 -0.277,-0.45c0,-0.19 0.107,-0.365 0.277,-0.45l11.704,-5.852c0.141,-0.071 0.309,-0.071 0.45,0l11.704,5.852c0.17,0.085 0.278,0.26 0.278,0.45c0,0.191 -0.108,0.365 -0.278,0.45l-11.704,5.852c-0.071,0.035 -0.148,0.053 -0.225,0.053" style="fill-rule:nonzero;"/><path d="M1494.65,218.302l0,11.703l11.703,5.852l0,-11.703l-11.703,-5.852Z" style="fill:#fff;fill-rule:nonzero;"/><path d="M1495.15,229.695l10.698,5.349l0,-10.579l-10.698,-5.349l0,10.579Zm11.201,6.666c-0.076,0 -0.154,-0.019 -0.224,-0.054l-11.705,-5.851c-0.169,-0.085 -0.277,-0.26 -0.277,-0.45l0,-11.704c0,-0.174 0.09,-0.336 0.238,-0.427c0.148,-0.093 0.333,-0.1 0.49,-0.022l11.703,5.852c0.171,0.085 0.278,0.259 0.278,0.449l0,11.704c0,0.174 -0.091,0.336 -0.239,0.427c-0.08,0.05 -0.172,0.076 -0.264,0.076" style="fill-rule:nonzero;"/><path d="M1506.35,235.857l11.703,-5.852l0,-11.703l-11.703,5.852l0,11.703Z" style="fill-rule:nonzero;"/><path d="M1506.86,224.465l0,10.579l10.698,-5.349l0,-10.579l-10.698,5.349Zm-0.503,11.896c-0.092,0 -0.184,-0.026 -0.264,-0.076c-0.148,-0.091 -0.239,-0.253 -0.239,-0.427l0,-11.704c0,-0.19 0.109,-0.364 0.278,-0.449l11.704,-5.852c0.156,-0.078 0.34,-0.071 0.49,0.022c0.147,0.091 0.238,0.253 0.238,0.427l0,11.704c0,0.19 -0.108,0.365 -0.278,0.45l-11.704,5.851c-0.071,0.035 -0.149,0.054 -0.225,0.054" style="fill-rule:nonzero;"/><path d="M1494.65,270.968l11.703,5.852l11.703,-5.852l-11.703,-5.85l-11.703,5.85Z" style="fill:#fff;fill-rule:nonzero;"/><path d="M1495.77,270.968l10.579,5.29l10.578,-5.29l-10.578,-5.288l-10.579,5.288Zm10.579,6.355c-0.077,0 -0.154,-0.018 -0.225,-0.053l-11.704,-5.852c-0.17,-0.085 -0.277,-0.26 -0.277,-0.45c0,-0.19 0.107,-0.365 0.277,-0.45l11.704,-5.85c0.141,-0.071 0.309,-0.071 0.45,0l11.704,5.85c0.17,0.085 0.278,0.26 0.278,0.45c0,0.19 -0.108,0.365 -0.278,0.45l-11.704,5.852c-0.071,0.035 -0.148,0.053 -0.225,0.053" style="fill-rule:nonzero;"/><path d="M1482.94,259.265l23.407,-11.704l23.407,11.704l-23.407,11.703l-23.407,-11.703Z" style="fill:#fff;fill-rule:nonzero;"/><path d="M1484.07,259.265l22.283,11.141l22.283,-11.141l-22.283,-11.141l-22.283,11.141Zm22.283,12.206c-0.077,0 -0.154,-0.018 -0.224,-0.053l-23.408,-11.703c-0.171,-0.085 -0.278,-0.26 -0.278,-0.45c0,-0.19 0.107,-0.364 0.278,-0.45l23.408,-11.704c0.14,-0.07 0.308,-0.07 0.449,0l23.408,11.704c0.17,0.086 0.277,0.26 0.277,0.45c0,0.19 -0.107,0.365 -0.277,0.45l-23.408,11.703c-0.071,0.035 -0.148,0.053 -0.225,0.053" style="fill-rule:nonzero;"/><path d="M1494.65,270.968l0,11.704l11.703,5.852l0,-11.704l-11.703,-5.852Z" style="fill:#fff;fill-rule:nonzero;"/><path d="M1495.15,282.361l10.698,5.349l0,-10.578l-10.698,-5.35l0,10.579Zm11.201,6.666c-0.076,0 -0.154,-0.018 -0.224,-0.053l-11.705,-5.852c-0.169,-0.085 -0.277,-0.259 -0.277,-0.45l0,-11.704c0,-0.174 0.09,-0.336 0.238,-0.428c0.148,-0.092 0.333,-0.099 0.49,-0.022l11.703,5.852c0.171,0.086 0.278,0.26 0.278,0.45l0,11.704c0,0.174 -0.091,0.336 -0.239,0.427c-0.08,0.051 -0.172,0.076 -0.264,0.076" style="fill-rule:nonzero;"/><path d="M1506.35,288.524l11.703,-5.852l0,-11.704l-11.703,5.852l0,11.704Z" style="fill:#fff;fill-rule:nonzero;"/><path d="M1506.86,277.132l0,10.579l10.698,-5.35l0,-10.579l-10.698,5.35Zm-0.503,11.896c-0.092,0 -0.184,-0.026 -0.264,-0.076c-0.148,-0.091 -0.239,-0.253 -0.239,-0.427l0,-11.705c0,-0.19 0.109,-0.364 0.278,-0.449l11.704,-5.852c0.156,-0.078 0.34,-0.071 0.49,0.022c0.147,0.091 0.238,0.253 0.238,0.427l0,11.705c0,0.19 -0.108,0.364 -0.278,0.449l-11.704,5.852c-0.071,0.035 -0.149,0.054 -0.225,0.054" style="fill-rule:nonzero;"/><path d="M1482.94,230.005l0,23.408l23.407,11.705l0,-23.409l-23.407,-11.704Z" style="fill:#fff;fill-rule:nonzero;"/><path d="M1483.45,253.103l22.401,11.202l0,-22.285l-22.401,-11.2l0,22.283Zm22.904,12.518c-0.076,0 -0.154,-0.018 -0.224,-0.053l-23.408,-11.704c-0.17,-0.086 -0.278,-0.26 -0.278,-0.45l0,-23.408c0,-0.174 0.09,-0.336 0.238,-0.427c0.149,-0.092 0.334,-0.1 0.491,-0.022l23.406,11.703c0.171,0.085 0.278,0.26 0.278,0.45l0,23.409c0,0.174 -0.091,0.336 -0.239,0.427c-0.08,0.051 -0.172,0.075 -0.264,0.075" style="fill-rule:nonzero;"/><path d="M1529.76,230.005l0,23.408l-23.407,11.705l0,-23.409l23.407,-11.704Z" style="fill-rule:nonzero;"/><path d="M1506.86,242.02l0,22.284l22.401,-11.201l0,-22.283l-22.401,11.2Zm-0.503,23.601c-0.092,0 -0.184,-0.025 -0.264,-0.076c-0.148,-0.091 -0.239,-0.253 -0.239,-0.427l0,-23.409c0,-0.19 0.109,-0.364 0.278,-0.45l23.407,-11.703c0.156,-0.077 0.342,-0.069 0.49,0.022c0.148,0.091 0.238,0.254 0.238,0.427l0,23.408c0,0.19 -0.107,0.365 -0.277,0.45l-23.408,11.704c-0.071,0.036 -0.149,0.054 -0.225,0.054" style="fill-rule:nonzero;"/><path d="M1482.94,259.265l0,11.703l23.407,11.704l0,-11.704l-23.407,-11.703Z" style="fill:#fff;fill-rule:nonzero;"/><path d="M1483.45,270.658l22.401,11.201l0,-10.579l-22.401,-11.201l0,10.579Zm22.904,12.518c-0.076,0 -0.154,-0.018 -0.224,-0.054l-23.408,-11.704c-0.17,-0.085 -0.278,-0.259 -0.278,-0.449l0,-11.704c0,-0.173 0.09,-0.335 0.238,-0.427c0.149,-0.092 0.334,-0.099 0.491,-0.022l23.406,11.703c0.171,0.085 0.278,0.259 0.278,0.45l0,11.704c0,0.174 -0.091,0.336 -0.239,0.427c-0.08,0.05 -0.172,0.076 -0.264,0.076" style="fill-rule:nonzero;"/><path d="M1529.76,259.265l-23.407,11.703l0,11.704l23.407,-11.704l0,-11.703Z" style="fill:#fff;fill-rule:nonzero;"/><path d="M1506.86,271.279l0,10.579l22.401,-11.201l0,-10.578l-22.401,11.2Zm-0.503,11.896c-0.092,0 -0.184,-0.025 -0.264,-0.075c-0.148,-0.092 -0.239,-0.254 -0.239,-0.428l0,-11.704c0,-0.19 0.109,-0.365 0.278,-0.45l23.407,-11.703c0.156,-0.077 0.342,-0.069 0.49,0.023c0.148,0.091 0.238,0.253 0.238,0.427l0,11.703c0,0.19 -0.107,0.365 -0.277,0.45l-23.408,11.704c-0.071,0.035 -0.149,0.053 -0.225,0.053" style="fill-rule:nonzero;"/><path d="M1447.84,247.562l23.406,-11.704l23.408,11.704l-23.408,11.704l-23.406,-11.704Z" style="fill:#fff;fill-rule:nonzero;"/><path d="M1448.96,247.562l22.282,11.142l22.283,-11.142l-22.283,-11.142l-22.282,11.142Zm22.282,12.207c-0.076,0 -0.154,-0.018 -0.224,-0.053l-23.408,-11.704c-0.171,-0.085 -0.278,-0.26 -0.278,-0.45c0,-0.191 0.107,-0.365 0.278,-0.45l23.408,-11.704c0.141,-0.071 0.308,-0.071 0.449,0l23.408,11.704c0.17,0.085 0.277,0.259 0.277,0.45c0,0.19 -0.107,0.365 -0.277,0.45l-23.408,11.704c-0.07,0.035 -0.148,0.053 -0.225,0.053" style="fill-rule:nonzero;"/><path d="M1459.54,235.857l11.703,5.852l11.704,-5.852l-11.704,-5.852l-11.703,5.852Z" style="fill:#fff;fill-rule:nonzero;"/><path d="M1460.66,235.857l10.579,5.29l10.58,-5.29l-10.58,-5.289l-10.579,5.289Zm10.579,6.355c-0.076,0 -0.154,-0.018 -0.225,-0.053l-11.703,-5.852c-0.171,-0.086 -0.278,-0.26 -0.278,-0.45c0,-0.191 0.107,-0.364 0.278,-0.45l11.703,-5.851c0.142,-0.072 0.309,-0.072 0.45,0l11.705,5.851c0.17,0.086 0.277,0.259 0.277,0.45c0,0.19 -0.107,0.364 -0.277,0.45l-11.705,5.852c-0.071,0.035 -0.148,0.053 -0.225,0.053" style="fill-rule:nonzero;"/><path d="M1459.54,235.857l0,11.704l11.703,5.852l0,-11.704l-11.703,-5.852Z" style="fill:#fff;fill-rule:nonzero;"/><path d="M1460.04,247.251l10.698,5.349l0,-10.579l-10.698,-5.35l0,10.58Zm11.2,6.666c-0.076,0 -0.154,-0.018 -0.224,-0.053l-11.704,-5.852c-0.17,-0.085 -0.278,-0.26 -0.278,-0.45l0,-11.704c0,-0.174 0.091,-0.336 0.238,-0.428c0.148,-0.091 0.334,-0.1 0.49,-0.022l11.703,5.852c0.171,0.085 0.279,0.26 0.279,0.45l0,11.704c0,0.174 -0.091,0.336 -0.239,0.427c-0.081,0.05 -0.173,0.076 -0.265,0.076" style="fill-rule:nonzero;"/><path d="M1471.24,253.413l11.704,-5.852l0,-11.704l-11.704,5.852l0,11.704Z" style="fill-rule:nonzero;"/><path d="M1471.75,242.02l0,10.58l10.697,-5.35l0,-10.579l-10.697,5.349Zm-0.504,11.896c-0.092,0 -0.183,-0.025 -0.264,-0.075c-0.148,-0.092 -0.238,-0.253 -0.238,-0.428l0,-11.704c0,-0.19 0.108,-0.364 0.277,-0.45l11.705,-5.852c0.156,-0.078 0.34,-0.069 0.489,0.023c0.148,0.091 0.238,0.253 0.238,0.427l0,11.705c0,0.19 -0.107,0.364 -0.277,0.449l-11.705,5.852c-0.071,0.035 -0.149,0.053 -0.225,0.053" style="fill-rule:nonzero;"/><path d="M1459.54,288.524l11.703,5.852l11.704,-5.852l-11.704,-5.852l-11.703,5.852Z" style="fill:#fff;fill-rule:nonzero;"/><path d="M1460.66,288.524l10.579,5.289l10.58,-5.289l-10.58,-5.289l-10.579,5.289Zm10.579,6.354c-0.076,0 -0.154,-0.018 -0.225,-0.052l-11.703,-5.852c-0.171,-0.086 -0.278,-0.259 -0.278,-0.45c0,-0.19 0.107,-0.364 0.278,-0.449l11.703,-5.853c0.142,-0.071 0.309,-0.071 0.45,0l11.705,5.853c0.17,0.085 0.277,0.259 0.277,0.449c0,0.191 -0.107,0.364 -0.277,0.45l-11.705,5.852c-0.071,0.034 -0.148,0.052 -0.225,0.052" style="fill-rule:nonzero;"/><path d="M1447.84,276.82l23.406,-11.702l23.408,11.702l-23.408,11.704l-23.406,-11.704Z" style="fill:#fff;fill-rule:nonzero;"/><path d="M1448.96,276.82l22.282,11.142l22.283,-11.142l-22.283,-11.14l-22.282,11.14Zm22.282,12.207c-0.076,0 -0.154,-0.018 -0.224,-0.053l-23.408,-11.704c-0.171,-0.086 -0.278,-0.259 -0.278,-0.45c0,-0.19 0.107,-0.364 0.278,-0.45l23.408,-11.702c0.141,-0.071 0.308,-0.071 0.449,0l23.408,11.702c0.17,0.086 0.277,0.26 0.277,0.45c0,0.191 -0.107,0.364 -0.277,0.45l-23.408,11.704c-0.07,0.035 -0.148,0.053 -0.225,0.053" style="fill-rule:nonzero;"/><path d="M1459.54,288.524l0,11.703l11.703,5.852l0,-11.703l-11.703,-5.852Z" style="fill:#fff;fill-rule:nonzero;"/><path d="M1460.04,299.917l10.698,5.349l0,-10.579l-10.698,-5.349l0,10.579Zm11.2,6.666c-0.076,0 -0.154,-0.018 -0.224,-0.053l-11.704,-5.852c-0.17,-0.086 -0.278,-0.26 -0.278,-0.45l0,-11.703c0,-0.174 0.09,-0.336 0.238,-0.428c0.148,-0.092 0.334,-0.099 0.49,-0.021l11.703,5.851c0.171,0.085 0.279,0.259 0.279,0.449l0,11.704c0,0.174 -0.091,0.336 -0.239,0.428c-0.081,0.05 -0.173,0.075 -0.265,0.075" style="fill-rule:nonzero;"/><path d="M1471.24,306.079l11.704,-5.852l0,-11.703l-11.704,5.852l0,11.703Z" style="fill-rule:nonzero;"/><path d="M1471.75,294.687l0,10.579l10.697,-5.349l0,-10.579l-10.697,5.349Zm-0.504,11.896c-0.092,0 -0.183,-0.025 -0.264,-0.075c-0.148,-0.092 -0.238,-0.254 -0.238,-0.428l0,-11.704c0,-0.19 0.108,-0.364 0.277,-0.449l11.705,-5.851c0.156,-0.078 0.34,-0.071 0.489,0.021c0.148,0.092 0.238,0.254 0.238,0.428l0,11.703c0,0.19 -0.107,0.364 -0.277,0.45l-11.705,5.852c-0.071,0.035 -0.149,0.053 -0.225,0.053" style="fill-rule:nonzero;"/><path d="M1447.84,247.562l0,23.407l23.406,11.704l0,-23.407l-23.406,-11.704Z" style="fill:#fff;fill-rule:nonzero;"/><path d="M1448.34,270.658l22.402,11.201l0,-22.283l-22.402,-11.2l0,22.282Zm22.904,12.518c-0.076,0 -0.154,-0.018 -0.224,-0.054l-23.408,-11.704c-0.17,-0.085 -0.278,-0.259 -0.278,-0.449l0,-23.407c0,-0.174 0.091,-0.336 0.239,-0.427c0.148,-0.093 0.333,-0.101 0.49,-0.023l23.406,11.704c0.171,0.085 0.279,0.259 0.279,0.449l0,23.408c0,0.174 -0.091,0.336 -0.239,0.427c-0.081,0.05 -0.173,0.076 -0.265,0.076" style="fill-rule:nonzero;"/><path d="M1494.65,247.562l0,23.407l-23.408,11.704l0,-23.407l23.408,-11.704Z" style="fill-rule:nonzero;"/><path d="M1471.75,259.576l0,22.282l22.401,-11.2l0,-22.283l-22.401,11.201Zm-0.504,23.599c-0.092,0 -0.183,-0.025 -0.264,-0.075c-0.148,-0.092 -0.238,-0.253 -0.238,-0.428l0,-23.407c0,-0.19 0.108,-0.364 0.277,-0.45l23.408,-11.704c0.155,-0.077 0.341,-0.069 0.49,0.023c0.147,0.091 0.237,0.254 0.237,0.427l0,23.407c0,0.191 -0.107,0.365 -0.277,0.45l-23.408,11.704c-0.071,0.035 -0.149,0.053 -0.225,0.053" style="fill-rule:nonzero;"/><path d="M1447.84,276.82l0,11.704l23.406,11.703l0,-11.703l-23.406,-11.704Z" style="fill:#fff;fill-rule:nonzero;"/><path d="M1448.34,288.213l22.402,11.2l0,-10.578l-22.402,-11.201l0,10.579Zm22.904,12.517c-0.076,0 -0.154,-0.017 -0.224,-0.053l-23.408,-11.703c-0.17,-0.086 -0.278,-0.259 -0.278,-0.45l0,-11.704c0,-0.174 0.091,-0.336 0.239,-0.428c0.148,-0.092 0.333,-0.099 0.49,-0.022l23.406,11.705c0.171,0.085 0.279,0.259 0.279,0.449l0,11.703c0,0.174 -0.091,0.336 -0.239,0.428c-0.081,0.05 -0.173,0.075 -0.265,0.075" style="fill-rule:nonzero;"/><path d="M1494.65,276.82l-23.408,11.704l0,11.703l23.408,-11.703l0,-11.704Z" style="fill-rule:nonzero;"/><path d="M1471.75,288.836l0,10.578l22.401,-11.2l0,-10.579l-22.401,11.201Zm-0.504,11.895c-0.092,0 -0.183,-0.025 -0.264,-0.075c-0.148,-0.092 -0.238,-0.254 -0.238,-0.428l0,-11.703c0,-0.19 0.108,-0.364 0.277,-0.449l23.408,-11.705c0.155,-0.077 0.341,-0.07 0.49,0.022c0.147,0.092 0.237,0.254 0.237,0.428l0,11.704c0,0.191 -0.107,0.364 -0.277,0.45l-23.408,11.703c-0.071,0.035 -0.149,0.053 -0.225,0.053" style="fill-rule:nonzero;"/><path d="M1518.06,247.562l23.408,-11.704l23.407,11.704l-23.407,11.704l-23.408,-11.704Z" style="fill:#fff;fill-rule:nonzero;"/><path d="M1519.18,247.562l22.283,11.142l22.282,-11.142l-22.282,-11.142l-22.283,11.142Zm22.283,12.207c-0.077,0 -0.154,-0.018 -0.224,-0.053l-23.409,-11.704c-0.17,-0.085 -0.277,-0.26 -0.277,-0.45c0,-0.191 0.107,-0.365 0.277,-0.45l23.409,-11.704c0.14,-0.071 0.308,-0.071 0.449,0l23.407,11.704c0.171,0.085 0.278,0.259 0.278,0.45c0,0.19 -0.107,0.365 -0.278,0.45l-23.407,11.704c-0.071,0.035 -0.149,0.053 -0.225,0.053" style="fill-rule:nonzero;"/><path d="M1529.76,235.857l11.704,5.852l11.703,-5.852l-11.703,-5.852l-11.704,5.852Z" style="fill:#fff;fill-rule:nonzero;"/><path d="M1530.88,235.857l10.58,5.29l10.579,-5.29l-10.579,-5.289l-10.58,5.289Zm10.58,6.355c-0.077,0 -0.154,-0.018 -0.225,-0.053l-11.705,-5.852c-0.17,-0.086 -0.277,-0.26 -0.277,-0.45c0,-0.191 0.107,-0.364 0.277,-0.45l11.705,-5.851c0.141,-0.072 0.309,-0.072 0.45,0l11.703,5.851c0.171,0.086 0.279,0.259 0.279,0.45c0,0.19 -0.108,0.364 -0.279,0.45l-11.703,5.852c-0.071,0.035 -0.149,0.053 -0.225,0.053" style="fill-rule:nonzero;"/><path d="M1529.76,235.857l0,11.704l11.704,5.852l0,-11.704l-11.704,-5.852Z" style="fill:#fff;fill-rule:nonzero;"/><path d="M1530.26,247.251l10.697,5.349l0,-10.579l-10.697,-5.35l0,10.58Zm11.201,6.666c-0.076,0 -0.154,-0.018 -0.224,-0.053l-11.706,-5.852c-0.169,-0.085 -0.277,-0.26 -0.277,-0.45l0,-11.704c0,-0.174 0.09,-0.336 0.238,-0.428c0.149,-0.091 0.334,-0.1 0.491,-0.022l11.703,5.852c0.17,0.085 0.277,0.26 0.277,0.45l0,11.704c0,0.174 -0.09,0.336 -0.238,0.427c-0.08,0.05 -0.172,0.076 -0.264,0.076" style="fill-rule:nonzero;"/><path d="M1541.46,253.413l11.703,-5.852l0,-11.704l-11.703,5.852l0,11.704Z" style="fill-rule:nonzero;"/><path d="M1541.97,242.02l0,10.58l10.698,-5.35l0,-10.579l-10.698,5.349Zm-0.502,11.896c-0.092,0 -0.184,-0.025 -0.264,-0.075c-0.148,-0.092 -0.24,-0.253 -0.24,-0.428l0,-11.704c0,-0.19 0.109,-0.364 0.279,-0.45l11.704,-5.852c0.156,-0.078 0.34,-0.069 0.489,0.023c0.147,0.091 0.239,0.253 0.239,0.427l0,11.705c0,0.19 -0.108,0.364 -0.279,0.449l-11.703,5.852c-0.071,0.035 -0.149,0.053 -0.225,0.053" style="fill-rule:nonzero;"/><path d="M1529.76,288.524l11.704,5.852l11.703,-5.852l-11.703,-5.852l-11.704,5.852Z" style="fill:#fff;fill-rule:nonzero;"/><path d="M1530.88,288.524l10.58,5.289l10.579,-5.289l-10.579,-5.289l-10.58,5.289Zm10.58,6.354c-0.077,0 -0.154,-0.018 -0.225,-0.052l-11.705,-5.852c-0.17,-0.086 -0.277,-0.259 -0.277,-0.45c0,-0.19 0.107,-0.364 0.277,-0.449l11.705,-5.853c0.141,-0.071 0.309,-0.071 0.45,0l11.703,5.853c0.171,0.085 0.279,0.259 0.279,0.449c0,0.191 -0.108,0.364 -0.279,0.45l-11.703,5.852c-0.071,0.034 -0.149,0.052 -0.225,0.052" style="fill-rule:nonzero;"/><path d="M1518.06,276.82l23.408,-11.702l23.407,11.702l-23.407,11.704l-23.408,-11.704Z" style="fill:#fff;fill-rule:nonzero;"/><path d="M1519.18,276.82l22.283,11.142l22.282,-11.142l-22.282,-11.14l-22.283,11.14Zm22.283,12.207c-0.077,0 -0.154,-0.018 -0.224,-0.053l-23.409,-11.704c-0.17,-0.086 -0.277,-0.259 -0.277,-0.45c0,-0.19 0.107,-0.364 0.277,-0.45l23.409,-11.702c0.14,-0.071 0.308,-0.071 0.449,0l23.407,11.702c0.171,0.086 0.278,0.26 0.278,0.45c0,0.191 -0.107,0.364 -0.278,0.45l-23.407,11.704c-0.071,0.035 -0.149,0.053 -0.225,0.053" style="fill-rule:nonzero;"/><path d="M1529.76,288.524l0,11.703l11.704,5.852l0,-11.703l-11.704,-5.852Z" style="fill:#fff;fill-rule:nonzero;"/><path d="M1530.26,299.917l10.697,5.349l0,-10.579l-10.697,-5.349l0,10.579Zm11.201,6.666c-0.076,0 -0.154,-0.018 -0.224,-0.053l-11.706,-5.852c-0.169,-0.086 -0.277,-0.26 -0.277,-0.45l0,-11.703c0,-0.174 0.09,-0.336 0.238,-0.428c0.149,-0.092 0.334,-0.099 0.491,-0.021l11.703,5.851c0.17,0.085 0.277,0.259 0.277,0.449l0,11.704c0,0.174 -0.09,0.336 -0.238,0.428c-0.08,0.05 -0.172,0.075 -0.264,0.075" style="fill-rule:nonzero;"/><path d="M1541.46,306.079l11.703,-5.852l0,-11.703l-11.703,5.852l0,11.703Z" style="fill-rule:nonzero;"/><path d="M1541.97,294.687l0,10.579l10.698,-5.349l0,-10.579l-10.698,5.349Zm-0.502,11.896c-0.092,0 -0.184,-0.025 -0.264,-0.075c-0.148,-0.092 -0.24,-0.254 -0.24,-0.428l0,-11.704c0,-0.19 0.109,-0.364 0.279,-0.449l11.704,-5.851c0.156,-0.078 0.34,-0.071 0.489,0.021c0.148,0.092 0.239,0.254 0.239,0.428l0,11.703c0,0.19 -0.108,0.364 -0.279,0.45l-11.703,5.852c-0.071,0.035 -0.149,0.053 -0.225,0.053" style="fill-rule:nonzero;"/><path d="M1518.06,247.562l0,23.407l23.408,11.704l0,-23.407l-23.408,-11.704Z" style="fill:#fff;fill-rule:nonzero;"/><path d="M1518.56,270.658l22.4,11.201l0,-22.283l-22.4,-11.2l0,22.282Zm22.904,12.518c-0.076,0 -0.154,-0.018 -0.224,-0.054l-23.409,-11.704c-0.169,-0.085 -0.277,-0.259 -0.277,-0.449l0,-23.407c0,-0.174 0.09,-0.336 0.237,-0.427c0.15,-0.093 0.335,-0.101 0.491,-0.023l23.407,11.704c0.17,0.085 0.277,0.259 0.277,0.449l0,23.408c0,0.174 -0.09,0.336 -0.238,0.427c-0.08,0.05 -0.172,0.076 -0.264,0.076" style="fill-rule:nonzero;"/><path d="M1564.87,247.562l0,23.407l-23.407,11.704l0,-23.407l23.407,-11.704Z" style="fill-rule:nonzero;"/><path d="M1541.97,259.576l0,22.282l22.402,-11.2l0,-22.283l-22.402,11.201Zm-0.502,23.599c-0.092,0 -0.184,-0.025 -0.264,-0.075c-0.148,-0.092 -0.24,-0.253 -0.24,-0.428l0,-23.407c0,-0.19 0.109,-0.364 0.279,-0.45l23.407,-11.704c0.156,-0.077 0.341,-0.069 0.489,0.023c0.148,0.091 0.239,0.254 0.239,0.427l0,23.407c0,0.191 -0.107,0.365 -0.278,0.45l-23.407,11.704c-0.071,0.035 -0.149,0.053 -0.225,0.053" style="fill-rule:nonzero;"/><path d="M1518.06,276.82l0,11.704l23.408,11.703l0,-11.703l-23.408,-11.704Z" style="fill:#fff;fill-rule:nonzero;"/><path d="M1518.56,288.213l22.4,11.2l0,-10.578l-22.4,-11.201l0,10.579Zm22.904,12.517c-0.076,0 -0.154,-0.017 -0.224,-0.053l-23.409,-11.703c-0.169,-0.086 -0.277,-0.259 -0.277,-0.45l0,-11.704c0,-0.174 0.09,-0.336 0.237,-0.428c0.15,-0.092 0.335,-0.099 0.491,-0.022l23.407,11.705c0.17,0.085 0.277,0.259 0.277,0.449l0,11.703c0,0.174 -0.09,0.336 -0.238,0.428c-0.08,0.05 -0.172,0.075 -0.264,0.075" style="fill-rule:nonzero;"/><path d="M1564.87,276.82l-23.407,11.704l0,11.703l23.407,-11.703l0,-11.704Z" style="fill-rule:nonzero;"/><path d="M1541.97,288.836l0,10.578l22.402,-11.2l0,-10.579l-22.402,11.201Zm-0.502,11.895c-0.092,0 -0.184,-0.025 -0.264,-0.075c-0.148,-0.092 -0.24,-0.254 -0.24,-0.428l0,-11.703c0,-0.19 0.109,-0.364 0.279,-0.449l23.407,-11.705c0.156,-0.077 0.341,-0.07 0.489,0.022c0.148,0.092 0.239,0.254 0.239,0.428l0,11.704c0,0.191 -0.107,0.364 -0.278,0.45l-23.407,11.703c-0.071,0.035 -0.149,0.053 -0.225,0.053" style="fill-rule:nonzero;"/><path d="M1482.94,265.118l23.407,-11.705l23.407,11.705l-23.407,11.702l-23.407,-11.702Z" style="fill:#fff;fill-rule:nonzero;"/><path d="M1484.07,265.118l22.283,11.14l22.283,-11.14l-22.283,-11.143l-22.283,11.143Zm22.283,12.205c-0.077,0 -0.154,-0.017 -0.224,-0.053l-23.408,-11.703c-0.171,-0.084 -0.278,-0.259 -0.278,-0.449c0,-0.191 0.107,-0.365 0.278,-0.45l23.408,-11.704c0.14,-0.071 0.308,-0.071 0.449,0l23.408,11.704c0.17,0.085 0.277,0.259 0.277,0.45c0,0.19 -0.107,0.365 -0.277,0.449l-23.408,11.703c-0.071,0.036 -0.148,0.053 -0.225,0.053" style="fill-rule:nonzero;"/><path d="M1494.65,253.413l11.703,5.852l11.703,-5.852l-11.703,-5.852l-11.703,5.852Z" style="fill:#fff;fill-rule:nonzero;"/><path d="M1495.77,253.413l10.579,5.29l10.58,-5.29l-10.58,-5.289l-10.579,5.289Zm10.579,6.355c-0.077,0 -0.154,-0.018 -0.225,-0.053l-11.704,-5.852c-0.17,-0.085 -0.277,-0.26 -0.277,-0.45c0,-0.19 0.107,-0.364 0.277,-0.449l11.704,-5.853c0.141,-0.07 0.309,-0.07 0.45,0l11.704,5.853c0.17,0.085 0.278,0.259 0.278,0.449c0,0.19 -0.108,0.365 -0.278,0.45l-11.704,5.852c-0.071,0.035 -0.148,0.053 -0.225,0.053" style="fill-rule:nonzero;"/><path d="M1494.65,253.413l0,11.705l11.703,5.85l0,-11.703l-11.703,-5.852Z" style="fill:#fff;fill-rule:nonzero;"/><path d="M1495.15,264.807l10.698,5.348l0,-10.578l-10.698,-5.349l0,10.579Zm11.201,6.665c-0.076,0 -0.154,-0.018 -0.224,-0.054l-11.705,-5.85c-0.169,-0.085 -0.277,-0.259 -0.277,-0.449l0,-11.706c0,-0.173 0.09,-0.335 0.238,-0.426c0.148,-0.093 0.333,-0.101 0.49,-0.023l11.703,5.852c0.171,0.085 0.278,0.259 0.278,0.449l0,11.704c0,0.174 -0.091,0.336 -0.239,0.427c-0.08,0.05 -0.172,0.076 -0.264,0.076" style="fill-rule:nonzero;"/><path d="M1506.35,270.968l11.703,-5.85l0,-11.705l-11.703,5.852l0,11.703Z" style="fill-rule:nonzero;"/><path d="M1506.86,259.576l0,10.578l10.698,-5.348l0,-10.579l-10.698,5.349Zm-0.503,11.895c-0.092,0 -0.184,-0.026 -0.264,-0.075c-0.148,-0.092 -0.239,-0.254 -0.239,-0.428l0,-11.703c0,-0.19 0.109,-0.364 0.278,-0.45l11.704,-5.851c0.156,-0.078 0.34,-0.071 0.49,0.022c0.147,0.091 0.238,0.254 0.238,0.427l0,11.705c0,0.19 -0.108,0.365 -0.278,0.449l-11.704,5.851c-0.071,0.035 -0.149,0.053 -0.225,0.053" style="fill-rule:nonzero;"/><path d="M1494.65,306.079l11.703,5.852l11.703,-5.852l-11.703,-5.852l-11.703,5.852Z" style="fill:#fff;fill-rule:nonzero;"/><path d="M1495.77,306.079l10.579,5.29l10.58,-5.29l-10.58,-5.289l-10.579,5.289Zm10.579,6.355c-0.077,0 -0.154,-0.017 -0.225,-0.053l-11.704,-5.852c-0.17,-0.085 -0.277,-0.259 -0.277,-0.45c0,-0.189 0.107,-0.364 0.277,-0.45l11.704,-5.852c0.141,-0.07 0.309,-0.07 0.45,0l11.704,5.852c0.17,0.086 0.278,0.261 0.278,0.45c0,0.191 -0.108,0.365 -0.278,0.45l-11.704,5.852c-0.071,0.036 -0.148,0.053 -0.225,0.053" style="fill-rule:nonzero;"/><path d="M1482.94,294.376l23.407,-11.704l23.407,11.704l-23.407,11.703l-23.407,-11.703Z" style="fill:#fff;fill-rule:nonzero;"/><path d="M1484.07,294.376l22.283,11.141l22.283,-11.141l-22.283,-11.141l-22.283,11.141Zm22.283,12.206c-0.077,0 -0.154,-0.017 -0.224,-0.053l-23.408,-11.703c-0.171,-0.085 -0.278,-0.26 -0.278,-0.45c0,-0.19 0.107,-0.364 0.278,-0.45l23.408,-11.703c0.14,-0.071 0.308,-0.071 0.449,0l23.408,11.703c0.17,0.086 0.277,0.26 0.277,0.45c0,0.19 -0.107,0.365 -0.277,0.45l-23.408,11.703c-0.071,0.036 -0.148,0.053 -0.225,0.053" style="fill-rule:nonzero;"/><path d="M1494.65,306.079l0,11.704l11.703,5.852l0,-11.704l-11.703,-5.852Z" style="fill:#fff;fill-rule:nonzero;"/><path d="M1495.15,317.473l10.698,5.349l0,-10.579l-10.698,-5.35l0,10.58Zm11.201,6.666c-0.076,0 -0.154,-0.018 -0.224,-0.054l-11.705,-5.851c-0.169,-0.086 -0.277,-0.26 -0.277,-0.45l0,-11.705c0,-0.173 0.09,-0.335 0.238,-0.427c0.148,-0.092 0.333,-0.1 0.49,-0.022l11.703,5.852c0.171,0.086 0.278,0.259 0.278,0.449l0,11.705c0,0.174 -0.091,0.336 -0.239,0.427c-0.08,0.05 -0.172,0.076 -0.264,0.076" style="fill-rule:nonzero;"/><path d="M1506.35,323.635l11.703,-5.852l0,-11.704l-11.703,5.852l0,11.704Z" style="fill-rule:nonzero;"/><path d="M1506.86,312.243l0,10.579l10.698,-5.349l0,-10.58l-10.698,5.35Zm-0.503,11.896c-0.092,0 -0.184,-0.026 -0.264,-0.076c-0.148,-0.091 -0.239,-0.253 -0.239,-0.427l0,-11.705c0,-0.19 0.109,-0.363 0.278,-0.449l11.704,-5.852c0.156,-0.078 0.34,-0.07 0.49,0.022c0.147,0.092 0.238,0.254 0.238,0.427l0,11.705c0,0.19 -0.108,0.364 -0.278,0.45l-11.704,5.851c-0.071,0.036 -0.149,0.054 -0.225,0.054" style="fill-rule:nonzero;"/><path d="M1482.94,265.118l0,23.406l23.407,11.703l0,-23.407l-23.407,-11.702Z" style="fill:#fff;fill-rule:nonzero;"/><path d="M1483.45,288.213l22.401,11.2l0,-22.282l-22.401,-11.2l0,22.282Zm22.904,12.517c-0.076,0 -0.154,-0.017 -0.224,-0.053l-23.408,-11.703c-0.17,-0.086 -0.278,-0.259 -0.278,-0.45l0,-23.406c0,-0.175 0.09,-0.337 0.238,-0.428c0.149,-0.091 0.334,-0.1 0.491,-0.022l23.406,11.702c0.171,0.086 0.278,0.26 0.278,0.45l0,23.407c0,0.174 -0.091,0.336 -0.239,0.428c-0.08,0.05 -0.172,0.075 -0.264,0.075" style="fill-rule:nonzero;"/><path d="M1529.76,265.118l0,23.406l-23.407,11.703l0,-23.407l23.407,-11.702Z" style="fill-rule:nonzero;"/><path d="M1506.86,277.132l0,22.282l22.401,-11.2l0,-22.282l-22.401,11.2Zm-0.503,23.599c-0.092,0 -0.184,-0.026 -0.264,-0.076c-0.148,-0.092 -0.239,-0.253 -0.239,-0.427l0,-23.408c0,-0.19 0.109,-0.364 0.278,-0.449l23.407,-11.702c0.156,-0.079 0.342,-0.07 0.49,0.022c0.148,0.091 0.238,0.253 0.238,0.427l0,23.407c0,0.19 -0.107,0.363 -0.277,0.449l-23.408,11.703c-0.071,0.036 -0.149,0.054 -0.225,0.054" style="fill-rule:nonzero;"/><path d="M1482.94,294.376l0,11.703l23.407,11.704l0,-11.704l-23.407,-11.703Z" style="fill:#fff;fill-rule:nonzero;"/><path d="M1483.45,305.769l22.401,11.201l0,-10.579l-22.401,-11.201l0,10.579Zm22.904,12.518c-0.076,0 -0.154,-0.018 -0.224,-0.053l-23.408,-11.704c-0.17,-0.086 -0.278,-0.259 -0.278,-0.45l0,-11.704c0,-0.174 0.09,-0.336 0.238,-0.427c0.149,-0.092 0.334,-0.099 0.491,-0.022l23.406,11.703c0.171,0.086 0.278,0.26 0.278,0.45l0,11.704c0,0.174 -0.091,0.336 -0.239,0.427c-0.08,0.05 -0.172,0.076 -0.264,0.076" style="fill-rule:nonzero;"/><path d="M1529.76,294.376l-23.407,11.703l0,11.704l23.407,-11.704l0,-11.703Z" style="fill-rule:nonzero;"/><path d="M1506.86,306.39l0,10.58l22.401,-11.202l0,-10.579l-22.401,11.201Zm-0.503,11.896c-0.092,0 -0.184,-0.025 -0.264,-0.075c-0.148,-0.092 -0.239,-0.254 -0.239,-0.428l0,-11.704c0,-0.189 0.109,-0.364 0.278,-0.45l23.407,-11.703c0.156,-0.077 0.342,-0.069 0.49,0.022c0.148,0.091 0.238,0.254 0.238,0.428l0,11.703c0,0.191 -0.107,0.365 -0.277,0.45l-23.408,11.704c-0.071,0.035 -0.149,0.053 -0.225,0.053" style="fill-rule:nonzero;"/><path d="M1447.84,300.228l0,11.704l58.518,29.259l0,-11.702l-58.518,-29.261Z" style="fill:#fff;fill-rule:nonzero;"/><path d="M1448.34,311.621l57.513,28.756l0,-10.578l-57.513,-28.758l0,10.58Zm58.016,30.073c-0.077,0 -0.155,-0.018 -0.225,-0.053l-58.519,-29.259c-0.17,-0.085 -0.278,-0.26 -0.278,-0.45l0,-11.704c0,-0.175 0.091,-0.336 0.239,-0.428c0.148,-0.092 0.333,-0.1 0.49,-0.022l58.517,29.261c0.171,0.084 0.279,0.259 0.279,0.45l0,11.702c0,0.174 -0.091,0.336 -0.24,0.428c-0.08,0.049 -0.172,0.075 -0.263,0.075" style="fill-rule:nonzero;"/><path d="M1564.87,300.228l0,11.704l-58.519,29.259l0,-11.702l58.519,-29.261Z" style="fill-rule:nonzero;"/><path d="M1506.86,329.799l0,10.578l57.513,-28.756l0,-10.58l-57.513,28.758Zm-0.503,11.895c-0.092,0 -0.184,-0.026 -0.264,-0.076c-0.148,-0.091 -0.239,-0.253 -0.239,-0.427l0,-11.703c0,-0.19 0.109,-0.365 0.278,-0.449l58.518,-29.261c0.156,-0.079 0.342,-0.07 0.489,0.022c0.149,0.092 0.24,0.253 0.24,0.428l0,11.703c0,0.191 -0.108,0.366 -0.279,0.451l-58.518,29.258c-0.071,0.036 -0.149,0.054 -0.225,0.054" style="fill-rule:nonzero;"/><g opacity="0.5"><path d="M1443.99,224.154l-4.022,0l0,-13.716l13.714,0l0,4.023l-9.692,0l0,9.693Z" style="fill:#fff;fill-rule:nonzero;"/><path d="M1572.74,224.154l-4.023,0l0,-9.693l-9.692,0l0,-4.023l13.715,0l0,13.716Z" style="fill:#fff;fill-rule:nonzero;"/><path d="M1453.69,343.202l-13.715,0l0,-13.714l4.023,0l0,9.691l9.692,0l0,4.023Z" style="fill:#fff;fill-rule:nonzero;"/><path d="M1572.74,343.202l-13.715,0l0,-4.023l9.692,0l0,-9.691l4.023,0l0,13.714Z" style="fill:#fff;fill-rule:nonzero;"/></g></g><g opacity="0.15"><path d="M1494.56,25.953l11.703,5.852l11.703,-5.852l-11.703,-5.853l-11.703,5.853Z" style="fill:#fff;fill-rule:nonzero;stroke:#000;stroke-width:2px;"/><path d="M1494.56,25.953l0,117.04l11.703,5.853l0,-117.041l-11.703,-5.852Z" style="fill:#fff;fill-rule:nonzero;stroke:#000;stroke-width:2px;"/><path d="M1517.97,25.953l-11.703,5.852l0,117.041l11.703,-5.853l0,-117.04Z" style="fill-rule:nonzero;stroke:#000;stroke-width:2px;"/><path d="M1494.56,119.586l11.703,5.851l11.703,-5.851l0,-11.705l23.41,11.705l-35.113,17.555l-35.113,-17.555l23.41,-11.705l0,11.705Z" style="fill:#fff;fill-rule:nonzero;stroke:#000;stroke-width:2px;"/><path d="M1471.15,119.586l0,5.851l35.113,17.556l0,-5.852l-35.113,-17.555Z" style="fill:#fff;fill-rule:nonzero;stroke:#000;stroke-width:2px;"/><path d="M1541.38,119.586l-35.113,17.555l0,5.852l35.113,-17.556l0,-5.851Z" style="fill-rule:nonzero;stroke:#000;stroke-width:2px;"/><path d="M1447.75,78.621l46.816,-23.408l0,23.408l11.704,5.852l11.703,-5.852l0,-23.408l46.817,23.408l-58.52,29.26l-58.52,-29.26Z" style="fill:#fff;fill-rule:nonzero;stroke:#000;stroke-width:2px;"/><path d="M1447.75,78.621l0,11.704l58.52,29.261l0,-11.705l-58.52,-29.26Z" style="fill:#fff;fill-rule:nonzero;stroke:#000;stroke-width:2px;"/><path d="M1564.79,78.621l0,11.704l-58.521,29.261l0,-11.705l58.521,-29.26Z" style="fill-rule:nonzero;stroke:#000;stroke-width:2px;"/><path d="M1447.75,61.065l46.816,-23.408l0,23.408l11.704,5.852l11.703,-5.852l0,-23.408l46.817,23.408l-58.52,29.26l-58.52,-29.26Z" style="fill:#fff;fill-rule:nonzero;stroke:#000;stroke-width:2px;"/><path d="M1447.75,61.065l0,11.705l58.52,29.259l0,-11.704l-58.52,-29.26Z" style="fill:#fff;fill-rule:nonzero;stroke:#000;stroke-width:2px;"/><path d="M1564.79,61.065l0,11.705l-58.521,29.259l0,-11.704l58.521,-29.26Z" style="fill-rule:nonzero;stroke:#000;stroke-width:2px;"/><path d="M1494.56,55.213l11.703,5.852l11.703,-5.852l0,-11.703l23.41,11.703l-35.113,17.557l-35.113,-17.557l23.41,-11.703l0,11.703Z" style="fill:#fff;fill-rule:nonzero;stroke:#000;stroke-width:2px;"/><path d="M1471.15,55.213l0,5.852l35.113,17.556l0,-5.851l-35.113,-17.557Z" style="fill:#fff;fill-rule:nonzero;stroke:#000;stroke-width:2px;"/><path d="M1541.38,55.213l-35.113,17.557l0,5.851l35.113,-17.556l0,-5.852Z" style="fill-rule:nonzero;stroke:#000;stroke-width:2px;"/><path d="M1494.56,43.51l11.703,5.851l11.703,-5.851l0,-11.705l23.41,11.705l-35.113,17.555l-35.113,-17.555l23.41,-11.705l0,11.705Z" style="fill:#fff;fill-rule:nonzero;stroke:#000;stroke-width:2px;"/><path d="M1471.15,43.51l0,5.851l35.113,17.556l0,-5.852l-35.113,-17.555Z" style="fill:#fff;fill-rule:nonzero;stroke:#000;stroke-width:2px;"/><path d="M1541.38,43.51l-35.113,17.555l0,5.852l35.113,-17.556l0,-5.851Z" style="fill-rule:nonzero;stroke:#000;stroke-width:2px;"/><g opacity="0.5"><path d="M1441.89,31.805l0,-11.705l11.705,0" style="fill:none;fill-rule:nonzero;stroke:#fff;stroke-width:4px;stroke-linecap:butt;stroke-linejoin:miter;"/><path d="M1570.64,31.805l0,-11.705l-11.705,0" style="fill:none;fill-rule:nonzero;stroke:#fff;stroke-width:4px;stroke-linecap:butt;stroke-linejoin:miter;"/><path d="M1441.89,137.141l0,11.705l11.705,0" style="fill:none;fill-rule:nonzero;stroke:#fff;stroke-width:4px;stroke-linecap:butt;stroke-linejoin:miter;"/><path d="M1570.64,137.141l0,11.705l-11.705,0" style="fill:none;fill-rule:nonzero;stroke:#fff;stroke-width:4px;stroke-linecap:butt;stroke-linejoin:miter;"/></g></g><g opacity="0.15"><path d="M1481.85,497.165l23.862,-11.931l23.864,11.931l-23.864,11.931l-23.862,-11.931Z" style="fill:#fff;fill-rule:nonzero;stroke:#000;stroke-width:2px;"/><path d="M1481.85,497.165l0,23.862l23.862,11.932l0,-23.863l-23.862,-11.931Z" style="fill:#fff;fill-rule:nonzero;stroke:#000;stroke-width:2px;"/><path d="M1529.57,497.165l0,23.862l-23.863,11.932l0,-23.863l23.863,-11.931Z" style="fill-rule:nonzero;stroke:#000;stroke-width:2px;"/><path d="M1446.05,485.234l59.656,-29.828l59.657,29.828l-59.657,29.828l-59.656,-29.828Z" style="fill:#fff;fill-rule:nonzero;stroke:#000;stroke-width:2px;"/><path d="M1446.05,485.234l0,11.931l59.656,29.827l0,-11.93l-59.656,-29.828Z" style="fill:#fff;fill-rule:nonzero;stroke:#000;stroke-width:2px;"/><path d="M1565.37,485.234l0,11.931l-59.656,29.827l0,-11.93l59.656,-29.828Z" style="fill-rule:nonzero;stroke:#000;stroke-width:2px;"/><path d="M1446.05,455.406l59.656,-29.828l59.657,29.828l-59.657,29.828l-59.656,-29.828Z" style="fill:#fff;fill-rule:nonzero;stroke:#000;stroke-width:2px;"/><path d="M1446.05,455.406l0,23.861l59.656,29.828l0,-23.861l-59.656,-29.828Z" style="fill:#fff;fill-rule:nonzero;stroke:#000;stroke-width:2px;"/><path d="M1505.71,485.234l59.656,-29.828l0,23.861l-59.656,29.828l0,-23.861Z" style="fill-rule:nonzero;stroke:#000;stroke-width:2px;"/><path d="M1446.05,437.509l59.656,-29.828l59.657,29.828l-59.657,29.828l-59.656,-29.828Z" style="fill:#fff;fill-rule:nonzero;stroke:#000;stroke-width:2px;"/><path d="M1446.05,437.509l0,11.931l59.656,29.828l0,-11.931l-59.656,-29.828Z" style="fill:#fff;fill-rule:nonzero;stroke:#000;stroke-width:2px;"/><path d="M1565.37,437.509l0,11.931l-59.656,29.828l0,-11.931l59.656,-29.828Z" style="fill-rule:nonzero;stroke:#000;stroke-width:2px;"/><path d="M1481.85,413.646l23.862,-11.932l23.864,11.932l-23.864,11.932l-23.862,-11.932Z" style="fill:#fff;fill-rule:nonzero;stroke:#000;stroke-width:2px;"/><path d="M1481.85,413.646l0,23.863l23.862,11.93l0,-23.861l-23.862,-11.932Z" style="fill:#fff;fill-rule:nonzero;stroke:#000;stroke-width:2px;"/><path d="M1529.57,413.646l0,23.863l-23.863,11.93l0,-23.861l23.863,-11.932Z" style="fill-rule:nonzero;stroke:#000;stroke-width:2px;"/><path d="M1452.02,467.337l0,5.965l47.725,23.863l0,-5.965l-47.725,-23.863Z" style="fill:#fff;fill-rule:nonzero;stroke:#000;stroke-width:2px;"/><path d="M1511.68,491.2l0,5.965l47.726,-23.862l0,-5.966l-47.726,23.863Z" style="fill:#fff;fill-rule:nonzero;stroke:#000;stroke-width:2px;"/><path d="M1511.68,491.2l0,5.965l47.726,-23.862l-5.966,-2.984l-41.76,20.881Z" style="fill:#fff;fill-rule:nonzero;stroke:#000;stroke-width:2px;"/><path d="M1452.02,473.302l47.725,23.863l0,-5.966l-41.76,-20.88l-5.965,2.983Z" style="fill:#fff;fill-rule:nonzero;stroke:#000;stroke-width:2px;"/><g opacity="0.5"><path d="M1440.09,413.646l0,-11.932l11.933,0" style="fill:none;fill-rule:nonzero;stroke:#fff;stroke-width:4px;stroke-linecap:butt;stroke-linejoin:miter;"/><path d="M1571.33,413.646l0,-11.932l-11.932,0" style="fill:none;fill-rule:nonzero;stroke:#fff;stroke-width:4px;stroke-linecap:butt;stroke-linejoin:miter;"/><path d="M1440.09,521.027l0,11.932l11.933,0" style="fill:none;fill-rule:nonzero;stroke:#fff;stroke-width:4px;stroke-linecap:butt;stroke-linejoin:miter;"/><path d="M1571.33,521.027l0,11.932l-11.932,0" style="fill:none;fill-rule:nonzero;stroke:#fff;stroke-width:4px;stroke-linecap:butt;stroke-linejoin:miter;"/></g></g></svg>