<?xml version="1.0" encoding="UTF-8" standalone="no"?><!DOCTYPE svg PUBLIC "-//W3C//DTD SVG 1.1//EN" "http://www.w3.org/Graphics/SVG/1.1/DTD/svg11.dtd"><svg width="100%" height="100%" viewBox="0 0 1600 1600" version="1.1" xmlns="http://www.w3.org/2000/svg" xmlns:xlink="http://www.w3.org/1999/xlink" xml:space="preserve" xmlns:serif="http://www.serif.com/" style="fill-rule:evenodd;clip-rule:evenodd;stroke-linecap:round;stroke-linejoin:round;stroke-miterlimit:10;"><g id="Layer-3" serif:id="Layer 3"><rect x="-300.902" y="0" width="2317.23" height="1600" style="fill:url(#_Radial1);"/></g><g id="Layer-1" serif:id="Layer 1"><g opacity="0.25"><rect x="11.921" y="878.139" width="154.97" height="11.921" style="fill:#fff;"/></g><g opacity="0.25"><rect x="1433.11" y="9.921" width="11.921" height="143.049" style="fill:#fff;"/></g><g opacity="0.25"><rect x="1433.11" y="176.812" width="11.921" height="79.089" style="fill:#fff;"/></g><g opacity="0.15"><path d="M30.384,755.019l58.519,-29.259l58.518,29.259l-58.518,29.261l-58.519,-29.261Z" style="fill:#fff;fill-rule:nonzero;"/><path d="M31.509,755.019l57.394,28.696l57.393,-28.696l-57.393,-28.696l-57.394,28.696Zm57.394,29.763c-0.078,0 -0.155,-0.018 -0.226,-0.053l-58.518,-29.26c-0.17,-0.086 -0.278,-0.259 -0.278,-0.45c0,-0.19 0.108,-0.364 0.278,-0.45l58.518,-29.258c0.142,-0.071 0.309,-0.071 0.45,0l58.518,29.258c0.171,0.086 0.279,0.26 0.279,0.45c0,0.191 -0.108,0.364 -0.279,0.45l-58.518,29.26c-0.07,0.035 -0.148,0.053 -0.224,0.053" style="fill-rule:nonzero;"/><path d="M42.088,731.611l0,23.408l11.703,5.852l0,-23.408l-11.703,-5.852Z" style="fill:#fff;fill-rule:nonzero;"/><path d="M42.591,754.708l10.697,5.348l0,-22.283l-10.697,-5.348l0,22.283Zm11.2,6.665c-0.076,0 -0.154,-0.018 -0.224,-0.052l-11.705,-5.852c-0.169,-0.086 -0.277,-0.26 -0.277,-0.45l0,-23.408c0,-0.174 0.091,-0.336 0.238,-0.428c0.148,-0.091 0.334,-0.1 0.489,-0.022l11.704,5.852c0.171,0.086 0.278,0.259 0.278,0.45l0,23.408c0,0.173 -0.09,0.335 -0.239,0.426c-0.08,0.051 -0.172,0.076 -0.264,0.076" style="fill-rule:nonzero;"/><path d="M53.792,760.871l11.704,-5.852l-0.001,-23.408l-11.703,5.852l0,23.408Z" style="fill-rule:nonzero;"/><path d="M54.294,737.773l0,22.282l10.698,-5.347l0,-22.283l-10.698,5.348Zm-0.503,23.599c-0.091,0 -0.184,-0.025 -0.265,-0.075c-0.148,-0.091 -0.238,-0.253 -0.238,-0.427l0,-23.408c0,-0.19 0.107,-0.364 0.278,-0.45l11.704,-5.852c0.156,-0.077 0.341,-0.068 0.489,0.023c0.149,0.092 0.239,0.253 0.239,0.427l0,23.408c0,0.191 -0.107,0.364 -0.278,0.45l-11.704,5.852c-0.071,0.035 -0.149,0.052 -0.225,0.052" style="fill-rule:nonzero;"/><path d="M112.31,731.611l0,23.408l11.704,5.852l0,-23.408l-11.704,-5.852Z" style="fill:#fff;fill-rule:nonzero;"/><path d="M112.813,754.708l10.697,5.348l0,-22.283l-10.698,-5.348l0,22.283Zm11.201,6.665c-0.076,0 -0.154,-0.018 -0.225,-0.052l-11.704,-5.852c-0.169,-0.086 -0.278,-0.26 -0.278,-0.45l0.001,-23.408c-0.001,-0.174 0.09,-0.336 0.239,-0.428c0.146,-0.091 0.333,-0.1 0.488,-0.022l11.704,5.852c0.171,0.086 0.278,0.259 0.278,0.45l0,23.408c0,0.173 -0.09,0.335 -0.239,0.426c-0.079,0.051 -0.172,0.076 -0.264,0.076" style="fill-rule:nonzero;"/><path d="M124.014,760.871l11.703,-5.852l0,-23.408l-11.703,5.852l0,23.408Z" style="fill-rule:nonzero;"/><path d="M124.517,737.773l0,22.282l10.697,-5.347l0,-22.283l-10.697,5.348Zm-0.503,23.599c-0.091,0 -0.184,-0.025 -0.265,-0.075c-0.148,-0.091 -0.238,-0.253 -0.238,-0.427l0,-23.408c0,-0.19 0.108,-0.364 0.278,-0.45l11.704,-5.852c0.156,-0.077 0.341,-0.068 0.489,0.023c0.148,0.092 0.238,0.253 0.238,0.427l0,23.408c0,0.191 -0.107,0.364 -0.278,0.45l-11.703,5.852c-0.071,0.035 -0.148,0.052 -0.225,0.052" style="fill-rule:nonzero;"/><path d="M94.755,740.389l0,23.407l11.704,5.852l0,-23.407l-11.704,-5.852Z" style="fill:#fff;fill-rule:nonzero;"/><path d="M95.258,763.486l10.698,5.349l0,-22.283l-10.698,-5.349l0,22.283Zm11.201,6.665c-0.078,0 -0.154,-0.018 -0.226,-0.053l-11.704,-5.852c-0.169,-0.085 -0.277,-0.259 -0.277,-0.45l0,-23.407c0,-0.174 0.09,-0.336 0.239,-0.427c0.148,-0.092 0.332,-0.1 0.489,-0.022l11.702,5.852c0.172,0.085 0.28,0.258 0.28,0.449l0,23.407c0,0.175 -0.091,0.336 -0.239,0.429c-0.081,0.049 -0.173,0.074 -0.264,0.074" style="fill-rule:nonzero;"/><path d="M106.459,769.648l11.703,-5.852l0,-23.407l-11.703,5.852l0,23.407Z" style="fill-rule:nonzero;"/><path d="M106.962,746.552l0,22.283l10.697,-5.349l0,-22.284l-10.697,5.35Zm-0.503,23.599c-0.092,0 -0.185,-0.026 -0.266,-0.075c-0.147,-0.092 -0.237,-0.253 -0.237,-0.428l0,-23.407c0,-0.191 0.107,-0.365 0.277,-0.45l11.704,-5.852c0.155,-0.077 0.34,-0.07 0.489,0.022c0.148,0.091 0.239,0.254 0.239,0.428l0,23.407c0,0.191 -0.107,0.365 -0.279,0.45l-11.704,5.852c-0.07,0.035 -0.147,0.053 -0.223,0.053" style="fill-rule:nonzero;"/><path d="M59.644,740.389l0,23.407l11.703,5.852l0,-23.407l-11.703,-5.852Z" style="fill:#fff;fill-rule:nonzero;"/><path d="M60.147,763.486l10.697,5.349l0,-22.283l-10.697,-5.349l0,22.283Zm11.2,6.665c-0.076,0 -0.153,-0.018 -0.224,-0.053l-11.704,-5.852c-0.171,-0.085 -0.278,-0.259 -0.278,-0.45l0,-23.407c0,-0.174 0.09,-0.336 0.239,-0.427c0.148,-0.092 0.334,-0.1 0.489,-0.022l11.704,5.852c0.17,0.085 0.277,0.258 0.277,0.449l0,23.407c0,0.175 -0.09,0.336 -0.238,0.429c-0.08,0.049 -0.173,0.074 -0.265,0.074" style="fill-rule:nonzero;"/><path d="M71.347,769.648l11.704,-5.852l0,-23.407l-11.704,5.852l0,23.407Z" style="fill-rule:nonzero;"/><path d="M71.85,746.552l0,22.283l10.698,-5.349l0,-22.284l-10.698,5.35Zm-0.503,23.599c-0.091,0 -0.183,-0.026 -0.264,-0.075c-0.149,-0.092 -0.239,-0.253 -0.239,-0.428l0,-23.407c0,-0.191 0.108,-0.365 0.279,-0.45l11.703,-5.852c0.156,-0.077 0.34,-0.07 0.489,0.022c0.148,0.091 0.239,0.254 0.239,0.428l0,23.407c0,0.191 -0.108,0.365 -0.278,0.45l-11.703,5.852c-0.072,0.035 -0.148,0.053 -0.226,0.053" style="fill-rule:nonzero;"/><path d="M77.199,749.167l0,23.408l11.704,5.851l0,-23.407l-11.704,-5.852Z" style="fill:#fff;fill-rule:nonzero;"/><path d="M77.702,772.263l10.698,5.35l0,-22.284l-10.698,-5.348l0,22.282Zm11.201,6.665c-0.077,0 -0.154,-0.016 -0.225,-0.053l-11.703,-5.851c-0.171,-0.086 -0.279,-0.259 -0.279,-0.449l0,-23.408c0,-0.175 0.09,-0.336 0.239,-0.427c0.148,-0.093 0.334,-0.101 0.49,-0.023l11.703,5.852c0.17,0.086 0.278,0.259 0.278,0.449l0,23.408c0,0.173 -0.091,0.336 -0.239,0.427c-0.081,0.051 -0.172,0.075 -0.264,0.075" style="fill-rule:nonzero;"/><path d="M88.903,778.426l11.704,-5.851l0,-23.408l-11.704,5.852l0,23.407Z" style="fill-rule:nonzero;"/><path d="M89.406,755.33l0,22.283l10.698,-5.349l0,-22.283l-10.698,5.349Zm-0.503,23.598c-0.092,0 -0.184,-0.023 -0.264,-0.074c-0.149,-0.092 -0.239,-0.254 -0.239,-0.428l0,-23.407c0,-0.19 0.108,-0.364 0.277,-0.45l11.704,-5.852c0.156,-0.077 0.341,-0.069 0.49,0.023c0.148,0.092 0.239,0.253 0.239,0.427l0,23.408c0,0.191 -0.108,0.363 -0.28,0.449l-11.702,5.851c-0.071,0.038 -0.148,0.053 -0.225,0.053" style="fill-rule:nonzero;"/><path d="M30.384,755.019l0,23.407l58.519,29.26l0,-23.406l-58.519,-29.261Z" style="fill:#fff;fill-rule:nonzero;"/><path d="M30.887,778.115l57.513,28.756l0,-22.281l-57.513,-28.758l0,22.283Zm58.016,30.072c-0.078,0 -0.155,-0.017 -0.226,-0.052l-58.518,-29.26c-0.169,-0.084 -0.278,-0.258 -0.278,-0.449l0,-23.408c0,-0.174 0.091,-0.336 0.239,-0.427c0.148,-0.092 0.333,-0.1 0.489,-0.022l58.518,29.259c0.171,0.086 0.279,0.26 0.279,0.451l0,23.406c0,0.174 -0.091,0.336 -0.239,0.428c-0.081,0.049 -0.172,0.074 -0.264,0.074" style="fill-rule:nonzero;"/><path d="M88.903,784.279l58.518,-29.261l0,23.407l-58.518,29.26l0,-23.406Z" style="fill-rule:nonzero;"/><path d="M89.406,784.59l0,22.281l57.512,-28.756l0,-22.282l-57.512,28.757Zm-0.503,23.598c-0.092,0 -0.184,-0.026 -0.264,-0.075c-0.149,-0.091 -0.239,-0.253 -0.239,-0.427l0,-23.407c0,-0.191 0.108,-0.365 0.277,-0.451l58.519,-29.259c0.157,-0.077 0.341,-0.069 0.489,0.022c0.149,0.091 0.239,0.253 0.239,0.428l0,23.407c0,0.191 -0.108,0.365 -0.278,0.449l-58.518,29.26c-0.071,0.035 -0.148,0.053 -0.225,0.053" style="fill-rule:nonzero;"/><path d="M30.384,708.204l58.519,-29.259l58.518,29.259l-58.518,29.259l-58.519,-29.259Z" style="fill:#fff;fill-rule:nonzero;"/><path d="M31.509,708.204l57.394,28.697l57.393,-28.697l-57.393,-28.696l-57.394,28.696Zm57.394,29.762c-0.078,0 -0.155,-0.017 -0.226,-0.053l-58.518,-29.259c-0.17,-0.085 -0.278,-0.259 -0.278,-0.45c0,-0.19 0.108,-0.364 0.278,-0.449l58.518,-29.259c0.142,-0.071 0.309,-0.071 0.45,0l58.518,29.259c0.171,0.085 0.279,0.259 0.279,0.449c0,0.191 -0.108,0.365 -0.279,0.45l-58.518,29.259c-0.07,0.036 -0.148,0.053 -0.224,0.053" style="fill-rule:nonzero;"/><path d="M30.384,708.204l0,23.407l58.519,29.26l0,-23.408l-58.519,-29.259Z" style="fill:#fff;fill-rule:nonzero;"/><path d="M30.887,731.301l57.513,28.755l0,-22.282l-57.513,-28.756l0,22.283Zm58.016,30.072c-0.078,0 -0.155,-0.017 -0.226,-0.052l-58.518,-29.26c-0.169,-0.085 -0.278,-0.26 -0.278,-0.45l0,-23.407c0,-0.174 0.091,-0.336 0.239,-0.427c0.148,-0.092 0.333,-0.101 0.489,-0.022l58.518,29.258c0.171,0.086 0.279,0.26 0.279,0.45l0,23.408c0,0.174 -0.091,0.335 -0.239,0.427c-0.081,0.05 -0.172,0.075 -0.264,0.075" style="fill-rule:nonzero;"/><path d="M88.903,737.463l58.518,-29.259l0,23.407l-58.518,29.26l0,-23.408Z" style="fill-rule:nonzero;"/><path d="M89.406,737.773l0,22.282l57.512,-28.755l0,-22.283l-57.512,28.756Zm-0.503,23.599c-0.092,0 -0.184,-0.025 -0.264,-0.075c-0.149,-0.091 -0.239,-0.253 -0.239,-0.427l0,-23.408c0,-0.19 0.108,-0.364 0.277,-0.45l58.519,-29.258c0.157,-0.078 0.341,-0.069 0.489,0.022c0.149,0.092 0.239,0.254 0.239,0.427l0,23.407c0,0.191 -0.108,0.365 -0.278,0.451l-58.518,29.259c-0.071,0.035 -0.148,0.052 -0.225,0.052" style="fill-rule:nonzero;"/><path d="M42.088,708.204l46.814,-23.407l46.814,23.407l-46.814,23.407l-46.814,-23.407Z" style="fill:#fff;fill-rule:nonzero;"/><path d="M43.212,708.204l45.691,22.845l45.69,-22.845l-45.69,-22.844l-45.691,22.844Zm45.691,23.91c-0.077,0 -0.154,-0.017 -0.226,-0.053l-46.814,-23.407c-0.17,-0.085 -0.277,-0.259 -0.277,-0.45c0,-0.19 0.107,-0.364 0.277,-0.449l46.814,-23.407c0.142,-0.071 0.309,-0.071 0.451,0l46.814,23.407c0.17,0.085 0.278,0.259 0.278,0.449c0,0.191 -0.108,0.365 -0.278,0.45l-46.814,23.407c-0.071,0.036 -0.148,0.053 -0.225,0.053" style="fill-rule:nonzero;"/><path d="M88.903,684.797l0,11.703l-35.111,17.556l-11.703,-5.852l46.814,-23.407Z" style="fill-rule:nonzero;"/><path d="M43.212,708.204l10.58,5.291l34.608,-17.306l0,-10.578l-45.188,22.593Zm10.58,6.355c-0.078,0 -0.155,-0.018 -0.225,-0.053l-11.704,-5.852c-0.17,-0.085 -0.277,-0.259 -0.277,-0.45c0,-0.19 0.107,-0.364 0.277,-0.449l46.814,-23.407c0.157,-0.078 0.341,-0.07 0.49,0.022c0.148,0.091 0.239,0.253 0.239,0.427l0,11.703c0,0.191 -0.108,0.365 -0.278,0.451l-35.111,17.555c-0.071,0.035 -0.148,0.053 -0.225,0.053" style="fill-rule:nonzero;"/><path d="M88.903,696.5l35.111,17.556l11.703,-5.852l-46.814,-23.408l0,11.703Z" style="fill:#fff;fill-rule:nonzero;"/><path d="M89.406,696.189l34.608,17.306l10.58,-5.291l-45.188,-22.593l0,10.578Zm34.608,18.371c-0.077,0 -0.154,-0.018 -0.225,-0.054l-35.112,-17.555c-0.169,-0.086 -0.277,-0.26 -0.277,-0.451l0,-11.703c0,-0.174 0.09,-0.336 0.239,-0.427c0.148,-0.092 0.332,-0.1 0.489,-0.022l46.814,23.407c0.171,0.085 0.278,0.259 0.278,0.449c0,0.192 -0.107,0.365 -0.278,0.45l-11.703,5.852c-0.071,0.036 -0.147,0.054 -0.225,0.054" style="fill-rule:nonzero;"/><path d="M65.496,708.204l23.407,-11.704l23.407,11.704l-23.407,11.704l-23.407,-11.704Z" style="fill:#fff;fill-rule:nonzero;"/><path d="M66.62,708.204l22.283,11.143l22.282,-11.143l-22.282,-11.141l-22.283,11.141Zm22.283,12.208c-0.077,0 -0.155,-0.019 -0.226,-0.054l-23.407,-11.704c-0.171,-0.085 -0.277,-0.259 -0.277,-0.45c0,-0.19 0.106,-0.364 0.277,-0.449l23.407,-11.704c0.142,-0.071 0.309,-0.071 0.45,0l23.407,11.704c0.171,0.085 0.278,0.259 0.278,0.449c0,0.191 -0.107,0.365 -0.278,0.45l-23.407,11.704c-0.07,0.035 -0.148,0.054 -0.224,0.054" style="fill-rule:nonzero;"/><path d="M65.496,708.204l0,11.704l23.407,11.703l0,-11.703l-23.407,-11.704Z" style="fill:#fff;fill-rule:nonzero;"/><path d="M65.999,719.597l22.401,11.201l0,-10.579l-22.401,-11.202l0,10.58Zm22.904,12.517c-0.077,0 -0.154,-0.018 -0.225,-0.053l-23.407,-11.703c-0.171,-0.085 -0.278,-0.259 -0.278,-0.45l0,-11.705c0,-0.173 0.09,-0.335 0.238,-0.427c0.149,-0.091 0.335,-0.1 0.49,-0.022l23.407,11.705c0.17,0.085 0.278,0.259 0.278,0.449l0,11.703c0,0.174 -0.091,0.336 -0.239,0.428c-0.081,0.049 -0.171,0.075 -0.264,0.075" style="fill-rule:nonzero;"/><path d="M112.31,708.204l0,11.704l-23.407,11.703l0,-11.703l23.407,-11.704Z" style="fill-rule:nonzero;"/><path d="M89.406,720.219l0,10.579l22.401,-11.201l0,-10.58l-22.401,11.202Zm-0.503,11.895c-0.092,0 -0.184,-0.026 -0.264,-0.075c-0.149,-0.092 -0.239,-0.254 -0.239,-0.428l0,-11.704c0,-0.189 0.108,-0.363 0.277,-0.448l23.408,-11.705c0.156,-0.078 0.341,-0.069 0.489,0.022c0.148,0.092 0.239,0.254 0.239,0.427l0,11.704c0,0.192 -0.107,0.366 -0.279,0.451l-23.406,11.703c-0.071,0.035 -0.148,0.053 -0.225,0.053" style="fill-rule:nonzero;"/><g opacity="0.5"><path d="M26.544,690.648l-4.023,0l0,-13.715l13.715,0l0,4.023l-9.692,0l0,9.692Z" style="fill:#fff;fill-rule:nonzero;"/><path d="M155.285,690.648l-4.023,0l0,-9.692l-9.693,0l0,-4.023l13.716,0l0,13.715Z" style="fill:#fff;fill-rule:nonzero;"/><path d="M36.236,809.697l-13.715,0l0,-13.717l4.023,0l0,9.694l9.692,0l0,4.023Z" style="fill:#fff;fill-rule:nonzero;"/><path d="M155.285,809.697l-13.716,0l0,-4.023l9.693,0l0,-9.694l4.023,0l0,13.717Z" style="fill:#fff;fill-rule:nonzero;"/></g></g><g opacity="0.15"><path d="M43.094,542.096l0,23.406l46.814,-23.406l0,-23.408l-46.814,23.408Z" style="fill-rule:nonzero;"/><path d="M43.597,542.407l0,22.281l45.809,-22.903l0,-22.284l-45.809,22.906Zm-0.503,23.598c-0.092,0 -0.184,-0.026 -0.265,-0.076c-0.148,-0.09 -0.238,-0.252 -0.238,-0.427l0,-23.407c0,-0.19 0.108,-0.364 0.278,-0.449l46.815,-23.409c0.155,-0.077 0.341,-0.069 0.489,0.023c0.148,0.091 0.238,0.253 0.238,0.427l0,23.408c0,0.192 -0.107,0.366 -0.277,0.45l-46.815,23.407c-0.071,0.035 -0.148,0.053 -0.225,0.053" style="fill-rule:nonzero;"/><path d="M136.723,542.096l0,23.406l-46.814,-23.406l0,-23.408l46.814,23.408Z" style="fill:#fff;fill-rule:nonzero;"/><path d="M90.412,541.785l45.809,22.903l0,-22.281l-45.809,-22.906l0,22.284Zm46.312,24.22c-0.077,0 -0.154,-0.018 -0.225,-0.053l-46.815,-23.407c-0.17,-0.084 -0.278,-0.258 -0.278,-0.449l0,-23.409c0,-0.173 0.091,-0.336 0.239,-0.427c0.148,-0.092 0.333,-0.1 0.489,-0.023l46.815,23.409c0.17,0.085 0.277,0.259 0.277,0.45l0,23.406c0,0.175 -0.09,0.337 -0.237,0.428c-0.081,0.049 -0.173,0.075 -0.265,0.075" style="fill-rule:nonzero;"/><path d="M66.502,583.058l0,23.408l23.407,11.703l0,-23.407l-23.407,-11.704Z" style="fill:#fff;fill-rule:nonzero;"/><path d="M67.004,606.155l22.401,11.199l0,-22.281l-22.401,-11.202l0,22.284Zm22.904,12.517c-0.076,0 -0.154,-0.018 -0.224,-0.053l-23.408,-11.704c-0.17,-0.084 -0.278,-0.258 -0.278,-0.449l0,-23.409c0,-0.173 0.09,-0.336 0.239,-0.427c0.148,-0.092 0.333,-0.1 0.489,-0.023l23.407,11.705c0.171,0.085 0.278,0.259 0.278,0.449l0,23.408c0,0.174 -0.09,0.336 -0.239,0.427c-0.08,0.05 -0.172,0.076 -0.264,0.076" style="fill-rule:nonzero;"/><path d="M113.316,583.058l0,23.408l-23.407,11.703l0,-23.407l23.407,-11.704Z" style="fill-rule:nonzero;"/><path d="M90.412,595.073l0,22.281l22.401,-11.199l0,-22.284l-22.401,11.202Zm-0.503,23.599c-0.092,0 -0.184,-0.026 -0.264,-0.076c-0.148,-0.091 -0.239,-0.253 -0.239,-0.427l0,-23.408c0,-0.19 0.108,-0.364 0.278,-0.449l23.407,-11.705c0.155,-0.077 0.341,-0.069 0.489,0.023c0.149,0.091 0.239,0.254 0.239,0.427l0,23.409c0,0.191 -0.107,0.365 -0.278,0.449l-23.407,11.704c-0.071,0.035 -0.148,0.053 -0.225,0.053" style="fill-rule:nonzero;"/><path d="M48.946,580.132l40.963,-20.481l40.963,20.481l-40.963,20.481l-40.963,-20.481Zm40.963,-32.186l-58.518,29.259l58.518,29.261l58.518,-29.261l-58.518,-29.259Z" style="fill:#fff;fill-rule:nonzero;"/><path d="M50.07,580.132l39.838,19.919l39.839,-19.919l-39.839,-19.919l-39.838,19.919Zm39.838,20.984c-0.077,0 -0.154,-0.017 -0.224,-0.052l-40.964,-20.483c-0.17,-0.085 -0.277,-0.259 -0.277,-0.449c0,-0.19 0.107,-0.364 0.277,-0.45l40.964,-20.482c0.141,-0.07 0.308,-0.07 0.449,0l40.963,20.482c0.172,0.086 0.278,0.26 0.278,0.45c0,0.19 -0.106,0.364 -0.278,0.449l-40.963,20.483c-0.07,0.035 -0.147,0.052 -0.225,0.052m-57.393,-23.911l57.393,28.699l57.394,-28.699l-57.394,-28.696l-57.393,28.696Zm57.393,29.764c-0.077,0 -0.154,-0.018 -0.224,-0.054l-58.519,-29.26c-0.17,-0.085 -0.278,-0.259 -0.278,-0.45c0,-0.19 0.108,-0.363 0.278,-0.449l58.519,-29.26c0.141,-0.07 0.308,-0.07 0.449,0l58.519,29.26c0.169,0.086 0.277,0.259 0.277,0.449c0,0.191 -0.108,0.365 -0.277,0.45l-58.519,29.26c-0.07,0.036 -0.147,0.054 -0.225,0.054" style="fill-rule:nonzero;"/><path d="M31.391,577.205l0,5.853l58.518,29.258l0,-5.85l-58.518,-29.261Z" style="fill:#fff;fill-rule:nonzero;"/><path d="M31.894,582.747l57.512,28.756l0,-4.726l-57.512,-28.758l0,4.728Zm58.015,30.072c-0.077,0 -0.154,-0.017 -0.224,-0.052l-58.519,-29.26c-0.17,-0.085 -0.278,-0.258 -0.278,-0.449l0,-5.853c0,-0.174 0.09,-0.336 0.239,-0.428c0.148,-0.091 0.333,-0.099 0.489,-0.021l58.518,29.261c0.171,0.084 0.278,0.258 0.278,0.449l0,5.85c0,0.175 -0.09,0.336 -0.239,0.428c-0.08,0.05 -0.172,0.075 -0.264,0.075" style="fill-rule:nonzero;"/><path d="M148.427,577.205l0,5.853l-58.519,29.258l0,-5.85l58.519,-29.261Z" style="fill-rule:nonzero;"/><path d="M90.412,606.777l0,4.726l57.513,-28.756l0,-4.728l-57.513,28.758Zm-0.503,6.042c-0.092,0 -0.184,-0.025 -0.264,-0.075c-0.148,-0.092 -0.239,-0.253 -0.239,-0.428l0,-5.851c0,-0.19 0.108,-0.364 0.278,-0.449l58.519,-29.26c0.156,-0.079 0.34,-0.07 0.488,0.021c0.149,0.092 0.239,0.254 0.239,0.428l0,5.852c0,0.192 -0.108,0.365 -0.278,0.449l-58.518,29.26c-0.071,0.035 -0.148,0.053 -0.225,0.053" style="fill-rule:nonzero;"/><path d="M89.909,559.65l0,-5.852l-46.814,23.407l5.851,2.926l40.963,-20.481Z" style="fill-rule:nonzero;"/><path d="M44.218,577.205l4.728,2.364l40.46,-20.229l0,-4.727l-45.188,22.592Zm4.728,3.43c-0.078,0 -0.155,-0.018 -0.226,-0.054l-5.851,-2.926c-0.171,-0.085 -0.278,-0.26 -0.278,-0.45c0,-0.19 0.107,-0.363 0.278,-0.449l46.815,-23.407c0.155,-0.078 0.341,-0.07 0.489,0.022c0.148,0.091 0.238,0.254 0.238,0.428l0,5.851c0,0.192 -0.107,0.366 -0.277,0.451l-40.964,20.48c-0.07,0.036 -0.147,0.054 -0.224,0.054" style="fill-rule:nonzero;"/><path d="M130.872,580.132l5.852,-2.927l-46.815,-23.406l0,5.852l40.963,20.481Z" style="fill:#fff;fill-rule:nonzero;"/><path d="M90.412,559.34l40.46,20.229l4.728,-2.364l-45.188,-22.592l0,4.727Zm40.46,21.295c-0.077,0 -0.154,-0.018 -0.225,-0.054l-40.963,-20.48c-0.17,-0.085 -0.278,-0.259 -0.278,-0.45l0,-5.852c0,-0.174 0.091,-0.337 0.239,-0.428c0.148,-0.092 0.333,-0.099 0.489,-0.022l46.815,23.407c0.17,0.086 0.277,0.259 0.277,0.449c0,0.191 -0.107,0.365 -0.277,0.45l-5.852,2.926c-0.071,0.036 -0.147,0.054 -0.225,0.054" style="fill-rule:nonzero;"/><path d="M43.094,542.096l46.814,-23.408l46.815,23.408l-46.815,23.406l-46.814,-23.406Zm46.814,-29.261l-58.518,29.261l58.518,29.259l58.519,-29.259l-58.519,-29.261Z" style="fill:#fff;fill-rule:nonzero;"/><path d="M44.218,542.096l45.69,22.845l45.691,-22.845l-45.691,-22.846l-45.69,22.846Zm45.69,23.909c-0.077,0 -0.154,-0.017 -0.224,-0.053l-46.815,-23.407c-0.171,-0.084 -0.278,-0.258 -0.278,-0.449c0,-0.19 0.107,-0.364 0.278,-0.449l46.815,-23.409c0.141,-0.071 0.308,-0.071 0.45,0l46.814,23.409c0.17,0.085 0.277,0.259 0.277,0.449c0,0.191 -0.107,0.365 -0.277,0.449l-46.814,23.407c-0.071,0.036 -0.148,0.053 -0.226,0.053m-57.393,-23.909l57.393,28.696l57.394,-28.696l-57.394,-28.698l-57.393,28.698Zm57.393,29.762c-0.077,0 -0.154,-0.019 -0.224,-0.053l-58.519,-29.26c-0.17,-0.084 -0.278,-0.258 -0.278,-0.449c0,-0.19 0.108,-0.364 0.278,-0.449l58.519,-29.261c0.141,-0.07 0.308,-0.07 0.45,0l58.518,29.261c0.17,0.085 0.277,0.259 0.277,0.449c0,0.191 -0.107,0.365 -0.277,0.449l-58.518,29.26c-0.071,0.034 -0.148,0.053 -0.226,0.053" style="fill-rule:nonzero;"/><path d="M48.946,527.466l40.963,-20.482l40.963,20.482l-40.963,20.48l-40.963,-20.48Zm40.963,-32.186l-58.518,29.259l58.518,29.26l58.518,-29.26l-58.518,-29.259Z" style="fill:#fff;fill-rule:nonzero;"/><path d="M50.07,527.466l39.838,19.918l39.839,-19.918l-39.839,-19.92l-39.838,19.92Zm39.838,20.983c-0.077,0 -0.154,-0.017 -0.224,-0.052l-40.964,-20.482c-0.17,-0.085 -0.277,-0.259 -0.277,-0.449c0,-0.191 0.107,-0.365 0.277,-0.45l40.964,-20.482c0.141,-0.071 0.308,-0.071 0.449,0l40.963,20.482c0.172,0.085 0.278,0.259 0.278,0.45c0,0.19 -0.106,0.364 -0.278,0.449l-40.963,20.482c-0.07,0.035 -0.147,0.052 -0.225,0.052m-57.393,-23.91l57.393,28.698l57.394,-28.698l-57.394,-28.696l-57.393,28.696Zm57.393,29.763c-0.077,0 -0.154,-0.019 -0.224,-0.054l-58.519,-29.259c-0.17,-0.085 -0.278,-0.259 -0.278,-0.45c0,-0.19 0.108,-0.364 0.278,-0.449l58.519,-29.26c0.141,-0.07 0.308,-0.07 0.449,0l58.519,29.26c0.169,0.085 0.277,0.259 0.277,0.449c0,0.191 -0.108,0.365 -0.277,0.45l-58.519,29.259c-0.07,0.035 -0.147,0.054 -0.225,0.054" style="fill-rule:nonzero;"/><path d="M31.391,524.539l0,5.853l58.518,29.258l0,-5.851l-58.518,-29.26Z" style="fill:#fff;fill-rule:nonzero;"/><path d="M31.894,530.081l57.512,28.756l0,-4.728l-57.512,-28.756l0,4.728Zm58.015,30.072c-0.077,0 -0.154,-0.017 -0.224,-0.052l-58.519,-29.26c-0.17,-0.085 -0.278,-0.259 -0.278,-0.449l0,-5.853c0,-0.174 0.09,-0.336 0.239,-0.427c0.148,-0.092 0.333,-0.1 0.489,-0.022l58.518,29.259c0.171,0.085 0.278,0.259 0.278,0.45l0,5.851c0,0.175 -0.09,0.336 -0.239,0.428c-0.08,0.05 -0.172,0.075 -0.264,0.075" style="fill-rule:nonzero;"/><path d="M148.427,524.539l0,5.853l-58.519,29.258l0,-5.851l58.519,-29.26Z" style="fill-rule:nonzero;"/><path d="M90.412,554.109l0,4.728l57.513,-28.756l0,-4.728l-57.513,28.756Zm-0.503,6.044c-0.092,0 -0.184,-0.025 -0.264,-0.075c-0.148,-0.092 -0.239,-0.253 -0.239,-0.428l0,-5.852c0,-0.19 0.108,-0.365 0.278,-0.45l58.519,-29.259c0.156,-0.078 0.34,-0.069 0.488,0.023c0.149,0.091 0.239,0.253 0.239,0.427l0,5.852c0,0.191 -0.108,0.364 -0.278,0.449l-58.518,29.26c-0.071,0.035 -0.148,0.053 -0.225,0.053" style="fill-rule:nonzero;"/><path d="M89.909,506.983l0,-5.851l-46.814,23.407l5.851,2.926l40.963,-20.482Z" style="fill-rule:nonzero;"/><path d="M44.218,524.539l4.728,2.364l40.46,-20.23l0,-4.727l-45.188,22.593Zm4.728,3.43c-0.078,0 -0.155,-0.019 -0.226,-0.054l-5.851,-2.926c-0.171,-0.085 -0.278,-0.26 -0.278,-0.45c0,-0.19 0.107,-0.364 0.278,-0.449l46.815,-23.407c0.155,-0.078 0.341,-0.07 0.489,0.021c0.148,0.093 0.238,0.254 0.238,0.429l0,5.85c0,0.191 -0.107,0.367 -0.277,0.452l-40.964,20.48c-0.07,0.035 -0.147,0.054 -0.224,0.054" style="fill-rule:nonzero;"/><path d="M130.872,527.466l5.852,-2.927l-46.815,-23.406l0,5.851l40.963,20.482Z" style="fill:#fff;fill-rule:nonzero;"/><path d="M90.412,506.673l40.46,20.23l4.728,-2.364l-45.188,-22.593l0,4.727Zm40.46,21.296c-0.077,0 -0.154,-0.019 -0.225,-0.054l-40.963,-20.48c-0.17,-0.085 -0.278,-0.261 -0.278,-0.451l0,-5.851c0,-0.175 0.091,-0.336 0.239,-0.429c0.148,-0.091 0.333,-0.098 0.489,-0.021l46.815,23.407c0.17,0.085 0.277,0.259 0.277,0.449c0,0.191 -0.107,0.365 -0.277,0.45l-5.852,2.926c-0.071,0.035 -0.147,0.054 -0.225,0.054" style="fill-rule:nonzero;"/><path d="M66.502,501.133l23.407,-11.704l23.407,11.704l-23.407,11.702l-23.407,-11.702Z" style="fill:#fff;fill-rule:nonzero;"/><path d="M67.626,501.133l22.283,11.141l22.282,-11.141l-22.282,-11.142l-22.283,11.142Zm22.283,12.205c-0.077,0 -0.155,-0.017 -0.225,-0.053l-23.407,-11.703c-0.171,-0.086 -0.278,-0.259 -0.278,-0.449c0,-0.191 0.107,-0.365 0.278,-0.45l23.407,-11.704c0.141,-0.072 0.308,-0.072 0.45,0l23.407,11.704c0.17,0.085 0.278,0.259 0.278,0.45c0,0.19 -0.108,0.363 -0.278,0.449l-23.407,11.703c-0.071,0.036 -0.148,0.053 -0.225,0.053" style="fill-rule:nonzero;"/><path d="M66.502,501.133l0,35.11l23.407,11.703l0,-35.111l-23.407,-11.702Z" style="fill:#fff;fill-rule:nonzero;"/><path d="M67.004,535.933l22.401,11.2l0,-33.986l-22.401,-11.2l0,33.986Zm22.904,12.517c-0.076,0 -0.154,-0.018 -0.224,-0.053l-23.408,-11.703c-0.17,-0.086 -0.278,-0.26 -0.278,-0.45l0,-35.111c0,-0.175 0.09,-0.336 0.239,-0.429c0.148,-0.09 0.333,-0.098 0.489,-0.021l23.407,11.703c0.171,0.086 0.278,0.259 0.278,0.449l0,35.112c0,0.174 -0.09,0.336 -0.239,0.427c-0.08,0.05 -0.172,0.076 -0.264,0.076" style="fill-rule:nonzero;"/><path d="M113.316,501.133l0,35.11l-23.407,11.703l0,-35.111l23.407,-11.702Z" style="fill-rule:nonzero;"/><path d="M90.412,513.147l0,33.986l22.401,-11.201l0,-33.986l-22.401,11.201Zm-0.503,35.302c-0.092,0 -0.184,-0.026 -0.264,-0.075c-0.148,-0.091 -0.239,-0.253 -0.239,-0.428l0,-35.111c0,-0.191 0.108,-0.364 0.278,-0.45l23.407,-11.702c0.155,-0.077 0.341,-0.07 0.489,0.022c0.149,0.091 0.239,0.254 0.239,0.428l0,35.111c0,0.189 -0.107,0.363 -0.278,0.449l-23.407,11.704c-0.071,0.035 -0.148,0.053 -0.225,0.053" style="fill-rule:nonzero;"/><path d="M89.909,559.65l0,5.852l23.407,-11.704l0,-5.852l-23.407,11.704Z" style="fill-rule:nonzero;"/><path d="M90.412,559.961l0,4.728l22.401,-11.202l0,-4.727l-22.401,11.201Zm-0.503,6.044c-0.092,0 -0.184,-0.025 -0.264,-0.075c-0.148,-0.091 -0.239,-0.253 -0.239,-0.428l0,-5.852c0,-0.19 0.108,-0.364 0.278,-0.45l23.407,-11.704c0.155,-0.077 0.341,-0.069 0.489,0.023c0.149,0.091 0.239,0.254 0.239,0.427l0,5.853c0,0.19 -0.107,0.364 -0.278,0.449l-23.407,11.704c-0.071,0.035 -0.148,0.053 -0.225,0.053" style="fill-rule:nonzero;"/><path d="M66.502,547.946l0,5.853l23.407,11.703l0,-5.852l-23.407,-11.704Z" style="fill:#fff;fill-rule:nonzero;"/><path d="M67.004,553.487l22.401,11.201l0,-4.727l-22.401,-11.202l0,4.728Zm22.904,12.518c-0.076,0 -0.154,-0.018 -0.224,-0.053l-23.408,-11.704c-0.17,-0.085 -0.278,-0.259 -0.278,-0.449l0,-5.853c0,-0.174 0.09,-0.336 0.239,-0.428c0.148,-0.092 0.333,-0.099 0.489,-0.022l23.407,11.704c0.171,0.086 0.278,0.26 0.278,0.45l0,5.852c0,0.174 -0.09,0.337 -0.239,0.427c-0.08,0.05 -0.172,0.076 -0.264,0.076" style="fill-rule:nonzero;"/><path d="M66.502,565.502l0,5.853l23.407,11.703l0,-5.853l-23.407,-11.703Z" style="fill:#fff;fill-rule:nonzero;"/><path d="M67.004,571.043l22.401,11.201l0,-4.727l-22.401,-11.201l0,4.727Zm22.904,12.518c-0.076,0 -0.154,-0.018 -0.224,-0.054l-23.408,-11.702c-0.17,-0.085 -0.278,-0.261 -0.278,-0.45l0,-5.853c0,-0.174 0.09,-0.335 0.239,-0.428c0.148,-0.091 0.333,-0.099 0.489,-0.021l23.407,11.703c0.171,0.086 0.278,0.259 0.278,0.449l0,5.853c0,0.173 -0.09,0.336 -0.239,0.427c-0.08,0.05 -0.172,0.076 -0.264,0.076" style="fill-rule:nonzero;"/><path d="M148.427,542.096l0,23.406l-58.519,29.26l0,-23.407l58.519,-29.259Z" style="fill-rule:nonzero;"/><path d="M90.412,571.665l0,22.282l57.513,-28.756l0,-22.281l-57.513,28.755Zm-0.503,23.6c-0.092,0 -0.184,-0.026 -0.264,-0.076c-0.148,-0.091 -0.239,-0.253 -0.239,-0.427l0,-23.408c0,-0.19 0.108,-0.365 0.278,-0.45l58.519,-29.258c0.156,-0.078 0.34,-0.069 0.488,0.023c0.149,0.091 0.239,0.253 0.239,0.427l0,23.406c0,0.191 -0.108,0.364 -0.278,0.45l-58.518,29.259c-0.071,0.036 -0.148,0.054 -0.225,0.054" style="fill-rule:nonzero;"/><path d="M31.391,542.096l0,23.406l58.518,29.26l0,-23.407l-58.518,-29.259Z" style="fill:#fff;fill-rule:nonzero;"/><path d="M31.894,565.191l57.512,28.756l0,-22.282l-57.512,-28.755l0,22.281Zm58.015,30.073c-0.077,0 -0.154,-0.017 -0.224,-0.053l-58.519,-29.259c-0.17,-0.086 -0.278,-0.259 -0.278,-0.45l0,-23.407c0,-0.174 0.09,-0.336 0.239,-0.426c0.148,-0.092 0.333,-0.101 0.489,-0.023l58.518,29.258c0.171,0.085 0.278,0.26 0.278,0.45l0,23.407c0,0.174 -0.09,0.336 -0.239,0.428c-0.08,0.05 -0.172,0.075 -0.264,0.075" style="fill-rule:nonzero;"/><g opacity="0.5"><path d="M27.55,501.133l-4.023,0l0,-13.716l13.715,0l0,4.023l-9.692,0l0,9.693Z" style="fill:#fff;fill-rule:nonzero;"/><path d="M156.29,501.133l-4.023,0l0,-9.693l-9.692,0l0,-4.023l13.715,0l0,13.716Z" style="fill:#fff;fill-rule:nonzero;"/><path d="M37.242,620.181l-13.715,0l0,-13.715l4.023,0l0,9.692l9.692,0l0,4.023Z" style="fill:#fff;fill-rule:nonzero;"/><path d="M156.29,620.181l-13.715,0l0,-4.023l9.692,0l0,-9.692l4.023,0l0,13.715Z" style="fill:#fff;fill-rule:nonzero;"/></g></g><g opacity="0.05"><rect x="0" y="163.401" width="203" height="2.98" style="fill:#fff;"/></g><g opacity="0.05"><rect x="1399" y="163.401" width="201" height="2.98" style="fill:#fff;"/></g><g opacity="0.1"><rect x="177.322" y="-2" width="2.98" height="307" style="fill:#fff;"/></g><g opacity="0.1"><rect x="1419.7" y="-2" width="2.98" height="301.038" style="fill:#fff;"/></g><g opacity="0.1"><rect x="177.322" y="818.534" width="2.98" height="781.466" style="fill:#fff;"/></g><g opacity="0.1"><rect x="1420.28" y="815.534" width="2.98" height="784.466" style="fill:#fff;"/></g><g opacity="0.1"><rect x="0" y="864.728" width="202.653" height="2.98" style="fill:#fff;"/></g><rect x="172.851" y="264.372" width="11.921" height="2.98" style="fill:#595959;"/><rect x="177.322" y="259.901" width="2.98" height="11.921" style="fill:#595959;"/><rect x="1415.23" y="264.372" width="11.921" height="2.98" style="fill:#595959;"/><rect x="1419.7" y="259.901" width="2.98" height="11.921" style="fill:#595959;"/><rect x="1415.23" y="163.401" width="11.921" height="2.98" style="fill:#595959;"/><rect x="1419.7" y="158.931" width="2.98" height="11.921" style="fill:#595959;"/><rect x="172.851" y="163.401" width="11.921" height="2.98" style="fill:#595959;"/><rect x="177.322" y="158.931" width="2.98" height="11.921" style="fill:#595959;"/><rect x="172.851" y="864.728" width="11.921" height="2.98" style="fill:#595959;"/><rect x="177.322" y="860.257" width="2.98" height="11.921" style="fill:#595959;"/><rect x="1415.81" y="862.728" width="11.921" height="2.98" style="fill:#595959;"/><rect x="1420.28" y="858.257" width="2.98" height="11.921" style="fill:#595959;"/><g opacity="0.1"><path d="M1428.8,916.794c3.431,-3.414 5.361,-5.469 5.361,-7.31c0,-1.304 -0.715,-2.233 -2.162,-2.233c-0.948,0 -1.769,0.608 -2.429,1.377l-0.842,-0.842c0.947,-1.036 1.967,-1.732 3.449,-1.732c2.11,0 3.414,1.34 3.414,3.359c0,2.146 -1.947,4.273 -4.646,7.096c0.626,-0.053 1.322,-0.108 1.912,-0.108l3.305,0l0,1.269l-7.362,0l0,-0.876Z" style="fill:#fff;fill-rule:nonzero;"/><path d="M1438.19,915.311c0.68,0.714 1.573,1.357 2.913,1.357c1.375,0 2.359,-0.82 2.359,-2.089c0,-1.36 -0.93,-2.27 -3.645,-2.27l0,-1.127c2.43,0 3.233,-0.928 3.233,-2.127c0,-1.107 -0.749,-1.805 -1.964,-1.805c-0.948,0 -1.752,0.484 -2.43,1.162l-0.787,-0.929c0.876,-0.822 1.93,-1.43 3.269,-1.43c1.986,0 3.414,1.055 3.414,2.897c0,1.374 -0.84,2.25 -2.074,2.715l0,0.07c1.378,0.323 2.467,1.324 2.467,2.896c0,2.02 -1.661,3.252 -3.751,3.252c-1.825,0 -2.986,-0.766 -3.755,-1.607l0.751,-0.965Z" style="fill:#fff;fill-rule:nonzero;"/><path d="M1448.1,915.633c0.572,0 1.056,0.464 1.056,1.144c0,0.643 -0.484,1.107 -1.056,1.107c-0.589,0 -1.072,-0.464 -1.072,-1.107c0,-0.68 0.483,-1.144 1.072,-1.144" style="fill:#fff;fill-rule:nonzero;"/><path d="M1455.75,913.345l0,-3.306c0,-0.608 0.054,-1.59 0.089,-2.197l-0.069,0c-0.288,0.553 -0.609,1.054 -0.932,1.607l-2.662,3.896l3.574,0Zm2.95,1.18l-1.555,0l0,3.145l-1.395,0l0,-3.145l-5.129,0l0,-0.964l4.879,-7.293l1.645,0l0,7.077l1.555,0l0,1.18Z" style="fill:#fff;fill-rule:nonzero;"/><path d="M1459.92,916.794c3.432,-3.414 5.361,-5.469 5.361,-7.31c0,-1.304 -0.715,-2.233 -2.163,-2.233c-0.947,0 -1.769,0.608 -2.429,1.377l-0.841,-0.842c0.947,-1.036 1.967,-1.732 3.45,-1.732c2.108,0 3.412,1.34 3.412,3.359c0,2.146 -1.947,4.273 -4.644,7.096c0.625,-0.053 1.321,-0.108 1.912,-0.108l3.305,0l0,1.269l-7.363,0l0,-0.876Z" style="fill:#fff;fill-rule:nonzero;"/></g><g opacity="0.4"><path d="M1428.73,897.927l5.961,0l0,-20.862l20.861,0l0,-5.96l-26.822,0l0,26.822Z" style="fill:#fff;fill-rule:nonzero;"/><path d="M1457.66,895.819l-4.215,4.214l-23.841,-23.841l4.214,-4.215l23.842,23.842Z" style="fill:#fff;"/></g><g opacity="0.1"><rect x="1394.67" y="863.218" width="217.83" height="2.98" style="fill:#fff;"/></g><g opacity="0.05"><rect x="0" y="264.372" width="206.667" height="2.98" style="fill:#fff;"/></g><g opacity="0.15"><path d="M102.275,344.613l35.593,-17.796l11.864,5.933l-35.592,17.797l-11.865,-5.934Z" style="fill:#fff;fill-rule:nonzero;stroke:#000;stroke-width:2px;"/><path d="M114.14,362.411l35.592,-17.797l0,-11.864l-35.592,17.797l0,11.864Z" style="fill-rule:nonzero;stroke:#000;stroke-width:2px;"/><path d="M31.09,332.75l11.865,-5.933l23.728,11.865l-11.864,5.931l-23.729,-11.863Z" style="fill:#fff;fill-rule:nonzero;stroke:#000;stroke-width:2px;"/><path d="M90.412,403.935l-23.728,-11.864l23.728,-11.864l23.729,11.864l-23.729,11.864Z" style="fill:#fff;fill-rule:nonzero;stroke:#000;stroke-width:2px;"/><path d="M66.684,392.071l0,23.729l23.728,11.864l0,-23.729l-23.728,-11.864Z" style="fill:#fff;fill-rule:nonzero;stroke:#000;stroke-width:2px;"/><path d="M90.412,403.935l23.729,-11.864l0,23.729l-23.729,11.864l0,-23.729Z" style="fill-rule:nonzero;stroke:#000;stroke-width:2px;"/><path d="M54.819,368.342l11.865,-5.932l59.321,29.661l-11.865,5.932l-59.321,-29.661Z" style="fill:#fff;fill-rule:nonzero;stroke:#000;stroke-width:2px;"/><path d="M54.819,320.886l11.865,-5.933l59.321,29.66l-11.865,5.934l-59.321,-29.661Z" style="fill:#fff;fill-rule:nonzero;stroke:#000;stroke-width:2px;"/><path d="M66.684,374.274l11.865,-5.932l0,-23.729l-11.865,-5.931l0,35.592Z" style="fill-rule:nonzero;stroke:#000;stroke-width:2px;"/><path d="M114.14,350.547l11.865,-5.934l0,59.322l-11.865,5.932l0,-59.32Z" style="fill-rule:nonzero;stroke:#000;stroke-width:2px;"/><path d="M102.275,392.071l-35.592,-17.797l0,-35.592l35.592,17.797l0,35.592Zm11.865,-17.797l0,-11.863l0,-11.864l-59.322,-29.661l0,23.727l-23.728,-11.863l0,11.863l23.728,11.866l0,23.728l59.322,29.66l0,-11.863l0,-11.865l23.728,11.865l0,-11.865l-23.728,-11.865Z" style="fill:#fff;fill-rule:nonzero;stroke:#000;stroke-width:2px;"/><path d="M114.14,374.274l11.865,-5.932l23.727,11.865l-11.863,5.932l-23.729,-11.865Z" style="fill:#fff;fill-rule:nonzero;stroke:#000;stroke-width:2px;"/><path d="M137.869,398.003l11.864,-5.933l0,-11.863l-11.864,5.931l0,11.865Z" style="fill-rule:nonzero;stroke:#000;stroke-width:2px;"/><path d="M90.412,320.886l-23.728,-11.865l23.728,-11.864l23.729,11.864l-23.729,11.865Z" style="fill:#fff;fill-rule:nonzero;stroke:#000;stroke-width:2px;"/><path d="M66.684,309.021l0,23.729l23.728,11.863l0,-23.727l-23.728,-11.865Z" style="fill:#fff;fill-rule:nonzero;stroke:#000;stroke-width:2px;"/><path d="M90.412,320.886l23.729,-11.865l0,23.729l-23.729,11.863l0,-23.727Z" style="fill-rule:nonzero;stroke:#000;stroke-width:2px;"/><path d="M31.09,380.207l11.865,5.932l0,11.864l-11.865,-5.932l0,-11.864Z" style="fill:#fff;fill-rule:nonzero;stroke:#000;stroke-width:2px;"/><path d="M31.09,380.207l59.321,-29.66l11.864,5.931l-59.32,29.661l-11.865,-5.932Z" style="fill:#fff;fill-rule:nonzero;stroke:#000;stroke-width:2px;"/><path d="M42.955,398.003l59.32,-29.661l0,-11.864l-59.32,29.66l0,11.865Z" style="fill-rule:nonzero;stroke:#000;stroke-width:2px;"/><g opacity="0.5"><path d="M25.158,309.021l0,-11.865l11.865,0" style="fill:none;fill-rule:nonzero;stroke:#fff;stroke-width:4px;stroke-linecap:butt;stroke-linejoin:miter;"/><path d="M155.665,309.021l0,-11.865l-11.865,0" style="fill:none;fill-rule:nonzero;stroke:#fff;stroke-width:4px;stroke-linecap:butt;stroke-linejoin:miter;"/><path d="M25.158,415.799l0,11.865l11.865,0" style="fill:none;fill-rule:nonzero;stroke:#fff;stroke-width:4px;stroke-linecap:butt;stroke-linejoin:miter;"/><path d="M155.665,415.799l0,11.865l-11.865,0" style="fill:none;fill-rule:nonzero;stroke:#fff;stroke-width:4px;stroke-linecap:butt;stroke-linejoin:miter;"/></g></g><g opacity="0.15"><path d="M1452.89,577.239l58.518,-29.259l58.518,29.259l-58.518,29.261l-58.518,-29.261Z" style="fill:#fff;fill-rule:nonzero;"/><path d="M1454.02,577.239l57.394,28.698l57.393,-28.698l-57.393,-28.697l-57.394,28.697Zm57.394,29.764c-0.078,0 -0.155,-0.018 -0.225,-0.054l-58.519,-29.26c-0.171,-0.086 -0.278,-0.26 -0.278,-0.45c0,-0.191 0.107,-0.364 0.278,-0.45l58.519,-29.259c0.141,-0.071 0.309,-0.071 0.449,0l58.519,29.259c0.171,0.086 0.278,0.259 0.278,0.45c0,0.19 -0.107,0.364 -0.278,0.45l-58.519,29.26c-0.07,0.036 -0.147,0.054 -0.224,0.054" style="fill-rule:nonzero;"/><path d="M1488,507.017l23.407,-11.703l23.407,11.703l-23.407,11.704l-23.407,-11.704Z" style="fill:#fff;fill-rule:nonzero;"/><path d="M1489.13,507.017l22.283,11.142l22.283,-11.142l-22.283,-11.14l-22.283,11.14Zm22.283,12.207c-0.077,0 -0.154,-0.018 -0.224,-0.053l-23.408,-11.703c-0.171,-0.085 -0.278,-0.261 -0.278,-0.451c0,-0.19 0.107,-0.364 0.278,-0.449l23.408,-11.704c0.14,-0.071 0.308,-0.071 0.449,0l23.408,11.704c0.17,0.085 0.277,0.259 0.277,0.449c0,0.19 -0.107,0.366 -0.277,0.451l-23.408,11.703c-0.071,0.035 -0.148,0.053 -0.225,0.053" style="fill-rule:nonzero;"/><path d="M1499.71,495.314l11.703,5.852l11.703,-5.852l-11.703,-5.852l-11.703,5.852Z" style="fill:#fff;fill-rule:nonzero;"/><path d="M1500.83,495.314l10.579,5.29l10.58,-5.29l-10.58,-5.289l-10.579,5.289Zm10.579,6.355c-0.077,0 -0.154,-0.018 -0.225,-0.053l-11.704,-5.852c-0.17,-0.085 -0.277,-0.259 -0.277,-0.45c0,-0.19 0.107,-0.365 0.277,-0.45l11.704,-5.852c0.141,-0.071 0.309,-0.071 0.45,0l11.704,5.852c0.17,0.085 0.278,0.26 0.278,0.45c0,0.191 -0.108,0.365 -0.278,0.45l-11.704,5.852c-0.071,0.035 -0.148,0.053 -0.225,0.053" style="fill-rule:nonzero;"/><path d="M1499.71,495.314l0,11.703l11.703,5.852l0,-11.703l-11.703,-5.852Z" style="fill:#fff;fill-rule:nonzero;"/><path d="M1500.21,506.707l10.698,5.348l0,-10.578l-10.698,-5.349l0,10.579Zm11.201,6.665c-0.076,0 -0.154,-0.019 -0.224,-0.053l-11.705,-5.851c-0.169,-0.085 -0.277,-0.26 -0.277,-0.45l0,-11.704c0,-0.174 0.09,-0.337 0.238,-0.427c0.148,-0.093 0.333,-0.1 0.49,-0.022l11.703,5.852c0.171,0.085 0.278,0.259 0.278,0.449l0,11.704c0,0.174 -0.091,0.336 -0.239,0.427c-0.08,0.05 -0.172,0.076 -0.264,0.076" style="fill-rule:nonzero;"/><path d="M1511.41,512.869l11.703,-5.852l0,-11.703l-11.703,5.852l0,11.703Z" style="fill-rule:nonzero;"/><path d="M1511.91,501.477l0,10.579l10.698,-5.349l0,-10.579l-10.698,5.349Zm-0.503,11.896c-0.092,0 -0.184,-0.026 -0.264,-0.076c-0.148,-0.091 -0.239,-0.253 -0.239,-0.427l0,-11.704c0,-0.19 0.109,-0.364 0.278,-0.449l11.704,-5.852c0.156,-0.078 0.34,-0.071 0.49,0.022c0.147,0.091 0.238,0.253 0.238,0.427l0,11.704c0,0.19 -0.108,0.365 -0.278,0.45l-11.704,5.851c-0.071,0.035 -0.149,0.054 -0.225,0.054" style="fill-rule:nonzero;"/><path d="M1499.71,547.98l11.703,5.852l11.703,-5.852l-11.703,-5.85l-11.703,5.85Z" style="fill:#fff;fill-rule:nonzero;"/><path d="M1500.83,547.98l10.579,5.29l10.578,-5.29l-10.578,-5.288l-10.579,5.288Zm10.579,6.355c-0.077,0 -0.154,-0.018 -0.225,-0.053l-11.704,-5.852c-0.17,-0.085 -0.277,-0.26 -0.277,-0.45c0,-0.19 0.107,-0.365 0.277,-0.45l11.704,-5.85c0.141,-0.071 0.309,-0.071 0.45,0l11.704,5.85c0.17,0.085 0.278,0.26 0.278,0.45c0,0.19 -0.108,0.365 -0.278,0.45l-11.704,5.852c-0.071,0.035 -0.148,0.053 -0.225,0.053" style="fill-rule:nonzero;"/><path d="M1488,536.277l23.407,-11.704l23.407,11.704l-23.407,11.703l-23.407,-11.703Z" style="fill:#fff;fill-rule:nonzero;"/><path d="M1489.13,536.277l22.283,11.141l22.283,-11.141l-22.283,-11.141l-22.283,11.141Zm22.283,12.206c-0.077,0 -0.154,-0.018 -0.224,-0.053l-23.408,-11.703c-0.171,-0.085 -0.278,-0.26 -0.278,-0.45c0,-0.19 0.107,-0.364 0.278,-0.45l23.408,-11.704c0.14,-0.07 0.308,-0.07 0.449,0l23.408,11.704c0.17,0.086 0.277,0.26 0.277,0.45c0,0.19 -0.107,0.365 -0.277,0.45l-23.408,11.703c-0.071,0.035 -0.148,0.053 -0.225,0.053" style="fill-rule:nonzero;"/><path d="M1499.71,547.98l0,11.704l11.703,5.852l0,-11.704l-11.703,-5.852Z" style="fill:#fff;fill-rule:nonzero;"/><path d="M1500.21,559.373l10.698,5.349l0,-10.578l-10.698,-5.35l0,10.579Zm11.201,6.666c-0.076,0 -0.154,-0.018 -0.224,-0.053l-11.705,-5.852c-0.169,-0.085 -0.277,-0.259 -0.277,-0.45l0,-11.704c0,-0.174 0.09,-0.336 0.238,-0.428c0.148,-0.092 0.333,-0.099 0.49,-0.022l11.703,5.852c0.171,0.086 0.278,0.26 0.278,0.45l0,11.704c0,0.174 -0.091,0.336 -0.239,0.427c-0.08,0.051 -0.172,0.076 -0.264,0.076" style="fill-rule:nonzero;"/><path d="M1511.41,565.536l11.703,-5.852l0,-11.704l-11.703,5.852l0,11.704Z" style="fill:#fff;fill-rule:nonzero;"/><path d="M1511.91,554.144l0,10.579l10.698,-5.35l0,-10.579l-10.698,5.35Zm-0.503,11.896c-0.092,0 -0.184,-0.026 -0.264,-0.076c-0.148,-0.091 -0.239,-0.253 -0.239,-0.427l0,-11.705c0,-0.19 0.109,-0.364 0.278,-0.449l11.704,-5.852c0.156,-0.078 0.34,-0.071 0.49,0.022c0.147,0.091 0.238,0.253 0.238,0.427l0,11.705c0,0.19 -0.108,0.364 -0.278,0.449l-11.704,5.852c-0.071,0.035 -0.149,0.054 -0.225,0.054" style="fill-rule:nonzero;"/><path d="M1488,507.017l0,23.408l23.407,11.705l0,-23.409l-23.407,-11.704Z" style="fill:#fff;fill-rule:nonzero;"/><path d="M1488.51,530.114l22.401,11.202l0,-22.285l-22.401,-11.2l0,22.283Zm22.904,12.518c-0.076,0 -0.154,-0.018 -0.224,-0.053l-23.408,-11.704c-0.17,-0.086 -0.278,-0.26 -0.278,-0.45l0,-23.408c0,-0.174 0.09,-0.336 0.238,-0.427c0.149,-0.092 0.334,-0.1 0.491,-0.022l23.406,11.703c0.171,0.085 0.278,0.26 0.278,0.45l0,23.409c0,0.174 -0.091,0.336 -0.239,0.427c-0.08,0.051 -0.172,0.075 -0.264,0.075" style="fill-rule:nonzero;"/><path d="M1534.82,507.017l0,23.408l-23.407,11.705l0,-23.409l23.407,-11.704Z" style="fill-rule:nonzero;"/><path d="M1511.91,519.032l0,22.284l22.401,-11.201l0,-22.283l-22.401,11.2Zm-0.503,23.601c-0.092,0 -0.184,-0.025 -0.264,-0.076c-0.148,-0.091 -0.239,-0.253 -0.239,-0.427l0,-23.409c0,-0.19 0.109,-0.364 0.278,-0.45l23.407,-11.703c0.156,-0.077 0.342,-0.069 0.49,0.022c0.148,0.091 0.238,0.254 0.238,0.427l0,23.408c0,0.19 -0.107,0.365 -0.277,0.45l-23.408,11.704c-0.071,0.036 -0.149,0.054 -0.225,0.054" style="fill-rule:nonzero;"/><path d="M1488,536.277l0,11.703l23.407,11.704l0,-11.704l-23.407,-11.703Z" style="fill:#fff;fill-rule:nonzero;"/><path d="M1488.51,547.669l22.401,11.201l0,-10.579l-22.401,-11.201l0,10.579Zm22.904,12.518c-0.076,0 -0.154,-0.018 -0.224,-0.054l-23.408,-11.704c-0.17,-0.085 -0.278,-0.259 -0.278,-0.449l0,-11.704c0,-0.173 0.09,-0.335 0.238,-0.427c0.149,-0.092 0.334,-0.099 0.491,-0.022l23.406,11.703c0.171,0.085 0.278,0.259 0.278,0.45l0,11.704c0,0.174 -0.091,0.336 -0.239,0.427c-0.08,0.05 -0.172,0.076 -0.264,0.076" style="fill-rule:nonzero;"/><path d="M1534.82,536.277l-23.407,11.703l0,11.704l23.407,-11.704l0,-11.703Z" style="fill:#fff;fill-rule:nonzero;"/><path d="M1511.91,548.291l0,10.579l22.401,-11.201l0,-10.578l-22.401,11.2Zm-0.503,11.896c-0.092,0 -0.184,-0.025 -0.264,-0.075c-0.148,-0.092 -0.239,-0.254 -0.239,-0.428l0,-11.704c0,-0.19 0.109,-0.365 0.278,-0.45l23.407,-11.703c0.156,-0.077 0.342,-0.069 0.49,0.023c0.148,0.091 0.238,0.253 0.238,0.427l0,11.703c0,0.19 -0.107,0.365 -0.277,0.45l-23.408,11.704c-0.071,0.035 -0.149,0.053 -0.225,0.053" style="fill-rule:nonzero;"/><path d="M1452.89,524.573l23.406,-11.704l23.408,11.704l-23.408,11.704l-23.406,-11.704Z" style="fill:#fff;fill-rule:nonzero;"/><path d="M1454.02,524.573l22.282,11.142l22.283,-11.142l-22.283,-11.142l-22.282,11.142Zm22.282,12.207c-0.076,0 -0.154,-0.018 -0.224,-0.053l-23.408,-11.704c-0.171,-0.085 -0.278,-0.26 -0.278,-0.45c0,-0.191 0.107,-0.365 0.278,-0.45l23.408,-11.704c0.141,-0.071 0.308,-0.071 0.449,0l23.408,11.704c0.17,0.085 0.277,0.259 0.277,0.45c0,0.19 -0.107,0.365 -0.277,0.45l-23.408,11.704c-0.07,0.035 -0.148,0.053 -0.225,0.053" style="fill-rule:nonzero;"/><path d="M1464.6,512.869l11.703,5.852l11.704,-5.852l-11.704,-5.852l-11.703,5.852Z" style="fill:#fff;fill-rule:nonzero;"/><path d="M1465.72,512.869l10.579,5.29l10.58,-5.29l-10.58,-5.289l-10.579,5.289Zm10.579,6.355c-0.076,0 -0.154,-0.018 -0.225,-0.053l-11.703,-5.852c-0.171,-0.086 -0.278,-0.26 -0.278,-0.45c0,-0.191 0.107,-0.364 0.278,-0.45l11.703,-5.851c0.142,-0.072 0.309,-0.072 0.45,0l11.705,5.851c0.17,0.086 0.277,0.259 0.277,0.45c0,0.19 -0.107,0.364 -0.277,0.45l-11.705,5.852c-0.071,0.035 -0.148,0.053 -0.225,0.053" style="fill-rule:nonzero;"/><path d="M1464.6,512.869l0,11.704l11.703,5.852l0,-11.704l-11.703,-5.852Z" style="fill:#fff;fill-rule:nonzero;"/><path d="M1465.1,524.262l10.698,5.349l0,-10.579l-10.698,-5.35l0,10.58Zm11.2,6.666c-0.076,0 -0.154,-0.018 -0.224,-0.053l-11.704,-5.852c-0.17,-0.085 -0.278,-0.26 -0.278,-0.45l0,-11.704c0,-0.174 0.091,-0.336 0.238,-0.428c0.148,-0.091 0.334,-0.1 0.49,-0.022l11.703,5.852c0.171,0.085 0.279,0.26 0.279,0.45l0,11.704c0,0.174 -0.091,0.336 -0.239,0.427c-0.081,0.05 -0.173,0.076 -0.265,0.076" style="fill-rule:nonzero;"/><path d="M1476.3,530.425l11.704,-5.852l0,-11.704l-11.704,5.852l0,11.704Z" style="fill-rule:nonzero;"/><path d="M1476.8,519.032l0,10.58l10.697,-5.35l0,-10.579l-10.697,5.349Zm-0.504,11.896c-0.092,0 -0.183,-0.025 -0.264,-0.075c-0.148,-0.092 -0.238,-0.253 -0.238,-0.428l0,-11.704c0,-0.19 0.108,-0.364 0.277,-0.45l11.705,-5.852c0.156,-0.078 0.34,-0.069 0.489,0.023c0.148,0.091 0.238,0.253 0.238,0.427l0,11.705c0,0.19 -0.107,0.364 -0.277,0.449l-11.705,5.852c-0.071,0.035 -0.149,0.053 -0.225,0.053" style="fill-rule:nonzero;"/><path d="M1464.6,565.536l11.703,5.852l11.704,-5.852l-11.704,-5.852l-11.703,5.852Z" style="fill:#fff;fill-rule:nonzero;"/><path d="M1465.72,565.536l10.579,5.289l10.58,-5.289l-10.58,-5.289l-10.579,5.289Zm10.579,6.354c-0.076,0 -0.154,-0.018 -0.225,-0.052l-11.703,-5.852c-0.171,-0.086 -0.278,-0.259 -0.278,-0.45c0,-0.19 0.107,-0.364 0.278,-0.449l11.703,-5.853c0.142,-0.071 0.309,-0.071 0.45,0l11.705,5.853c0.17,0.085 0.277,0.259 0.277,0.449c0,0.191 -0.107,0.364 -0.277,0.45l-11.705,5.852c-0.071,0.034 -0.148,0.052 -0.225,0.052" style="fill-rule:nonzero;"/><path d="M1452.89,553.832l23.406,-11.702l23.408,11.702l-23.408,11.704l-23.406,-11.704Z" style="fill:#fff;fill-rule:nonzero;"/><path d="M1454.02,553.832l22.282,11.142l22.283,-11.142l-22.283,-11.14l-22.282,11.14Zm22.282,12.207c-0.076,0 -0.154,-0.018 -0.224,-0.053l-23.408,-11.704c-0.171,-0.086 -0.278,-0.259 -0.278,-0.45c0,-0.19 0.107,-0.364 0.278,-0.45l23.408,-11.702c0.141,-0.071 0.308,-0.071 0.449,0l23.408,11.702c0.17,0.086 0.277,0.26 0.277,0.45c0,0.191 -0.107,0.364 -0.277,0.45l-23.408,11.704c-0.07,0.035 -0.148,0.053 -0.225,0.053" style="fill-rule:nonzero;"/><path d="M1464.6,565.536l0,11.703l11.703,5.852l0,-11.703l-11.703,-5.852Z" style="fill:#fff;fill-rule:nonzero;"/><path d="M1465.1,576.928l10.698,5.349l0,-10.579l-10.698,-5.349l0,10.579Zm11.2,6.666c-0.076,0 -0.154,-0.018 -0.224,-0.053l-11.704,-5.852c-0.17,-0.086 -0.278,-0.26 -0.278,-0.45l0,-11.703c0,-0.174 0.09,-0.336 0.238,-0.428c0.148,-0.092 0.334,-0.099 0.49,-0.021l11.703,5.851c0.171,0.085 0.279,0.259 0.279,0.449l0,11.704c0,0.174 -0.091,0.336 -0.239,0.428c-0.081,0.05 -0.173,0.075 -0.265,0.075" style="fill-rule:nonzero;"/><path d="M1476.3,583.091l11.704,-5.852l0,-11.703l-11.704,5.852l0,11.703Z" style="fill-rule:nonzero;"/><path d="M1476.8,571.698l0,10.579l10.697,-5.349l0,-10.579l-10.697,5.349Zm-0.504,11.896c-0.092,0 -0.183,-0.025 -0.264,-0.075c-0.148,-0.092 -0.238,-0.254 -0.238,-0.428l0,-11.704c0,-0.19 0.108,-0.364 0.277,-0.449l11.705,-5.851c0.156,-0.078 0.34,-0.071 0.489,0.021c0.148,0.092 0.238,0.254 0.238,0.428l0,11.703c0,0.19 -0.107,0.364 -0.277,0.45l-11.705,5.852c-0.071,0.035 -0.149,0.053 -0.225,0.053" style="fill-rule:nonzero;"/><path d="M1452.89,524.573l0,23.407l23.406,11.704l0,-23.407l-23.406,-11.704Z" style="fill:#fff;fill-rule:nonzero;"/><path d="M1453.4,547.669l22.402,11.201l0,-22.283l-22.402,-11.2l0,22.282Zm22.904,12.518c-0.076,0 -0.154,-0.018 -0.224,-0.054l-23.409,-11.704c-0.169,-0.085 -0.277,-0.259 -0.277,-0.449l0,-23.407c0,-0.174 0.091,-0.336 0.239,-0.427c0.148,-0.093 0.333,-0.101 0.49,-0.023l23.406,11.704c0.171,0.085 0.279,0.259 0.279,0.449l0,23.408c0,0.174 -0.091,0.336 -0.239,0.427c-0.081,0.05 -0.173,0.076 -0.265,0.076" style="fill-rule:nonzero;"/><path d="M1499.71,524.573l0,23.407l-23.408,11.704l0,-23.407l23.408,-11.704Z" style="fill-rule:nonzero;"/><path d="M1476.8,536.588l0,22.282l22.401,-11.2l0,-22.283l-22.401,11.201Zm-0.504,23.599c-0.092,0 -0.183,-0.025 -0.264,-0.075c-0.148,-0.092 -0.238,-0.253 -0.238,-0.428l0,-23.407c0,-0.19 0.108,-0.364 0.277,-0.45l23.408,-11.704c0.155,-0.077 0.341,-0.069 0.49,0.023c0.147,0.091 0.237,0.254 0.237,0.427l0,23.407c0,0.191 -0.107,0.365 -0.277,0.45l-23.408,11.704c-0.071,0.035 -0.149,0.053 -0.225,0.053" style="fill-rule:nonzero;"/><path d="M1452.89,553.832l0,11.704l23.406,11.703l0,-11.703l-23.406,-11.704Z" style="fill:#fff;fill-rule:nonzero;"/><path d="M1453.4,565.225l22.402,11.2l0,-10.578l-22.402,-11.201l0,10.579Zm22.904,12.517c-0.076,0 -0.154,-0.017 -0.224,-0.053l-23.409,-11.703c-0.169,-0.086 -0.277,-0.259 -0.277,-0.45l0,-11.704c0,-0.174 0.091,-0.336 0.239,-0.428c0.148,-0.092 0.333,-0.099 0.49,-0.022l23.406,11.705c0.171,0.085 0.279,0.259 0.279,0.449l0,11.703c0,0.174 -0.091,0.336 -0.239,0.428c-0.081,0.05 -0.173,0.075 -0.265,0.075" style="fill-rule:nonzero;"/><path d="M1499.71,553.832l-23.408,11.704l0,11.703l23.408,-11.703l0,-11.704Z" style="fill-rule:nonzero;"/><path d="M1476.8,565.847l0,10.578l22.401,-11.2l0,-10.579l-22.401,11.201Zm-0.504,11.895c-0.092,0 -0.183,-0.025 -0.264,-0.075c-0.148,-0.092 -0.238,-0.254 -0.238,-0.428l0,-11.703c0,-0.19 0.108,-0.364 0.277,-0.449l23.408,-11.705c0.155,-0.077 0.341,-0.07 0.49,0.022c0.147,0.092 0.237,0.254 0.237,0.428l0,11.704c0,0.191 -0.107,0.364 -0.277,0.45l-23.408,11.703c-0.071,0.035 -0.149,0.053 -0.225,0.053" style="fill-rule:nonzero;"/><path d="M1523.11,524.573l23.408,-11.704l23.407,11.704l-23.407,11.704l-23.408,-11.704Z" style="fill:#fff;fill-rule:nonzero;"/><path d="M1524.24,524.573l22.283,11.142l22.282,-11.142l-22.282,-11.142l-22.283,11.142Zm22.283,12.207c-0.077,0 -0.154,-0.018 -0.224,-0.053l-23.409,-11.704c-0.17,-0.085 -0.277,-0.26 -0.277,-0.45c0,-0.191 0.107,-0.365 0.277,-0.45l23.409,-11.704c0.14,-0.071 0.308,-0.071 0.449,0l23.407,11.704c0.171,0.085 0.278,0.259 0.278,0.45c0,0.19 -0.107,0.365 -0.278,0.45l-23.407,11.704c-0.071,0.035 -0.149,0.053 -0.225,0.053" style="fill-rule:nonzero;"/><path d="M1534.82,512.869l11.704,5.852l11.703,-5.852l-11.703,-5.852l-11.704,5.852Z" style="fill:#fff;fill-rule:nonzero;"/><path d="M1535.94,512.869l10.58,5.29l10.579,-5.29l-10.579,-5.289l-10.58,5.289Zm10.58,6.355c-0.077,0 -0.154,-0.018 -0.225,-0.053l-11.705,-5.852c-0.17,-0.086 -0.277,-0.26 -0.277,-0.45c0,-0.191 0.107,-0.364 0.277,-0.45l11.705,-5.851c0.141,-0.072 0.309,-0.072 0.45,0l11.703,5.851c0.171,0.086 0.279,0.259 0.279,0.45c0,0.19 -0.108,0.364 -0.279,0.45l-11.703,5.852c-0.071,0.035 -0.149,0.053 -0.225,0.053" style="fill-rule:nonzero;"/><path d="M1534.82,512.869l0,11.704l11.704,5.852l0,-11.704l-11.704,-5.852Z" style="fill:#fff;fill-rule:nonzero;"/><path d="M1535.32,524.262l10.697,5.349l0,-10.579l-10.697,-5.35l0,10.58Zm11.201,6.666c-0.076,0 -0.154,-0.018 -0.224,-0.053l-11.706,-5.852c-0.169,-0.085 -0.277,-0.26 -0.277,-0.45l0,-11.704c0,-0.174 0.09,-0.336 0.238,-0.428c0.149,-0.091 0.334,-0.1 0.491,-0.022l11.703,5.852c0.17,0.085 0.277,0.26 0.277,0.45l0,11.704c0,0.174 -0.09,0.336 -0.238,0.427c-0.08,0.05 -0.172,0.076 -0.264,0.076" style="fill-rule:nonzero;"/><path d="M1546.52,530.425l11.703,-5.852l0,-11.704l-11.704,5.852l0,11.704Z" style="fill-rule:nonzero;"/><path d="M1547.02,519.032l0,10.58l10.698,-5.35l0,-10.579l-10.698,5.349Zm-0.502,11.896c-0.092,0 -0.184,-0.025 -0.264,-0.075c-0.148,-0.092 -0.24,-0.253 -0.24,-0.428l0,-11.704c0,-0.19 0.109,-0.364 0.279,-0.45l11.704,-5.852c0.156,-0.078 0.34,-0.069 0.489,0.023c0.147,0.091 0.239,0.253 0.239,0.427l0,11.705c0,0.19 -0.108,0.364 -0.279,0.449l-11.703,5.852c-0.071,0.035 -0.149,0.053 -0.225,0.053" style="fill-rule:nonzero;"/><path d="M1534.82,565.536l11.704,5.852l11.703,-5.852l-11.703,-5.852l-11.704,5.852Z" style="fill:#fff;fill-rule:nonzero;"/><path d="M1535.94,565.536l10.58,5.289l10.579,-5.289l-10.579,-5.289l-10.58,5.289Zm10.58,6.354c-0.077,0 -0.154,-0.018 -0.225,-0.052l-11.705,-5.852c-0.17,-0.086 -0.277,-0.259 -0.277,-0.45c0,-0.19 0.107,-0.364 0.277,-0.449l11.705,-5.853c0.141,-0.071 0.309,-0.071 0.45,0l11.703,5.853c0.171,0.085 0.279,0.259 0.279,0.449c0,0.191 -0.108,0.364 -0.279,0.45l-11.703,5.852c-0.071,0.034 -0.149,0.052 -0.225,0.052" style="fill-rule:nonzero;"/><path d="M1523.11,553.832l23.408,-11.702l23.407,11.702l-23.407,11.704l-23.408,-11.704Z" style="fill:#fff;fill-rule:nonzero;"/><path d="M1524.24,553.832l22.283,11.142l22.282,-11.142l-22.282,-11.14l-22.283,11.14Zm22.283,12.207c-0.077,0 -0.154,-0.018 -0.224,-0.053l-23.409,-11.704c-0.17,-0.086 -0.277,-0.259 -0.277,-0.45c0,-0.19 0.107,-0.364 0.277,-0.45l23.409,-11.702c0.14,-0.071 0.308,-0.071 0.449,0l23.407,11.702c0.171,0.086 0.278,0.26 0.278,0.45c0,0.191 -0.107,0.364 -0.278,0.45l-23.407,11.704c-0.071,0.035 -0.149,0.053 -0.225,0.053" style="fill-rule:nonzero;"/><path d="M1534.82,565.536l0,11.703l11.704,5.852l0,-11.703l-11.704,-5.852Z" style="fill:#fff;fill-rule:nonzero;"/><path d="M1535.32,576.928l10.697,5.349l0,-10.579l-10.697,-5.349l0,10.579Zm11.201,6.666c-0.076,0 -0.154,-0.018 -0.224,-0.053l-11.706,-5.852c-0.169,-0.086 -0.277,-0.26 -0.277,-0.45l0,-11.703c0,-0.174 0.09,-0.336 0.238,-0.428c0.149,-0.092 0.334,-0.099 0.491,-0.021l11.703,5.851c0.17,0.085 0.277,0.259 0.277,0.449l0,11.704c0,0.174 -0.09,0.336 -0.238,0.428c-0.08,0.05 -0.172,0.075 -0.264,0.075" style="fill-rule:nonzero;"/><path d="M1546.52,583.091l11.702,-5.852l0,-11.703l-11.703,5.852l0,11.703Z" style="fill-rule:nonzero;"/><path d="M1547.02,571.698l0,10.579l10.698,-5.349l0,-10.579l-10.698,5.349Zm-0.502,11.896c-0.092,0 -0.184,-0.025 -0.264,-0.075c-0.148,-0.092 -0.24,-0.254 -0.24,-0.428l0,-11.704c0,-0.19 0.109,-0.364 0.279,-0.449l11.704,-5.851c0.156,-0.078 0.34,-0.071 0.489,0.021c0.148,0.092 0.239,0.254 0.239,0.428l0,11.703c0,0.19 -0.108,0.364 -0.279,0.45l-11.703,5.852c-0.071,0.035 -0.149,0.053 -0.225,0.053" style="fill-rule:nonzero;"/><path d="M1523.11,524.573l0,23.407l23.408,11.704l0,-23.407l-23.408,-11.704Z" style="fill:#fff;fill-rule:nonzero;"/><path d="M1523.62,547.669l22.4,11.201l0,-22.283l-22.4,-11.2l0,22.282Zm22.904,12.518c-0.076,0 -0.154,-0.018 -0.224,-0.054l-23.409,-11.704c-0.169,-0.085 -0.277,-0.259 -0.277,-0.449l0,-23.407c0,-0.174 0.09,-0.336 0.237,-0.427c0.15,-0.093 0.335,-0.101 0.491,-0.023l23.407,11.704c0.17,0.085 0.277,0.259 0.277,0.449l0,23.408c0,0.174 -0.09,0.336 -0.238,0.427c-0.08,0.05 -0.172,0.076 -0.264,0.076" style="fill-rule:nonzero;"/><path d="M1569.93,524.573l0,23.407l-23.407,11.704l0,-23.407l23.407,-11.704Z" style="fill-rule:nonzero;"/><path d="M1547.02,536.588l0,22.282l22.402,-11.2l0,-22.283l-22.402,11.201Zm-0.502,23.599c-0.092,0 -0.184,-0.025 -0.264,-0.075c-0.148,-0.092 -0.24,-0.253 -0.24,-0.428l0,-23.407c0,-0.19 0.109,-0.364 0.279,-0.45l23.407,-11.704c0.156,-0.077 0.341,-0.069 0.489,0.023c0.148,0.091 0.239,0.254 0.239,0.427l0,23.407c0,0.191 -0.107,0.365 -0.278,0.45l-23.407,11.704c-0.071,0.035 -0.149,0.053 -0.225,0.053" style="fill-rule:nonzero;"/><path d="M1523.11,553.832l0,11.704l23.408,11.703l0,-11.703l-23.408,-11.704Z" style="fill:#fff;fill-rule:nonzero;"/><path d="M1523.62,565.225l22.4,11.2l0,-10.578l-22.4,-11.201l0,10.579Zm22.904,12.517c-0.076,0 -0.154,-0.017 -0.224,-0.053l-23.409,-11.703c-0.169,-0.086 -0.277,-0.259 -0.277,-0.45l0,-11.704c0,-0.174 0.09,-0.336 0.237,-0.428c0.15,-0.092 0.335,-0.099 0.491,-0.022l23.407,11.705c0.17,0.085 0.277,0.259 0.277,0.449l0,11.703c0,0.174 -0.09,0.336 -0.238,0.428c-0.08,0.05 -0.172,0.075 -0.264,0.075" style="fill-rule:nonzero;"/><path d="M1569.93,553.832l-23.407,11.704l0,11.703l23.407,-11.703l0,-11.704Z" style="fill-rule:nonzero;"/><path d="M1547.02,565.847l0,10.578l22.402,-11.2l0,-10.579l-22.402,11.201Zm-0.502,11.895c-0.092,0 -0.184,-0.025 -0.264,-0.075c-0.148,-0.092 -0.24,-0.254 -0.24,-0.428l0,-11.703c0,-0.19 0.109,-0.364 0.279,-0.449l23.407,-11.705c0.156,-0.077 0.341,-0.07 0.489,0.022c0.148,0.092 0.239,0.254 0.239,0.428l0,11.704c0,0.191 -0.107,0.364 -0.278,0.45l-23.407,11.703c-0.071,0.035 -0.149,0.053 -0.225,0.053" style="fill-rule:nonzero;"/><path d="M1488,542.13l23.407,-11.705l23.407,11.705l-23.407,11.702l-23.407,-11.702Z" style="fill:#fff;fill-rule:nonzero;"/><path d="M1489.13,542.13l22.283,11.14l22.283,-11.14l-22.283,-11.143l-22.283,11.143Zm22.283,12.205c-0.077,0 -0.154,-0.017 -0.224,-0.053l-23.408,-11.703c-0.171,-0.084 -0.278,-0.259 -0.278,-0.449c0,-0.191 0.107,-0.365 0.278,-0.45l23.408,-11.704c0.14,-0.071 0.308,-0.071 0.449,0l23.408,11.704c0.17,0.085 0.277,0.259 0.277,0.45c0,0.19 -0.107,0.365 -0.277,0.449l-23.408,11.703c-0.071,0.036 -0.148,0.053 -0.225,0.053" style="fill-rule:nonzero;"/><path d="M1499.71,530.425l11.703,5.852l11.703,-5.852l-11.703,-5.852l-11.703,5.852Z" style="fill:#fff;fill-rule:nonzero;"/><path d="M1500.83,530.425l10.579,5.29l10.58,-5.29l-10.58,-5.289l-10.579,5.289Zm10.579,6.355c-0.077,0 -0.154,-0.018 -0.225,-0.053l-11.704,-5.852c-0.17,-0.085 -0.277,-0.26 -0.277,-0.45c0,-0.19 0.107,-0.364 0.277,-0.449l11.704,-5.853c0.141,-0.07 0.309,-0.07 0.45,0l11.704,5.853c0.17,0.085 0.278,0.259 0.278,0.449c0,0.19 -0.108,0.365 -0.278,0.45l-11.704,5.852c-0.071,0.035 -0.148,0.053 -0.225,0.053" style="fill-rule:nonzero;"/><path d="M1499.71,530.425l0,11.705l11.703,5.85l0,-11.703l-11.703,-5.852Z" style="fill:#fff;fill-rule:nonzero;"/><path d="M1500.21,541.818l10.698,5.348l0,-10.578l-10.698,-5.349l0,10.579Zm11.201,6.665c-0.076,0 -0.154,-0.018 -0.224,-0.054l-11.705,-5.85c-0.169,-0.085 -0.277,-0.259 -0.277,-0.449l0,-11.706c0,-0.173 0.09,-0.335 0.238,-0.426c0.148,-0.093 0.333,-0.101 0.49,-0.023l11.703,5.852c0.171,0.085 0.278,0.259 0.278,0.449l0,11.704c0,0.174 -0.091,0.336 -0.239,0.427c-0.08,0.05 -0.172,0.076 -0.264,0.076" style="fill-rule:nonzero;"/><path d="M1511.41,547.98l11.703,-5.85l0,-11.705l-11.703,5.852l0,11.703Z" style="fill-rule:nonzero;"/><path d="M1511.91,536.588l0,10.578l10.698,-5.348l0,-10.579l-10.698,5.349Zm-0.503,11.895c-0.092,0 -0.184,-0.026 -0.264,-0.075c-0.148,-0.092 -0.239,-0.254 -0.239,-0.428l0,-11.703c0,-0.19 0.109,-0.364 0.278,-0.45l11.704,-5.851c0.156,-0.078 0.34,-0.071 0.49,0.022c0.147,0.091 0.238,0.254 0.238,0.427l0,11.705c0,0.19 -0.108,0.365 -0.278,0.449l-11.704,5.851c-0.071,0.035 -0.149,0.053 -0.225,0.053" style="fill-rule:nonzero;"/><path d="M1499.71,583.091l11.703,5.852l11.703,-5.852l-11.703,-5.852l-11.703,5.852Z" style="fill:#fff;fill-rule:nonzero;"/><path d="M1500.83,583.091l10.579,5.29l10.58,-5.29l-10.58,-5.289l-10.579,5.289Zm10.579,6.355c-0.077,0 -0.154,-0.017 -0.225,-0.053l-11.704,-5.852c-0.17,-0.085 -0.277,-0.259 -0.277,-0.45c0,-0.189 0.107,-0.364 0.277,-0.45l11.704,-5.852c0.141,-0.07 0.309,-0.07 0.45,0l11.704,5.852c0.17,0.086 0.278,0.261 0.278,0.45c0,0.191 -0.108,0.365 -0.278,0.45l-11.704,5.852c-0.071,0.036 -0.148,0.053 -0.225,0.053" style="fill-rule:nonzero;"/><path d="M1488,571.388l23.407,-11.704l23.407,11.704l-23.407,11.703l-23.407,-11.703Z" style="fill:#fff;fill-rule:nonzero;"/><path d="M1489.13,571.388l22.283,11.141l22.283,-11.141l-22.283,-11.141l-22.283,11.141Zm22.283,12.206c-0.077,0 -0.154,-0.017 -0.224,-0.053l-23.408,-11.703c-0.171,-0.085 -0.278,-0.26 -0.278,-0.45c0,-0.19 0.107,-0.364 0.278,-0.45l23.408,-11.703c0.14,-0.071 0.308,-0.071 0.449,0l23.408,11.703c0.17,0.086 0.277,0.26 0.277,0.45c0,0.19 -0.107,0.365 -0.277,0.45l-23.408,11.703c-0.071,0.036 -0.148,0.053 -0.225,0.053" style="fill-rule:nonzero;"/><path d="M1499.71,583.091l0,11.704l11.703,5.852l0,-11.704l-11.703,-5.852Z" style="fill:#fff;fill-rule:nonzero;"/><path d="M1500.21,594.484l10.698,5.349l0,-10.579l-10.698,-5.35l0,10.58Zm11.201,6.666c-0.076,0 -0.154,-0.018 -0.224,-0.054l-11.705,-5.851c-0.169,-0.086 -0.277,-0.26 -0.277,-0.45l0,-11.705c0,-0.173 0.09,-0.335 0.238,-0.427c0.148,-0.092 0.333,-0.1 0.49,-0.022l11.703,5.852c0.171,0.086 0.278,0.259 0.278,0.449l0,11.705c0,0.174 -0.091,0.336 -0.239,0.427c-0.08,0.05 -0.172,0.076 -0.264,0.076" style="fill-rule:nonzero;"/><path d="M1511.41,600.647l11.703,-5.852l0,-11.704l-11.703,5.852l0,11.704Z" style="fill-rule:nonzero;"/><path d="M1511.91,589.254l0,10.579l10.698,-5.349l0,-10.58l-10.698,5.35Zm-0.503,11.896c-0.092,0 -0.184,-0.026 -0.264,-0.076c-0.148,-0.091 -0.239,-0.253 -0.239,-0.427l0,-11.705c0,-0.19 0.109,-0.363 0.278,-0.449l11.704,-5.852c0.156,-0.078 0.34,-0.07 0.49,0.022c0.147,0.092 0.238,0.254 0.238,0.427l0,11.705c0,0.19 -0.108,0.364 -0.278,0.45l-11.704,5.851c-0.071,0.036 -0.149,0.054 -0.225,0.054" style="fill-rule:nonzero;"/><path d="M1488,542.13l0,23.406l23.407,11.703l0,-23.407l-23.407,-11.702Z" style="fill:#fff;fill-rule:nonzero;"/><path d="M1488.51,565.225l22.401,11.2l0,-22.282l-22.401,-11.2l0,22.282Zm22.904,12.517c-0.076,0 -0.154,-0.017 -0.224,-0.053l-23.408,-11.703c-0.17,-0.086 -0.278,-0.259 -0.278,-0.45l0,-23.406c0,-0.175 0.09,-0.337 0.238,-0.428c0.149,-0.091 0.334,-0.1 0.491,-0.022l23.406,11.702c0.171,0.086 0.278,0.26 0.278,0.45l0,23.407c0,0.174 -0.091,0.336 -0.239,0.428c-0.08,0.05 -0.172,0.075 -0.264,0.075" style="fill-rule:nonzero;"/><path d="M1534.82,542.13l0,23.406l-23.407,11.703l0,-23.407l23.407,-11.702Z" style="fill-rule:nonzero;"/><path d="M1511.91,554.144l0,22.282l22.401,-11.2l0,-22.282l-22.401,11.2Zm-0.503,23.599c-0.092,0 -0.184,-0.026 -0.264,-0.076c-0.148,-0.092 -0.239,-0.253 -0.239,-0.427l0,-23.408c0,-0.19 0.109,-0.364 0.278,-0.449l23.407,-11.702c0.156,-0.079 0.342,-0.07 0.49,0.022c0.148,0.091 0.238,0.253 0.238,0.427l0,23.407c0,0.19 -0.107,0.363 -0.277,0.449l-23.408,11.703c-0.071,0.036 -0.149,0.054 -0.225,0.054" style="fill-rule:nonzero;"/><path d="M1488,571.388l0,11.703l23.407,11.704l0,-11.704l-23.407,-11.703Z" style="fill:#fff;fill-rule:nonzero;"/><path d="M1488.51,582.78l22.401,11.201l0,-10.579l-22.401,-11.201l0,10.579Zm22.904,12.518c-0.076,0 -0.154,-0.018 -0.224,-0.053l-23.408,-11.704c-0.17,-0.086 -0.278,-0.259 -0.278,-0.45l0,-11.704c0,-0.174 0.09,-0.336 0.238,-0.427c0.149,-0.092 0.334,-0.099 0.491,-0.022l23.406,11.703c0.171,0.086 0.278,0.26 0.278,0.45l0,11.704c0,0.174 -0.091,0.336 -0.239,0.427c-0.08,0.05 -0.172,0.076 -0.264,0.076" style="fill-rule:nonzero;"/><path d="M1534.82,571.388l-23.407,11.703l0,11.704l23.407,-11.704l0,-11.703Z" style="fill-rule:nonzero;"/><path d="M1511.91,583.402l0,10.58l22.401,-11.202l0,-10.579l-22.401,11.201Zm-0.503,11.896c-0.092,0 -0.184,-0.025 -0.264,-0.075c-0.148,-0.092 -0.239,-0.254 -0.239,-0.428l0,-11.704c0,-0.189 0.109,-0.364 0.278,-0.45l23.407,-11.703c0.156,-0.077 0.342,-0.069 0.49,0.022c0.148,0.091 0.238,0.254 0.238,0.428l0,11.703c0,0.191 -0.107,0.365 -0.277,0.45l-23.408,11.704c-0.071,0.035 -0.149,0.053 -0.225,0.053" style="fill-rule:nonzero;"/><path d="M1452.89,577.239l0,11.704l58.518,29.259l0,-11.702l-58.518,-29.261Z" style="fill:#fff;fill-rule:nonzero;"/><path d="M1453.4,588.632l57.513,28.756l0,-10.578l-57.513,-28.758l0,10.58Zm58.016,30.073c-0.077,0 -0.155,-0.018 -0.226,-0.053l-58.518,-29.259c-0.17,-0.085 -0.278,-0.26 -0.278,-0.45l0,-11.704c0,-0.175 0.091,-0.336 0.239,-0.428c0.148,-0.092 0.333,-0.1 0.49,-0.022l58.517,29.261c0.171,0.084 0.279,0.259 0.279,0.45l0,11.702c0,0.174 -0.091,0.336 -0.24,0.428c-0.08,0.049 -0.172,0.075 -0.263,0.075" style="fill-rule:nonzero;"/><path d="M1569.93,577.239l0,11.704l-58.519,29.259l0,-11.702l58.519,-29.261Z" style="fill-rule:nonzero;"/><path d="M1511.91,606.81l0,10.578l57.513,-28.756l0,-10.58l-57.513,28.758Zm-0.503,11.895c-0.092,0 -0.184,-0.026 -0.264,-0.076c-0.148,-0.091 -0.239,-0.253 -0.239,-0.427l0,-11.703c0,-0.19 0.109,-0.365 0.278,-0.449l58.518,-29.261c0.156,-0.079 0.342,-0.07 0.489,0.022c0.149,0.092 0.24,0.253 0.24,0.428l0,11.703c0,0.191 -0.108,0.366 -0.279,0.451l-58.518,29.258c-0.071,0.036 -0.149,0.054 -0.225,0.054" style="fill-rule:nonzero;"/><g opacity="0.5"><path d="M1449.05,501.166l-4.022,0l0,-13.716l13.714,0l0,4.023l-9.692,0l0,9.693Z" style="fill:#fff;fill-rule:nonzero;"/><path d="M1577.79,501.166l-4.023,0l0,-9.693l-9.692,0l0,-4.023l13.715,0l0,13.716Z" style="fill:#fff;fill-rule:nonzero;"/><path d="M1458.75,620.214l-13.715,0l0,-13.714l4.023,0l0,9.691l9.692,0l0,4.023Z" style="fill:#fff;fill-rule:nonzero;"/><path d="M1577.79,620.214l-13.715,0l0,-4.023l9.692,0l0,-9.691l4.023,0l0,13.714Z" style="fill:#fff;fill-rule:nonzero;"/></g></g><g opacity="0.15"><path d="M1499.62,302.964l11.703,5.852l11.703,-5.852l-11.703,-5.853l-11.703,5.853Z" style="fill:#fff;fill-rule:nonzero;stroke:#000;stroke-width:2px;"/><path d="M1499.62,302.964l0,117.04l11.703,5.853l0,-117.041l-11.703,-5.852Z" style="fill:#fff;fill-rule:nonzero;stroke:#000;stroke-width:2px;"/><path d="M1523.03,302.964l-11.703,5.852l0,117.041l11.703,-5.853l0,-117.04Z" style="fill-rule:nonzero;stroke:#000;stroke-width:2px;"/><path d="M1499.62,396.598l11.703,5.851l11.703,-5.851l0,-11.705l23.41,11.705l-35.113,17.555l-35.113,-17.555l23.41,-11.705l0,11.705Z" style="fill:#fff;fill-rule:nonzero;stroke:#000;stroke-width:2px;"/><path d="M1476.21,396.598l0,5.851l35.113,17.556l0,-5.852l-35.113,-17.555Z" style="fill:#fff;fill-rule:nonzero;stroke:#000;stroke-width:2px;"/><path d="M1546.44,396.598l-35.113,17.555l0,5.852l35.113,-17.556l0,-5.851Z" style="fill-rule:nonzero;stroke:#000;stroke-width:2px;"/><path d="M1452.81,355.633l46.816,-23.408l0,23.408l11.704,5.852l11.703,-5.852l0,-23.408l46.817,23.408l-58.52,29.26l-58.52,-29.26Z" style="fill:#fff;fill-rule:nonzero;stroke:#000;stroke-width:2px;"/><path d="M1452.81,355.633l0,11.704l58.52,29.261l0,-11.705l-58.52,-29.26Z" style="fill:#fff;fill-rule:nonzero;stroke:#000;stroke-width:2px;"/><path d="M1569.85,355.633l0,11.704l-58.521,29.261l0,-11.705l58.521,-29.26Z" style="fill-rule:nonzero;stroke:#000;stroke-width:2px;"/><path d="M1452.81,338.077l46.816,-23.408l0,23.408l11.704,5.852l11.703,-5.852l0,-23.408l46.817,23.408l-58.52,29.26l-58.52,-29.26Z" style="fill:#fff;fill-rule:nonzero;stroke:#000;stroke-width:2px;"/><path d="M1452.81,338.077l0,11.705l58.52,29.259l0,-11.704l-58.52,-29.26Z" style="fill:#fff;fill-rule:nonzero;stroke:#000;stroke-width:2px;"/><path d="M1569.85,338.077l0,11.705l-58.521,29.259l0,-11.704l58.521,-29.26Z" style="fill-rule:nonzero;stroke:#000;stroke-width:2px;"/><path d="M1499.62,332.225l11.703,5.852l11.703,-5.852l0,-11.703l23.41,11.703l-35.113,17.557l-35.113,-17.557l23.41,-11.703l0,11.703Z" style="fill:#fff;fill-rule:nonzero;stroke:#000;stroke-width:2px;"/><path d="M1476.21,332.225l0,5.852l35.113,17.556l0,-5.851l-35.113,-17.557Z" style="fill:#fff;fill-rule:nonzero;stroke:#000;stroke-width:2px;"/><path d="M1546.44,332.225l-35.113,17.557l0,5.851l35.113,-17.556l0,-5.852Z" style="fill-rule:nonzero;stroke:#000;stroke-width:2px;"/><path d="M1499.62,320.521l11.703,5.851l11.703,-5.851l0,-11.705l23.41,11.705l-35.113,17.555l-35.113,-17.555l23.41,-11.705l0,11.705Z" style="fill:#fff;fill-rule:nonzero;stroke:#000;stroke-width:2px;"/><path d="M1476.21,320.521l0,5.851l35.113,17.556l0,-5.852l-35.113,-17.555Z" style="fill:#fff;fill-rule:nonzero;stroke:#000;stroke-width:2px;"/><path d="M1546.44,320.521l-35.113,17.555l0,5.852l35.113,-17.556l0,-5.851Z" style="fill-rule:nonzero;stroke:#000;stroke-width:2px;"/><g opacity="0.5"><path d="M1446.95,308.816l0,-11.705l11.705,0" style="fill:none;fill-rule:nonzero;stroke:#fff;stroke-width:4px;stroke-linecap:butt;stroke-linejoin:miter;"/><path d="M1575.7,308.816l0,-11.705l-11.705,0" style="fill:none;fill-rule:nonzero;stroke:#fff;stroke-width:4px;stroke-linecap:butt;stroke-linejoin:miter;"/><path d="M1446.95,414.153l0,11.705l11.705,0" style="fill:none;fill-rule:nonzero;stroke:#fff;stroke-width:4px;stroke-linecap:butt;stroke-linejoin:miter;"/><path d="M1575.7,414.153l0,11.705l-11.705,0" style="fill:none;fill-rule:nonzero;stroke:#fff;stroke-width:4px;stroke-linecap:butt;stroke-linejoin:miter;"/></g></g><g opacity="0.15"><path d="M1486.91,774.177l23.862,-11.931l23.864,11.931l-23.864,11.931l-23.862,-11.931Z" style="fill:#fff;fill-rule:nonzero;stroke:#000;stroke-width:2px;"/><path d="M1486.91,774.177l0,23.862l23.862,11.932l0,-23.863l-23.862,-11.931Z" style="fill:#fff;fill-rule:nonzero;stroke:#000;stroke-width:2px;"/><path d="M1534.63,774.177l0,23.862l-23.863,11.932l0,-23.863l23.863,-11.931Z" style="fill-rule:nonzero;stroke:#000;stroke-width:2px;"/><path d="M1451.11,762.246l59.656,-29.828l59.657,29.828l-59.657,29.828l-59.656,-29.828Z" style="fill:#fff;fill-rule:nonzero;stroke:#000;stroke-width:2px;"/><path d="M1451.11,762.246l0,11.931l59.656,29.827l0,-11.93l-59.656,-29.828Z" style="fill:#fff;fill-rule:nonzero;stroke:#000;stroke-width:2px;"/><path d="M1570.42,762.246l0,11.931l-59.656,29.827l0,-11.93l59.656,-29.828Z" style="fill-rule:nonzero;stroke:#000;stroke-width:2px;"/><path d="M1451.11,732.418l59.656,-29.828l59.657,29.828l-59.657,29.828l-59.656,-29.828Z" style="fill:#fff;fill-rule:nonzero;stroke:#000;stroke-width:2px;"/><path d="M1451.11,732.418l0,23.861l59.656,29.828l0,-23.861l-59.656,-29.828Z" style="fill:#fff;fill-rule:nonzero;stroke:#000;stroke-width:2px;"/><path d="M1510.77,762.246l59.656,-29.828l0,23.861l-59.656,29.828l0,-23.861Z" style="fill-rule:nonzero;stroke:#000;stroke-width:2px;"/><path d="M1451.11,714.521l59.656,-29.829l59.657,29.828l-59.657,29.828l-59.656,-29.827Z" style="fill:#fff;fill-rule:nonzero;stroke:#000;stroke-width:2px;"/><path d="M1451.11,714.521l0,11.931l59.656,29.827l0,-11.93l-59.656,-29.829Z" style="fill:#fff;fill-rule:nonzero;stroke:#000;stroke-width:2px;"/><path d="M1570.42,714.521l0,11.93l-59.656,29.829l0,-11.931l59.656,-29.828Z" style="fill-rule:nonzero;stroke:#000;stroke-width:2px;"/><path d="M1486.91,690.658l23.862,-11.932l23.864,11.932l-23.864,11.932l-23.862,-11.932Z" style="fill:#fff;fill-rule:nonzero;stroke:#000;stroke-width:2px;"/><path d="M1486.91,690.658l0,23.863l23.862,11.93l0,-23.861l-23.862,-11.932Z" style="fill:#fff;fill-rule:nonzero;stroke:#000;stroke-width:2px;"/><path d="M1534.63,690.658l0,23.863l-23.863,11.93l0,-23.861l23.863,-11.932Z" style="fill-rule:nonzero;stroke:#000;stroke-width:2px;"/><path d="M1457.08,744.349l0,5.965l47.725,23.863l0,-5.965l-47.725,-23.863Z" style="fill:#fff;fill-rule:nonzero;stroke:#000;stroke-width:2px;"/><path d="M1516.73,768.211l0,5.965l47.726,-23.862l0,-5.966l-47.726,23.863Z" style="fill:#fff;fill-rule:nonzero;stroke:#000;stroke-width:2px;"/><path d="M1516.73,768.211l0,5.965l47.726,-23.862l-5.966,-2.984l-41.76,20.881Z" style="fill:#fff;fill-rule:nonzero;stroke:#000;stroke-width:2px;"/><path d="M1457.08,750.314l47.725,23.863l0,-5.966l-41.76,-20.88l-5.965,2.983Z" style="fill:#fff;fill-rule:nonzero;stroke:#000;stroke-width:2px;"/><g opacity="0.5"><path d="M1445.15,690.658l0,-11.932l11.933,0" style="fill:none;fill-rule:nonzero;stroke:#fff;stroke-width:4px;stroke-linecap:butt;stroke-linejoin:miter;"/><path d="M1576.39,690.658l0,-11.932l-11.932,0" style="fill:none;fill-rule:nonzero;stroke:#fff;stroke-width:4px;stroke-linecap:butt;stroke-linejoin:miter;"/><path d="M1445.15,798.039l0,11.932l11.933,0" style="fill:none;fill-rule:nonzero;stroke:#fff;stroke-width:4px;stroke-linecap:butt;stroke-linejoin:miter;"/><path d="M1576.39,798.039l0,11.932l-11.932,0" style="fill:none;fill-rule:nonzero;stroke:#fff;stroke-width:4px;stroke-linecap:butt;stroke-linejoin:miter;"/></g></g><g opacity="0.05"><rect x="1394.34" y="264.881" width="209" height="2.98" style="fill:#fff;"/></g><g id="Layer-4" serif:id="Layer 4"><g><g opacity="0.3"><g><path d="M119.833,962.133l-2.456,3.273l3.069,-0.409l-2.25,19.233l-24.144,-4.911c-1.636,-15.959 5.73,-19.233 5.73,-19.233l-10.23,-4.501l6.547,-7.365" style="fill:none;fill-rule:nonzero;stroke:#fff;stroke-width:1.31px;stroke-linecap:butt;stroke-linejoin:miter;stroke-miterlimit:4;"/></g></g><g opacity="0.3"><g><path d="M95.894,980.343c0,0 -4.706,5.933 -3.887,10.843l-22.097,8.594c0,0 11.457,18.209 12.685,19.232c1.229,1.022 4.092,-4.91 3.683,-11.048l17.596,-8.595c0,0 6.547,-1.227 5.32,-16.776" style="fill:none;fill-rule:nonzero;stroke:#fff;stroke-width:1.31px;stroke-linecap:butt;stroke-miterlimit:4;"/></g></g><g opacity="0.3"><g><path d="M118.197,981.774l4.911,1.637l14.322,22.095l22.3,-14.32c0,0 2.047,-3.274 -1.637,-4.093c-3.682,-0.818 -14.117,1.024 -14.117,1.024l-13.504,-21.073l-10.638,-0.411" style="fill:none;fill-rule:nonzero;stroke:#fff;stroke-width:1.31px;stroke-linecap:butt;stroke-linejoin:miter;stroke-miterlimit:4;"/></g></g><g opacity="0.3"><g><path d="M100.19,928.578c0,0 -5.318,-16.778 15.551,-14.731c0,0 17.595,0.409 16.778,14.322l-2.456,3.682l2.456,2.456" style="fill:none;fill-rule:nonzero;stroke:#fff;stroke-width:1.31px;stroke-linecap:butt;stroke-linejoin:miter;stroke-miterlimit:4;"/></g></g><g opacity="0.3"><g><path d="M139.883,917.325c0,0 0.82,4.296 1.229,5.934c0,0 -11.049,5.319 -29.463,-1.638c0,0 1.227,0.615 28.234,-4.296Z" style="fill-rule:nonzero;stroke:#fff;stroke-width:1.31px;stroke-linecap:butt;stroke-linejoin:miter;stroke-miterlimit:4;"/></g></g><g opacity="0.3"><g><path d="M23.262,910.573c0,0 2.276,0.175 7.422,1.11c4.688,0.853 13.693,10.39 22.644,25.096c0,0 -9.179,-1.696 -10.71,-2.079c-5.967,-1.491 -9.527,-8.976 -11.508,-11.082c-1.667,-1.772 -4.05,-7.459 -12.759,-4.452c0,0 1.228,-5.319 4.911,-8.593Z" style="fill:none;fill-rule:nonzero;stroke:#fff;stroke-width:1.31px;stroke-linecap:butt;stroke-miterlimit:4;"/></g></g><g opacity="0.3"><g><path d="M18.35,919.166c0,0 2.58,8.536 3.807,9.354l10.232,-2.345" style="fill:none;fill-rule:nonzero;stroke:#fff;stroke-width:1.31px;stroke-linecap:butt;stroke-linejoin:miter;stroke-miterlimit:4;"/></g></g><g opacity="0.3"><g><path d="M37.174,916.711c0,0 4.911,-4.911 8.185,-1.637c3.273,3.273 9.044,10.294 11.458,13.913c2.454,3.682 5.728,7.775 7.774,9.412c2.046,1.636 3.274,2.045 6.138,2.864l85.524,20.46c0,0 4.724,0.759 6.956,-5.934c2.046,-6.138 1.227,-10.843 -1.637,-11.662l-87.159,-20.869c0,0 2.045,3.683 2.045,6.548c0,2.863 0,2.863 -2.455,2.454c-2.455,-0.409 -3.683,-1.227 -5.319,-3.682c-1.638,-2.455 -2.865,-7.366 -5.729,-8.184c-2.864,-0.819 -17.596,-5.32 -17.596,-5.32" style="fill:none;fill-rule:nonzero;stroke:#fff;stroke-width:1.31px;stroke-linecap:butt;stroke-linejoin:miter;stroke-miterlimit:4;"/></g></g><g opacity="0.3"><g><path d="M66.115,923.032c3.037,-0.959 6.25,-0.592 8.297,0.227" style="fill:none;fill-rule:nonzero;stroke:#fff;stroke-width:1.31px;stroke-linecap:butt;stroke-linejoin:miter;stroke-miterlimit:4;"/></g></g><g opacity="0.3"><g><path d="M162.8,945.355c0,0 -6.548,1.432 -6.548,15.549" style="fill:none;fill-rule:nonzero;stroke:#fff;stroke-width:1.31px;stroke-linecap:butt;stroke-linejoin:miter;stroke-miterlimit:4;"/></g></g><g opacity="0.3"><g><path d="M51.143,936.619c0,0 5.673,0.552 9.764,-1.494" style="fill:none;fill-rule:nonzero;stroke:#fff;stroke-width:1.31px;stroke-linecap:butt;stroke-linejoin:miter;stroke-miterlimit:4;"/></g></g><g opacity="0.3"><g><path d="M105.101,950.266l1.229,10.639l2.045,0.818l24.144,1.227c0,0 2.045,-2.454 5.319,-8.183c3.274,-5.73 7.775,-14.731 6.138,-18.005c-1.636,-3.273 -6.138,-7.774 -11.457,-2.455c0,0 -9.208,23.529 -15.346,27.621" style="fill:none;fill-rule:nonzero;stroke:#fff;stroke-width:1.31px;stroke-linecap:butt;stroke-linejoin:miter;stroke-miterlimit:4;"/></g></g><g opacity="0.3"><g><path d="M112.369,922.944l-12.586,1.952l14.322,-2.251" style="fill:none;fill-rule:nonzero;stroke:#fff;stroke-width:1.31px;stroke-linecap:butt;stroke-linejoin:miter;stroke-miterlimit:4;"/></g></g><g opacity="0.3"><g><path d="M111.411,922.624l-11.629,2.271c0,0 -0.199,-8.345 4.275,-9.625c4.476,-1.278 10.55,-2.237 12.788,-1.598c2.237,0.639 8.312,0.959 9.59,2.558c1.279,1.599 2.238,4.156 2.238,4.156l-17.262,2.238Z" style="fill-rule:nonzero;stroke:#fff;stroke-width:1.31px;stroke-linecap:butt;stroke-linejoin:miter;stroke-miterlimit:4;"/></g></g><g opacity="0.3"><g><path d="M99.782,960.086c0,0 -3.397,2.179 -3.717,3.777c-0.32,1.598 -2.557,6.712 -2.238,7.991c0.32,1.28 0,6.074 0,6.074l0.226,1.391l23.431,4.684l2.963,-19.006l-2.004,-0.495l0,-2.237l-12.114,-1.361l-6.547,-0.818Z" style="fill-rule:nonzero;stroke:#fff;stroke-width:1.31px;stroke-linecap:butt;stroke-linejoin:miter;stroke-miterlimit:4;"/></g></g><g opacity="0.3"><g><path d="M126.755,966.42l-0.32,-3.836l-7.992,0l0.319,3.836l7.993,0Z" style="fill-rule:nonzero;stroke:#fff;stroke-width:1.31px;stroke-linecap:butt;stroke-linejoin:miter;stroke-miterlimit:4;"/></g></g></g></g></g><defs><radialGradient id="_Radial1" cx="0" cy="0" r="1" gradientUnits="userSpaceOnUse" gradientTransform="matrix(1642.52,6.22605e-14,6.23764e-14,1136.24,857.714,801.5)"><stop offset="0" style="stop-color:#414042;stop-opacity:1"/><stop offset="1" style="stop-color:#000;stop-opacity:1"/></radialGradient></defs></svg>