<?xml version="1.0" encoding="UTF-8" standalone="no"?><!DOCTYPE svg PUBLIC "-//W3C//DTD SVG 1.1//EN" "http://www.w3.org/Graphics/SVG/1.1/DTD/svg11.dtd"><svg width="100%" height="100%" viewBox="0 0 13 13" version="1.1" xmlns="http://www.w3.org/2000/svg" xmlns:xlink="http://www.w3.org/1999/xlink" xml:space="preserve" xmlns:serif="http://www.serif.com/" style="fill-rule:evenodd;clip-rule:evenodd;stroke-linejoin:round;"><rect id="Artboard1" x="0" y="0" width="12.379" height="12.384" style="fill:none;"/><ellipse cx="6.192" cy="6.104" rx="5.915" ry="5.926" style="fill:#e81d1d;"/><g><g><clipPath id="_clip1"><rect x="4.82" y="7.914" width="2.877" height="2.829" clip-rule="nonzero"/></clipPath><g clip-path="url(#_clip1)"><path d="M6.518,8.451c-0.055,0.121 0.08,-0.291 0.039,-0.214c-0.194,0.366 -0.234,0.309 -0.131,0.476l-1.56,0.61c0,0 0.809,1.293 0.895,1.366c0.087,0.072 0.289,-0.349 0.26,-0.785l1.243,-0.61c0,0 0.481,0.261 0.394,-0.843" style="fill:none;fill-rule:nonzero;stroke:#fff;stroke-width:0.31px;"/></g></g><g><clipPath id="_clip2"><rect x="8.26" y="6.922" width="3.033" height="2.871" clip-rule="nonzero"/></clipPath><g clip-path="url(#_clip2)"><path d="M8.349,8.235l0.313,0.099l0.971,1.396l1.574,-1.017c0,0 0.145,-0.233 -0.115,-0.291c-0.26,-0.058 -0.997,0.073 -0.997,0.073l-0.814,-1.677l-1.021,-0.044" style="fill:none;fill-rule:nonzero;stroke:#fff;stroke-width:0.31px;stroke-linejoin:miter;"/></g></g><g opacity="0.3"><clipPath id="_clip3"><rect x="6.915" y="3.161" width="2.419" height="1.545" clip-rule="nonzero"/></clipPath><g clip-path="url(#_clip3)"><path d="M7.004,4.266c0,0 -0.376,-1.191 1.098,-1.046c0,0 1.242,0.029 1.184,1.017l-0.173,0.262l0.173,0.174" style="fill:none;fill-rule:nonzero;stroke:#fff;stroke-width:0.31px;stroke-linejoin:miter;"/></g></g><g><path d="M1.572,2.987c0,0 0.161,0.013 0.524,0.079c0.331,0.061 0.967,0.738 1.599,1.783c0,0 -0.648,-0.121 -0.756,-0.148c-0.421,-0.106 -0.673,-0.638 -0.813,-0.787c-0.117,-0.126 -0.286,-0.53 -0.9,-0.316c0,0 0.086,-0.378 0.346,-0.611Z" style="fill:none;fill-rule:nonzero;stroke:#fff;stroke-width:0.31px;"/></g><g><clipPath id="_clip4"><rect x="1.181" y="3.584" width="1.046" height="0.727" clip-rule="nonzero"/></clipPath><g clip-path="url(#_clip4)"><path d="M1.226,3.598c0,0 0.182,0.606 0.268,0.664l0.723,-0.166" style="fill:none;fill-rule:nonzero;stroke:#fff;stroke-width:0.31px;stroke-linejoin:miter;"/></g></g><g><clipPath id="_clip5"><rect x="2.522" y="3.181" width="9.057" height="3.487" clip-rule="nonzero"/></clipPath><g clip-path="url(#_clip5)"><path d="M2.555,3.423c0,0 0.346,-0.348 0.577,-0.116c0.231,0.233 0.639,0.731 0.809,0.988c0.174,0.262 0.405,0.552 0.549,0.669c0.145,0.116 0.231,0.145 0.434,0.203l6.038,1.453c0,0 0.333,0.054 0.491,-0.421c0.144,-0.436 0.086,-0.77 -0.116,-0.829l-6.153,-1.482c0,0 0.144,0.262 0.144,0.465c0,0.204 0,0.204 -0.173,0.175c-0.174,-0.029 -0.26,-0.087 -0.376,-0.262c-0.115,-0.174 -0.202,-0.523 -0.404,-0.581c-0.203,-0.058 -1.243,-0.378 -1.243,-0.378" style="fill:none;fill-rule:nonzero;stroke:#fff;stroke-width:0.31px;stroke-linejoin:miter;"/></g></g><g opacity="0.3"><clipPath id="_clip6"><path d="M4.584,3.932l0.617,0l0,-0.147l-0.617,0l0,0.147Z" clip-rule="nonzero"/></clipPath><g clip-path="url(#_clip6)"><path d="M4.598,3.872c0.214,-0.068 0.441,-0.042 0.586,0.016" style="fill:none;fill-rule:nonzero;stroke:#fff;stroke-width:0.31px;stroke-linejoin:miter;"/></g></g><g><clipPath id="_clip7"><path d="M10.916,6.562l0.518,0l0,-1.149l-0.518,0l0,1.149Z" clip-rule="nonzero"/></clipPath><g clip-path="url(#_clip7)"><path d="M11.424,5.458c0,0 -0.462,0.101 -0.462,1.104" style="fill:none;fill-rule:nonzero;stroke:#fff;stroke-width:0.31px;stroke-linejoin:miter;"/></g></g><g opacity="0.3"><clipPath id="_clip8"><path d="M3.536,4.888l0.715,0l0,-0.198l-0.715,0l0,0.198Z" clip-rule="nonzero"/></clipPath><g clip-path="url(#_clip8)"><path d="M3.541,4.837c0,0 0.4,0.039 0.689,-0.106" style="fill:none;fill-rule:nonzero;stroke:#fff;stroke-width:0.31px;stroke-linejoin:miter;"/></g></g><g><clipPath id="_clip9"><rect x="7.304" y="4.452" width="2.861" height="2.303" clip-rule="nonzero"/></clipPath><g clip-path="url(#_clip9)"><path d="M7.35,5.806l0.087,0.756l0.144,0.058l1.705,0.087c0,0 0.144,-0.174 0.376,-0.581c0.231,-0.407 0.548,-1.046 0.433,-1.279c-0.116,-0.232 -0.433,-0.552 -0.809,-0.174c0,0 -0.65,1.671 -1.083,1.962" style="fill:none;fill-rule:nonzero;stroke:#fff;stroke-width:0.31px;stroke-linejoin:miter;"/></g></g><g opacity="0.3"><clipPath id="_clip10"><rect x="6.968" y="3.799" width="1.026" height="0.251" clip-rule="nonzero"/></clipPath><g clip-path="url(#_clip10)"><path d="M7.863,3.866l-0.888,0.139l1.011,-0.16" style="fill:none;fill-rule:nonzero;stroke:#fff;stroke-width:0.31px;stroke-linejoin:miter;"/></g></g><g><g><path d="M8.615,6.755l-1.311,0l-0.731,1.247l-0.154,0.356l1.277,0.1l0.43,-0.255l0.46,0.155l0.924,-1.603l-0.895,0Z" style="fill:none;stroke:#fff;stroke-width:0.24px;stroke-linecap:round;stroke-miterlimit:1.5;"/></g></g><path d="M7.053,4.005l0.022,-0.538c0,0 0.268,-0.131 0.229,-0.131c-0.038,0 0.305,-0.073 0.305,-0.073l0.502,-0.07l0.53,0.1l0.212,0.114l0.162,0.06l0.878,0l0,0.538l-1.328,0l-0.257,-0.092l-1.228,0.113" style="fill:none;stroke:#fff;stroke-width:0.24px;stroke-linecap:round;stroke-miterlimit:1.5;"/></g></svg>