<?xml version="1.0" encoding="UTF-8" standalone="no"?><!DOCTYPE svg PUBLIC "-//W3C//DTD SVG 1.1//EN" "http://www.w3.org/Graphics/SVG/1.1/DTD/svg11.dtd"><svg width="100%" height="100%" viewBox="0 0 800 800" version="1.1" xmlns="http://www.w3.org/2000/svg" xmlns:xlink="http://www.w3.org/1999/xlink" xml:space="preserve" xmlns:serif="http://www.serif.com/" style="fill-rule:evenodd;clip-rule:evenodd;stroke-linejoin:round;"><ellipse cx="399.745" cy="399.059" rx="396.588" ry="397.317" style="fill:#e81d1d;"/><g><g><clipPath id="_clip1"><rect x="307.698" y="520.438" width="192.88" height="189.719" clip-rule="nonzero"/></clipPath><g clip-path="url(#_clip1)"><path d="M421.548,556.45c-3.672,8.13 5.37,-19.509 2.626,-14.324c-12.966,24.496 -15.651,20.7 -8.78,31.868l-104.604,40.925c0,0 54.236,86.711 60.049,91.583c5.818,4.867 19.371,-23.382 17.435,-52.611l83.297,-40.93c0,0 32.25,17.533 26.441,-56.511" style="fill:none;fill-rule:nonzero;stroke:#fff;stroke-width:8px;"/></g></g><g><clipPath id="_clip2"><rect x="538.392" y="453.96" width="203.372" height="192.528" clip-rule="nonzero"/></clipPath><g clip-path="url(#_clip2)"><path d="M544.359,541.983l20.965,6.613l65.094,93.593l105.566,-68.192c0,0 9.69,-15.591 -7.75,-19.491c-17.43,-3.896 -66.828,4.876 -66.828,4.876l-54.546,-112.455l-68.493,-2.911" style="fill:none;fill-rule:nonzero;stroke:#fff;stroke-width:8px;stroke-linejoin:miter;"/></g></g><g><clipPath id="_clip3"><rect x="448.17" y="201.763" width="162.225" height="103.574" clip-rule="nonzero"/></clipPath><g clip-path="url(#_clip3)"><path d="M454.131,275.857c0,0 -25.174,-79.897 73.617,-70.149c0,0 83.293,1.947 79.425,68.201l-11.626,17.534l11.626,11.696" style="fill:none;fill-rule:nonzero;stroke:#fff;stroke-width:8px;stroke-linejoin:miter;"/></g></g><g><path d="M89.96,190.115c0,0 10.774,0.833 35.135,5.286c22.192,4.062 64.821,49.477 107.194,119.508c0,0 -43.453,-8.077 -50.7,-9.901c-28.247,-7.1 -45.1,-42.744 -54.478,-52.772c-7.891,-8.439 -19.172,-35.52 -60.399,-21.201c0,0 5.813,-25.329 23.248,-40.92Z" style="fill:none;fill-rule:nonzero;stroke:#fff;stroke-width:8px;"/></g><g><clipPath id="_clip4"><rect x="63.75" y="230.145" width="70.109" height="48.763" clip-rule="nonzero"/></clipPath><g clip-path="url(#_clip4)"><path d="M66.711,231.037c0,0 12.213,40.648 18.022,44.543l48.437,-11.166" style="fill:none;fill-rule:nonzero;stroke:#fff;stroke-width:8px;stroke-linejoin:miter;"/></g></g><g><clipPath id="_clip5"><rect x="153.631" y="203.097" width="607.296" height="233.815" clip-rule="nonzero"/></clipPath><g clip-path="url(#_clip5)"><path d="M155.818,219.345c0,0 23.248,-23.386 38.747,-7.795c15.494,15.586 42.813,49.02 54.241,66.254c11.617,17.534 27.115,37.025 36.801,44.82c9.686,7.791 15.499,9.738 29.057,13.638l404.86,97.431c0,0 22.363,3.615 32.929,-28.258c9.686,-29.229 5.809,-51.634 -7.749,-55.534l-412.601,-99.379c0,0 9.681,17.539 9.681,31.182c0,13.634 0,13.634 -11.622,11.686c-11.621,-1.948 -17.435,-5.843 -25.179,-17.534c-7.754,-11.691 -13.563,-35.077 -27.121,-38.972c-13.557,-3.9 -83.297,-25.334 -83.297,-25.334" style="fill:none;fill-rule:nonzero;stroke:#fff;stroke-width:8px;stroke-linejoin:miter;"/></g></g><g><clipPath id="_clip6"><path d="M291.892,253.431l41.359,0l0,-9.809l-41.359,0l0,9.809Z" clip-rule="nonzero"/></clipPath><g clip-path="url(#_clip6)"><path d="M292.823,249.445c14.377,-4.567 29.587,-2.819 39.277,1.081" style="fill:none;fill-rule:nonzero;stroke:#fff;stroke-width:8px;stroke-linejoin:miter;"/></g></g><g><clipPath id="_clip7"><path d="M716.429,429.817l34.751,0l0,-77.098l-34.751,0l0,77.098Z" clip-rule="nonzero"/></clipPath><g clip-path="url(#_clip7)"><path d="M750.519,355.749c0,0 -30.997,6.819 -30.997,74.045" style="fill:none;fill-rule:nonzero;stroke:#fff;stroke-width:8px;stroke-linejoin:miter;"/></g></g><g><clipPath id="_clip8"><path d="M221.648,317.576l47.908,0l0,-13.334l-47.908,0l0,13.334Z" clip-rule="nonzero"/></clipPath><g clip-path="url(#_clip8)"><path d="M221.949,314.146c0,0 26.855,2.629 46.222,-7.114" style="fill:none;fill-rule:nonzero;stroke:#fff;stroke-width:8px;stroke-linejoin:miter;"/></g></g><g><clipPath id="_clip9"><rect x="474.306" y="288.337" width="191.84" height="154.385" clip-rule="nonzero"/></clipPath><g clip-path="url(#_clip9)"><path d="M477.378,379.133l5.818,50.664l9.68,3.895l114.295,5.843c0,0 9.681,-11.686 25.18,-38.968c15.499,-27.286 36.806,-70.149 29.056,-85.74c-7.744,-15.586 -29.056,-37.02 -54.236,-11.691c0,0 -43.589,112.046 -72.646,131.532" style="fill:none;fill-rule:nonzero;stroke:#fff;stroke-width:8px;stroke-linejoin:miter;"/></g></g><g opacity="0.3"><clipPath id="_clip10"><rect x="451.718" y="244.526" width="68.761" height="16.858" clip-rule="nonzero"/></clipPath><g clip-path="url(#_clip10)"><path d="M511.782,249.025l-59.581,9.295l67.799,-10.719" style="fill:none;fill-rule:nonzero;stroke:#fff;stroke-width:8px;stroke-linejoin:miter;"/></g></g><g><g><path d="M562.177,442.722l-87.871,0l-49.058,83.642l-10.309,23.86l85.639,6.704l28.815,-17.137l30.82,10.433l61.955,-107.502l-59.991,0Z" style="fill:none;stroke:#fff;stroke-width:8px;stroke-linecap:round;stroke-miterlimit:1.5;"/></g></g><path d="M457.458,258.318l1.477,-36.05c0,0 17.922,-8.81 15.371,-8.81c-2.552,0 20.402,-4.873 20.402,-4.873l33.684,-4.679l35.558,6.709l14.164,7.607l10.851,4.046l58.886,0l0,36.05l-89.021,0l-17.268,-6.152l-82.328,7.619" style="fill:none;stroke:#fff;stroke-width:8px;stroke-linecap:round;stroke-miterlimit:1.5;"/></g></svg>